<?xml version="1.0" encoding="UTF-8"?>
<svg version="1.1" xmlns="http://www.w3.org/2000/svg" width="500" height="500">
<path d="M0 0 C109.56 0 219.12 0 332 0 C334.16931431 4.33862861 334.19610495 7.15151811 333.875 11.8125 C333.82351807 12.56587646 333.77203613 13.31925293 333.71899414 14.09545898 C332.20634887 32.45723832 324.4686418 50.34140483 312 64 C311.34 64 310.68 64 310 64 C310 64.66 310 65.32 310 66 C297.02905387 78.3297967 281.34870091 86.69227215 263.43823242 88.15527344 C262.46564326 88.2361105 261.4930541 88.31694756 260.49099255 88.40023422 C244.69390313 89.54469152 228.8174261 89.29107195 212.98897958 89.26865101 C208.20848648 89.26350889 203.4280002 89.26830462 198.64750671 89.27142334 C190.63014321 89.27503842 182.61281683 89.27032799 174.59545898 89.26074219 C165.38121487 89.24985124 156.16705926 89.25339788 146.95281726 89.264395 C138.97757702 89.27352519 131.00236313 89.27472568 123.02711934 89.26951766 C118.29169371 89.26643067 113.55630943 89.26589715 108.82088661 89.27259064 C56.96793424 89.33555984 56.96793424 89.33555984 42 82 C41.17242187 81.59523438 40.34484375 81.19046875 39.4921875 80.7734375 C34.37485455 78.08466934 29.24789935 74.94695825 25 71 C25 70.34 25 69.68 25 69 C24.40960938 68.7421875 23.81921875 68.484375 23.2109375 68.21875 C11.91540151 61.99223546 4.70358752 44.43561223 0.9921875 32.85546875 C-1.62617707 22.95398333 -4.74097146 9.48194291 0 0 Z " fill="#0E1527" transform="translate(81,316)"/>
<path d="M0 0 C14.05629469 -0.11705433 28.11251326 -0.20476287 42.16919613 -0.25906086 C48.69670993 -0.28512474 55.22389568 -0.32046547 61.7512207 -0.37719727 C68.05360184 -0.43162953 74.35566795 -0.46144467 80.65826607 -0.47438622 C83.05958577 -0.48360581 85.46088875 -0.50160961 87.8620739 -0.52865028 C91.23256201 -0.565088 94.60175788 -0.56993896 97.97241211 -0.56762695 C98.95928513 -0.58560333 99.94615814 -0.60357971 100.9629364 -0.62210083 C109.74590286 -0.55715495 115.78031391 2.90858869 122.5 8.375 C126.38862728 11.50921987 130.34632253 14.53050076 134.34765625 17.51953125 C134.89292969 18.00808594 135.43820312 18.49664062 136 19 C136 19.66 136 20.32 136 21 C136.99 21.33 137.98 21.66 139 22 C142.21607203 25.4856095 145.07875918 29.26563029 148 33 C148.56460938 33.7115625 149.12921875 34.423125 149.7109375 35.15625 C168.78305714 59.77845737 176.9584686 92.4973414 173.22631836 123.25097656 C170.09011245 146.11760092 160.88111285 165.75484279 147 184 C146.44957031 184.78890625 145.89914062 185.5778125 145.33203125 186.390625 C144.89246094 186.92171875 144.45289063 187.4528125 144 188 C143.34 188 142.68 188 142 188 C141.73832031 188.5878125 141.47664062 189.175625 141.20703125 189.78125 C139.93518725 192.119138 138.58713472 193.64669784 136.6875 195.5 C136.11386719 196.0671875 135.54023438 196.634375 134.94921875 197.21875 C134.30597656 197.8065625 133.66273438 198.394375 133 199 C132.36234207 199.68737244 131.72468414 200.37474487 131.06770325 201.08294678 C126.4727823 203.95438097 122.2819363 203.52702758 116.9675293 203.45410156 C115.29857353 203.45497772 115.29857353 203.45497772 113.59590149 203.45587158 C109.92168888 203.45308696 106.24828949 203.42197542 102.57421875 203.390625 C100.02546126 203.383164 97.47669802 203.3774704 94.92793274 203.37347412 C88.90722209 203.35976694 82.88686001 203.32824831 76.86628896 203.28807616 C70.01023829 203.24332496 63.15417351 203.22136306 56.29801309 203.20129442 C42.19851419 203.15951435 28.09927306 203.08918334 14 203 C14.495 201.02 14.495 201.02 15 199 C15.66 199 16.32 199 17 199 C17.268125 198.42765625 17.53625 197.8553125 17.8125 197.265625 C19.04132636 194.92115366 20.42522176 192.87595062 22 190.75 C22.515625 190.04359375 23.03125 189.3371875 23.5625 188.609375 C24.2740625 187.81273437 24.2740625 187.81273437 25 187 C25.66 187 26.32 187 27 187 C27.25265625 186.29875 27.5053125 185.5975 27.765625 184.875 C29.14179189 181.66975053 30.859536 178.93095194 32.75 176 C38.59757364 166.65501031 42.8454482 156.97634587 46.25 146.5 C46.49637207 145.75347168 46.74274414 145.00694336 46.99658203 144.23779297 C50.63243312 132.56135897 51.3642728 120.85560942 51.3125 108.6875 C51.30976578 107.66594315 51.30976578 107.66594315 51.30697632 106.62374878 C51.26112279 96.43874001 50.77353508 86.86145806 48 77 C47.71866211 75.98679688 47.71866211 75.98679688 47.43164062 74.953125 C45.20434557 67.05307522 42.63162031 59.37628716 39 52 C38.67902344 51.28585938 38.35804688 50.57171875 38.02734375 49.8359375 C35.3047619 44.00043949 31.9647667 38.60289173 28.5 33.1875 C28.037146 32.45789063 27.57429199 31.72828125 27.09741211 30.9765625 C24.99393412 27.74032791 22.944147 24.79614128 20.15625 22.11328125 C19.4446875 21.41589844 18.733125 20.71851562 18 20 C18 19.34 18 18.68 18 18 C17.01 17.67 16.02 17.34 15 17 C12.3125 14.5625 12.3125 14.5625 10 12 C10 11.34 10 10.68 10 10 C9.01 9.67 8.02 9.34 7 9 C7 8.34 7 7.68 7 7 C6.401875 6.731875 5.80375 6.46375 5.1875 6.1875 C3.00152146 5.00082594 1.58667406 3.90400887 0 2 C0 1.34 0 0.68 0 0 Z " fill="#0E1527" transform="translate(154,91)"/>
<path d="M0 0 C5.78902462 2.72652722 10.87044094 5.81097398 16 9.625 C17.01900391 10.35976562 17.01900391 10.35976562 18.05859375 11.109375 C19.74666323 12.35250061 21.37916113 13.67040562 23 15 C23 15.66 23 16.32 23 17 C23.99 17.33 24.98 17.66 26 18 C26 18.66 26 19.32 26 20 C26.99 20.33 27.98 20.66 29 21 C29 21.66 29 22.32 29 23 C29.66 23 30.32 23 31 23 C31 23.66 31 24.32 31 25 C31.99 25.33 32.98 25.66 34 26 C54.74005256 48.30405652 64.17147865 77.83655296 64.1875 107.8125 C64.19974609 109.00681641 64.21199219 110.20113281 64.22460938 111.43164062 C64.26292156 134.89146609 56.61117593 159.36087827 42 178 C41.34 178 40.68 178 40 178 C40 178.99 40 179.98 40 181 C39.34 181 38.68 181 38 181 C37.6596875 181.804375 37.6596875 181.804375 37.3125 182.625 C33.81553286 188.9528453 28.4928534 193.44342843 23 198 C22.33484375 198.69013184 21.6696875 199.38026367 20.984375 200.09130859 C16.72067584 202.8182065 13.13128629 202.44170536 8.1875 202.25 C7.30384766 202.23195313 6.42019531 202.21390625 5.50976562 202.1953125 C3.33937457 202.14838513 1.16954481 202.07664731 -1 202 C-1.1771482 176.10550475 -1.34283017 150.21095826 -1.49477577 124.3163023 C-1.56559187 112.29358989 -1.6401926 100.27092299 -1.72363281 88.24829102 C-1.79633029 77.77217285 -1.86199831 67.29603854 -1.91914403 56.81982356 C-1.94966367 51.2702251 -1.98375819 45.72069949 -2.02626419 40.17117882 C-2.06613 34.95187908 -2.09662385 29.73260996 -2.11981392 24.5132103 C-2.13001484 22.59389259 -2.14369072 20.67458985 -2.16103554 18.75532341 C-2.18414152 16.14202324 -2.19493221 13.5289575 -2.20254517 10.91557312 C-2.2122618 10.15001293 -2.22197843 9.38445275 -2.2319895 8.59569377 C-2.22930964 4.8385817 -2.14009399 3.21014098 0 0 Z " fill="#FB5801" transform="translate(127,92)"/>
<path d="M0 0 C21.14626995 0.54731522 41.21666114 12.80864641 57 26 C57.94101562 26.71414062 58.88203125 27.42828125 59.8515625 28.1640625 C60.56054688 28.76992187 61.26953125 29.37578125 62 30 C62 30.66 62 31.32 62 32 C62.99 32.33 63.98 32.66 65 33 C65 33.66 65 34.32 65 35 C66.485 35.495 66.485 35.495 68 36 C69.82421875 37.99609375 69.82421875 37.99609375 71.6875 40.4375 C72.62142578 41.64212891 72.62142578 41.64212891 73.57421875 42.87109375 C75 45 75 45 75 47 C75.66 47 76.32 47 77 47 C79.02603261 49.64476114 80.59377042 52.6131764 82.25 55.5 C82.74435547 56.35916016 83.23871094 57.21832031 83.74804688 58.10351562 C88.07883475 65.81470823 91.31583303 73.58899735 94 82 C94.31453125 82.98355469 94.6290625 83.96710938 94.953125 84.98046875 C98.31676734 96.40695964 99.36920469 107.94231923 99.3125 119.8125 C99.30512817 121.65279785 99.30512817 121.65279785 99.29760742 123.53027344 C99.17898523 132.73048868 98.40480352 141.11098942 96 150 C95.67128906 151.26972656 95.34257812 152.53945312 95.00390625 153.84765625 C90.9691834 168.4520893 84.49141804 183.12995408 75 195 C74.431745 195.85470383 73.86348999 196.70940765 73.27801514 197.5900116 C71 200 71 200 68.20318604 200.60127258 C66.59102203 200.584618 66.59102203 200.584618 64.94628906 200.56762695 C63.11484344 200.56706047 63.11484344 200.56706047 61.24639893 200.56648254 C59.93274353 200.54067612 58.61908813 200.51486969 57.265625 200.48828125 C55.90372008 200.47895112 54.54179833 200.47183594 53.17987061 200.46684265 C49.60212549 200.44778774 46.02540173 200.39870266 42.44805908 200.34332275 C38.79494035 200.29209611 35.14165593 200.26932149 31.48828125 200.24414062 C24.32505612 200.19058013 17.16267138 200.10528846 10 200 C11.85483829 196.0673403 14.39018209 192.91306798 17.125 189.5625 C40.79657946 159.92264412 50.4621207 125.56651317 46.69091797 87.9140625 C43.94585491 67.44002898 36.40966501 46.52815396 24.12890625 29.796875 C22.91978108 27.8723159 22.42737062 26.22036233 22 24 C21.34 24 20.68 24 20 24 C18.125 21.953125 18.125 21.953125 16 19.25 C15.29875 18.36828125 14.5975 17.4865625 13.875 16.578125 C12 14 12 14 10.9375 11.734375 C10.06110808 9.64026314 10.06110808 9.64026314 7 9 C7 8.34 7 7.68 7 7 C6.01 6.67 5.02 6.34 4 6 C4 5.34 4 4.68 4 4 C2.68 3.34 1.36 2.68 0 2 C0 1.34 0 0.68 0 0 Z " fill="#2767F4" transform="translate(294,94)"/>
<path d="M0 0 C5.78902462 2.72652722 10.87044094 5.81097398 16 9.625 C17.01900391 10.35976562 17.01900391 10.35976562 18.05859375 11.109375 C19.74666323 12.35250061 21.37916113 13.67040562 23 15 C23 15.66 23 16.32 23 17 C23.99 17.33 24.98 17.66 26 18 C26 18.66 26 19.32 26 20 C26.99 20.33 27.98 20.66 29 21 C29 21.66 29 22.32 29 23 C29.66 23 30.32 23 31 23 C31 23.66 31 24.32 31 25 C31.99 25.33 32.98 25.66 34 26 C54.74005256 48.30405652 64.17147865 77.83655296 64.1875 107.8125 C64.19974609 109.00681641 64.21199219 110.20113281 64.22460938 111.43164062 C64.26292156 134.89146609 56.61117593 159.36087827 42 178 C41.34 178 40.68 178 40 178 C40 178.99 40 179.98 40 181 C39.34 181 38.68 181 38 181 C37.6596875 181.804375 37.6596875 181.804375 37.3125 182.625 C33.81553286 188.9528453 28.4928534 193.44342843 23 198 C22.33484375 198.69013184 21.6696875 199.38026367 20.984375 200.09130859 C16.72067584 202.8182065 13.13128629 202.44170536 8.1875 202.25 C7.30384766 202.23195313 6.42019531 202.21390625 5.50976562 202.1953125 C3.33937457 202.14838513 1.16954481 202.07664731 -1 202 C-1.1771482 176.10550475 -1.34283017 150.21095826 -1.49477577 124.3163023 C-1.56559187 112.29358989 -1.6401926 100.27092299 -1.72363281 88.24829102 C-1.79633029 77.77217285 -1.86199831 67.29603854 -1.91914403 56.81982356 C-1.94966367 51.2702251 -1.98375819 45.72069949 -2.02626419 40.17117882 C-2.06613 34.95187908 -2.09662385 29.73260996 -2.11981392 24.5132103 C-2.13001484 22.59389259 -2.14369072 20.67458985 -2.16103554 18.75532341 C-2.18414152 16.14202324 -2.19493221 13.5289575 -2.20254517 10.91557312 C-2.2122618 10.15001293 -2.22197843 9.38445275 -2.2319895 8.59569377 C-2.22930964 4.8385817 -2.14009399 3.21014098 0 0 Z M2 6 C1.91622334 10.85904653 2.1804228 15.19961927 3 20 C2.67 20.33 2.34 20.66 2 21 C1.90290929 23.27823745 1.87813396 25.55955423 1.87974548 27.83985901 C1.87889106 28.5635022 1.87803663 29.28714539 1.87715632 30.03271717 C1.87549938 32.47569346 1.88102635 34.91860222 1.88647461 37.36157227 C1.88675646 39.10553994 1.88659879 40.84950774 1.8860321 42.59347534 C1.88574405 47.34327495 1.89164203 52.09304953 1.89860606 56.84284329 C1.90483831 61.80098422 1.9054433 66.75912566 1.90663147 71.7172699 C1.90974517 81.11309828 1.91795907 90.50891509 1.92798096 99.90473837 C1.93914091 110.59863149 1.94465225 121.29252516 1.94967639 131.98642266 C1.96014166 153.99095491 1.97774184 175.99547673 2 198 C4.93538453 199.46769227 7.60777016 199.28669649 10.875 199.375 C12.72738281 199.44847656 12.72738281 199.44847656 14.6171875 199.5234375 C18.15685682 199.31219585 18.15685682 199.31219585 20.4453125 196.6015625 C22.17099287 194.21898392 22.17099287 194.21898392 22 192 C25.96 191.01 25.96 191.01 30 190 C30 188.68 30 187.36 30 186 C30.99 186 31.98 186 33 186 C33 184.68 33 183.36 33 182 C33.66 182 34.32 182 35 182 C35 181.34 35 180.68 35 180 C35.66 180 36.32 180 37 180 C37 179.34 37 178.68 37 178 C37.66 178 38.32 178 39 178 C41.61588503 174.44239635 42.49357808 171.35522853 43 167 C43.66 167 44.32 167 45 167 C45.33 166.01 45.66 165.02 46 164 C46.66 163.67 47.32 163.34 48 163 C48 161.35 48 159.7 48 158 C48.99 157.67 49.98 157.34 51 157 C51.103125 156.071875 51.20625 155.14375 51.3125 154.1875 C52 151 52 151 53.44140625 149.67578125 C55.62191693 147.33132239 55.93332616 145.10113108 56.625 142 C57.323636 138.93501626 58.0055272 135.98341839 59 133 C60.12093936 123.57580613 60.12833818 114.03969192 60.1875 104.5625 C60.20695679 102.89272095 60.20695679 102.89272095 60.22680664 101.18920898 C60.23372878 95.05019266 59.67728806 89.89300057 58 84 C57.78021547 82.04691475 57.60872041 80.0874034 57.5 78.125 C56.88792304 68.06114735 56.88792304 68.06114735 53 59 C52.34 59 51.68 59 51 59 C50.81824219 58.43152344 50.63648438 57.86304688 50.44921875 57.27734375 C49.65671175 54.84292482 48.83149887 52.4213555 48 50 C47.7834375 49.32324219 47.566875 48.64648438 47.34375 47.94921875 C46.09052702 44.46555724 45.30206001 43.16361584 42 41.375 C41.01 40.92125 40.02 40.4675 39 40 C37.25 37.3125 37.25 37.3125 36 35 C35.34 35 34.68 35 34 35 C34.495 33.515 34.495 33.515 35 32 C32.69347521 28.66835308 30.01183864 25.71065478 27 23 C26.34 23 25.68 23 25 23 C25 22.34 25 21.68 25 21 C24.360625 20.525625 23.72125 20.05125 23.0625 19.5625 C21 18 21 18 20 15 C17.73774618 13.92745649 17.73774618 13.92745649 15 13 C13.948125 12.46375 12.89625 11.9275 11.8125 11.375 C9.22230854 9.85359662 9.22230854 9.85359662 7 10 C6.67 9.01 6.34 8.02 6 7 C3.98491642 6.26676204 3.98491642 6.26676204 2 6 Z " fill="#E57C42" transform="translate(127,92)"/>
<path d="M0 0 C8.12003736 6.68708959 11.65999954 21.29906312 14.4375 31 C14.68411377 31.85899902 14.93072754 32.71799805 15.18481445 33.60302734 C17.92539591 43.67424984 18.1819385 53.40692417 18.1875 63.8125 C18.19974609 65.00681641 18.21199219 66.20113281 18.22460938 67.43164062 C18.26292156 90.89146609 10.61117593 115.36087827 -4 134 C-4.66 134 -5.32 134 -6 134 C-6 134.99 -6 135.98 -6 137 C-6.66 137 -7.32 137 -8 137 C-8.3403125 137.804375 -8.3403125 137.804375 -8.6875 138.625 C-11.80518115 144.26651828 -16.26961117 148.27097443 -21.1328125 152.38671875 C-22.83703768 153.85919783 -24.43024216 155.38636694 -26 157 C-26.66 156.67 -27.32 156.34 -28 156 C-27.33333333 154.66666667 -26.66666667 153.33333333 -26 152 C-25.690625 151.29875 -25.38125 150.5975 -25.0625 149.875 C-24 148 -24 148 -21 146 C-18.3125 145.875 -18.3125 145.875 -16 146 C-16 144.68 -16 143.36 -16 142 C-15.01 142 -14.02 142 -13 142 C-13 140.68 -13 139.36 -13 138 C-12.34 138 -11.68 138 -11 138 C-11 137.34 -11 136.68 -11 136 C-10.34 136 -9.68 136 -9 136 C-9 135.34 -9 134.68 -9 134 C-8.34 134 -7.68 134 -7 134 C-6.896875 133.484375 -6.79375 132.96875 -6.6875 132.4375 C-5.75736134 129.13973565 -4.38604488 126.13366668 -3 123 C-2.34 123 -1.68 123 -1 123 C-0.67 121.68 -0.34 120.36 0 119 C0.66 119 1.32 119 2 119 C2 117.35 2 115.7 2 114 C2.99 113.505 2.99 113.505 4 113 C4.73075648 110.6859378 5.40138258 108.35171131 6 106 C6.66 106 7.32 106 8 106 C8.18175781 104.78763672 8.18175781 104.78763672 8.3671875 103.55078125 C8.53476563 102.48214844 8.70234375 101.41351563 8.875 100.3125 C9.03742188 99.25675781 9.19984375 98.20101562 9.3671875 97.11328125 C10 94 10 94 11.03125 91.4921875 C14.56023381 82.41359206 13.1213775 70.19411939 13.1875 60.5625 C13.20055176 59.44915283 13.21360352 58.33580566 13.22705078 57.1887207 C13.2335127 51.04943881 12.67561151 45.89353015 11 40 C10.78039011 38.02600659 10.60881694 36.04568868 10.5 34.0625 C10.13298279 28.87838185 9.2967291 24.02482527 8 19 C7.66666667 17.66666667 7.33333333 16.33333333 7 15 C6.34 15 5.68 15 5 15 C1.67004115 10.2825583 0 5.77137126 0 0 Z " fill="#D4753F" transform="translate(173,136)"/>
<path d="M0 0 C0.15210938 0.62390625 0.30421875 1.2478125 0.4609375 1.890625 C0.95464025 3.95834487 0.95464025 3.95834487 1.625 5.75 C2.21108843 9.26653056 1.527443 12.4837133 1 16 C-0.32 16 -1.64 16 -3 16 C-3.33 17.32 -3.66 18.64 -4 20 C-4.66 20 -5.32 20 -6 20 C-5.938125 20.721875 -5.87625 21.44375 -5.8125 22.1875 C-6.04089927 25.61348911 -7.18184489 27.10441963 -9 30 C-10.09319126 32.63941673 -11.04147955 35.30701398 -12 38 C-12.66 38 -13.32 38 -14 38 C-14.2475 38.639375 -14.495 39.27875 -14.75 39.9375 C-15.1625 40.618125 -15.575 41.29875 -16 42 C-16.66 42.12375 -17.32 42.2475 -18 42.375 C-18.66 42.58125 -19.32 42.7875 -20 43 C-21.3045656 45.99615946 -21.3045656 45.99615946 -22 49 C-16.28664863 49.9561952 -10.69688924 50.2094778 -4.91015625 50.31640625 C-3.96563095 50.33718735 -3.02110565 50.35796844 -2.04795837 50.37937927 C0.94712573 50.44437354 3.94229193 50.503525 6.9375 50.5625 C8.97722178 50.60573297 11.01693548 50.64934873 13.05664062 50.69335938 C18.03767788 50.80000305 23.0187971 50.9014094 28 51 C28 50.34 28 49.68 28 49 C28.66 49 29.32 49 30 49 C30 48.34 30 47.68 30 47 C30.66 47 31.32 47 32 47 C32.33 46.01 32.66 45.02 33 44 C33.78199003 42.64854685 34.59745532 41.31615309 35.4375 40 C35.86933594 39.319375 36.30117188 38.63875 36.74609375 37.9375 C37.81703001 36.28271999 38.90663521 34.64004719 40 33 C40.66 33 41.32 33 42 33 C42 31.68 42 30.36 42 29 C42.66 29 43.32 29 44 29 C44.144375 28.05125 44.28875 27.1025 44.4375 26.125 C45 23 45 23 46 21 C46.66 21 47.32 21 48 21 C47.39047124 25.51566378 45.58369639 29.16863042 43.4375 33.125 C43.0861499 33.77936035 42.7347998 34.4337207 42.37280273 35.10791016 C38.93744146 41.36220546 35.06889729 47.93110271 30 53 C28.09756238 53.09391296 26.19161541 53.11743658 24.28686523 53.11352539 C23.0656749 53.11344986 21.84448456 53.11337433 20.58628845 53.11329651 C19.24372314 53.10818911 17.90115825 53.10297311 16.55859375 53.09765625 C15.19238842 53.09579199 13.82618243 53.09436813 12.4599762 53.09336853 C8.85798305 53.08954394 5.25603 53.07971417 1.65405273 53.06866455 C-2.01903745 53.05844916 -5.69213409 53.05387064 -9.36523438 53.04882812 C-16.57684123 53.03809184 -23.788415 53.02101614 -31 53 C-29.14516171 49.0673403 -26.60981791 45.91306798 -23.875 42.5625 C-13.70840439 29.83261735 -5.26046775 15.47196396 0 0 Z " fill="#2D5CB6" transform="translate(335,241)"/>
<path d="M0 0 C109.56 0 219.12 0 332 0 C334.17024588 4.34049177 334.1925813 7.15028096 333.875 11.8125 C333.82931885 12.5542749 333.7836377 13.2960498 333.73657227 14.06030273 C333.14764535 21.6678813 331.27456547 28.73196987 329 36 C327.95297814 32.2735915 327.92557943 28.86986958 328 25 C328.99 24.67 329.98 24.34 331 24 C331 16.74 331 9.48 331 2 C222.76 2 114.52 2 3 2 C0.37288383 7.97976246 0.37288383 7.97976246 -1 14 C-1.33 14 -1.66 14 -2 14 C-2.05437607 12.41705218 -2.09296271 10.83355744 -2.125 9.25 C-2.14820312 8.36828125 -2.17140625 7.4865625 -2.1953125 6.578125 C-2 4 -2 4 0 0 Z " fill="#52555A" transform="translate(81,316)"/>
<path d="M0 0 C2.71470466 2.71470466 3.64303462 5.90040171 4.9375 9.4375 C5.33727051 10.52285034 5.33727051 10.52285034 5.74511719 11.63012695 C11.01287465 26.14225071 13.38634828 40.35359321 13.3125 55.8125 C13.30758545 57.03936523 13.3026709 58.26623047 13.29760742 59.53027344 C13.13647882 72.02724269 12.42604365 94.57395635 3 104 C2.45247585 97.24720219 2.7502619 91.90294418 5.4375 85.625 C8.33577408 78.64130568 8.90535434 72.48752337 9 65 C9.02433105 63.96230469 9.04866211 62.92460937 9.07373047 61.85546875 C9.15519999 58.21615927 9.20684034 54.57745674 9.25 50.9375 C9.27167236 49.76630615 9.29334473 48.5951123 9.31567383 47.38842773 C9.34148209 40.16261959 8.51281049 33.73073918 6.64746094 26.74438477 C6 24 6 24 6 20 C5.34 20 4.68 20 4 20 C2.70756464 15.8803623 1.73747375 12.33168317 2 8 C1.34 8 0.68 8 0 8 C0 5.36 0 2.72 0 0 Z " fill="#698ED2" transform="translate(380,158)"/>
<path d="M0 0 C12.6937194 0.32854333 23.86244241 5.15822149 34.9375 10.9375 C35.71794678 11.34411865 36.49839355 11.7507373 37.30249023 12.16967773 C42.57147726 15.00916066 47.31149575 18.28390257 52 22 C51.01 22.495 51.01 22.495 50 23 C47.375 22.0625 47.375 22.0625 45 21 C45 20.34 45 19.68 45 19 C41.37 18.01 37.74 17.02 34 16 C34 15.34 34 14.68 34 14 C33.34 14 32.68 14 32 14 C32 13.34 32 12.68 32 12 C27.38 11.01 22.76 10.02 18 9 C17.67 9.99 17.34 10.98 17 12 C17.5775 12.70125 18.155 13.4025 18.75 14.125 C21.58270488 17.74456734 23.05491238 21.50420936 24 26 C23.67 26.66 23.34 27.32 23 28 C22.67 26.68 22.34 25.36 22 24 C21.34 24 20.68 24 20 24 C18.125 21.953125 18.125 21.953125 16 19.25 C15.29875 18.36828125 14.5975 17.4865625 13.875 16.578125 C12 14 12 14 10.9375 11.734375 C10.06110808 9.64026314 10.06110808 9.64026314 7 9 C7 8.34 7 7.68 7 7 C6.01 6.67 5.02 6.34 4 6 C4 5.34 4 4.68 4 4 C2.68 3.34 1.36 2.68 0 2 C0 1.34 0 0.68 0 0 Z " fill="#7C9ED0" transform="translate(294,94)"/>
<path d="M0 0 C5.67743865 4.67553771 8.23535079 13.37669039 11 20 C11.32033203 20.75007324 11.64066406 21.50014648 11.97070312 22.27294922 C20.32672142 42.75051634 17.22587313 66.49005127 15 88 C14.34 88 13.68 88 13 88 C13.01047363 86.83017578 13.02094727 85.66035156 13.03173828 84.45507812 C13.06812507 80.08662006 13.0909681 75.71817522 13.10986328 71.34960938 C13.11987847 69.46416974 13.13349452 67.57874547 13.15087891 65.69335938 C13.17532532 62.97261751 13.18652816 60.25208223 13.1953125 57.53125 C13.20563507 56.69758911 13.21595764 55.86392822 13.22659302 55.00500488 C13.22760259 49.65695575 12.44463273 45.14916866 11 40 C10.78039011 38.02600659 10.60881694 36.04568868 10.5 34.0625 C10.13298279 28.87838185 9.2967291 24.02482527 8 19 C7.66666667 17.66666667 7.33333333 16.33333333 7 15 C6.34 15 5.68 15 5 15 C1.67004115 10.2825583 0 5.77137126 0 0 Z " fill="#ED5D11" transform="translate(173,136)"/>
<path d="M0 0 C1.98 0.66 3.96 1.32 6 2 C6 2.33 6 2.66 6 3 C4.35 3 2.7 3 1 3 C1 67.35 1 131.7 1 198 C6.94 197.67 12.88 197.34 19 197 C18.67 197.66 18.34 198.32 18 199 C12.06 199 6.12 199 0 199 C0 133.33 0 67.66 0 0 Z " fill="#C75A21" transform="translate(127,94)"/>
<path d="M0 0 C0.33 0.66 0.66 1.32 1 2 C1.66 2 2.32 2 3 2 C3 3.32 3 4.64 3 6 C3.66 6 4.32 6 5 6 C5.19573608 7.43640171 5.38127816 8.87419504 5.5625 10.3125 C5.66691406 11.11300781 5.77132813 11.91351563 5.87890625 12.73828125 C6 15 6 15 5 18 C5.66 18 6.32 18 7 18 C7 20.64 7 23.28 7 26 C7.66 26 8.32 26 9 26 C12.69764753 40.50615568 9.60513032 54.7648854 6 69 C5.65616378 70.66453163 5.31928692 72.33058551 5 74 C4.34 74 3.68 74 3 74 C2.87625 74.94875 2.7525 75.8975 2.625 76.875 C2 80 2 80 0 82 C0.268125 80.865625 0.53625 79.73125 0.8125 78.5625 C1.20839455 76.7083464 1.60421822 74.85417767 2 73 C2.26425781 71.89011719 2.52851563 70.78023438 2.80078125 69.63671875 C7.11392549 49.29748406 6.25618988 28.15099751 1.45751953 7.99658203 C0.85088712 5.34928222 0.40929232 2.68409595 0 0 Z " fill="#3166C8" transform="translate(336,158)"/>
<path d="M0 0 C3.68232672 0.54681693 6.01887727 1.41758406 8.98828125 3.65234375 C9.69404297 4.18150391 10.39980469 4.71066406 11.12695312 5.25585938 C11.84818359 5.81080078 12.56941406 6.36574219 13.3125 6.9375 C14.05306641 7.48857422 14.79363281 8.03964844 15.55664062 8.60742188 C19.58479693 11.66288052 19.58479693 11.66288052 21 13 C21 13.66 21 14.32 21 15 C21.99 15.33 22.98 15.66 24 16 C24 16.66 24 17.32 24 18 C24.99 18.33 25.98 18.66 27 19 C27 19.66 27 20.32 27 21 C27.66 21 28.32 21 29 21 C29 21.66 29 22.32 29 23 C29.99 23.33 30.98 23.66 32 24 C33.33447266 25.33520508 33.33447266 25.33520508 34.6640625 27.01953125 C35.14617187 27.62990234 35.62828125 28.24027344 36.125 28.86914062 C36.62 29.51044922 37.115 30.15175781 37.625 30.8125 C38.12773437 31.44220703 38.63046875 32.07191406 39.1484375 32.72070312 C41.56560828 35.81689096 43.23265557 38.08461703 44 42 C38.80273636 40.13683001 36.54887058 39.09774116 34 34 C33.01 33.505 33.01 33.505 32 33 C31.8453125 32.13375 31.8453125 32.13375 31.6875 31.25 C30.69011368 27.98582659 28.4109475 26.35067381 26 24 C25.67 23.01 25.34 22.02 25 21 C24.34 21 23.68 21 23 21 C23 20.34 23 19.68 23 19 C22.360625 18.7525 21.72125 18.505 21.0625 18.25 C19 17 19 17 18.25 14.875 C18.1675 14.25625 18.085 13.6375 18 13 C17.34 12.9175 16.68 12.835 16 12.75 C10.51728569 11.37932142 5.93009087 9.06331429 2 5 C1.34 4.67 0.68 4.34 0 4 C-0.33 5.32 -0.66 6.64 -1 8 C-1 6.35 -1 4.7 -1 3 C-0.01 2.67 0.98 2.34 2 2 C1.34 1.34 0.68 0.68 0 0 Z " fill="#DE925C" transform="translate(129,94)"/>
<path d="M0 0 C0.15210938 0.62390625 0.30421875 1.2478125 0.4609375 1.890625 C0.95464025 3.95834487 0.95464025 3.95834487 1.625 5.75 C2.21108843 9.26653056 1.527443 12.4837133 1 16 C-0.32 16 -1.64 16 -3 16 C-3.33 17.32 -3.66 18.64 -4 20 C-4.66 20 -5.32 20 -6 20 C-5.938125 20.721875 -5.87625 21.44375 -5.8125 22.1875 C-6.04089927 25.61348911 -7.18184489 27.10441963 -9 30 C-10.09319126 32.63941673 -11.04147955 35.30701398 -12 38 C-12.66 38 -13.32 38 -14 38 C-14.2475 38.639375 -14.495 39.27875 -14.75 39.9375 C-16 42 -16 42 -18.0625 42.8125 C-18.701875 42.874375 -19.34125 42.93625 -20 43 C-20.33 42.67 -20.66 42.34 -21 42 C-21 38.35063397 -20.16127161 37.55793885 -18 34.6875 C-10.17936243 23.7860052 -4.63028398 12.52281349 0 0 Z " fill="#3569DF" transform="translate(335,241)"/>
<path d="M0 0 C42.24 0 84.48 0 128 0 C130.17024588 4.34049177 130.1925813 7.15028096 129.875 11.8125 C129.82931885 12.5542749 129.7836377 13.2960498 129.73657227 14.06030273 C129.14764535 21.6678813 127.27456547 28.73196987 125 36 C123.95297814 32.2735915 123.92557943 28.86986958 124 25 C124.99 24.67 125.98 24.34 127 24 C127 16.74 127 9.48 127 2 C85.09 1.67 43.18 1.34 0 1 C0 0.67 0 0.34 0 0 Z " fill="#54565C" transform="translate(285,316)"/>
<path d="M0 0 C3.60156104 2.05803488 6.88992126 4.24535883 10 7 C10 7.66 10 8.32 10 9 C10.99 9.33 11.98 9.66 13 10 C13 10.66 13 11.32 13 12 C13.99 12.33 14.98 12.66 16 13 C17.82421875 14.99609375 17.82421875 14.99609375 19.6875 17.4375 C20.31011719 18.24058594 20.93273437 19.04367188 21.57421875 19.87109375 C23 22 23 22 23 24 C23.66 24 24.32 24 25 24 C26.66473242 26.43056846 28.19287399 28.84314511 29.6875 31.375 C30.33041992 32.42300781 30.33041992 32.42300781 30.98632812 33.4921875 C32.05925001 35.28902931 33.03744173 37.14169878 34 39 C33.505 39.99 33.505 39.99 33 41 C30.88956215 39.030258 29.20691918 37.42601007 27.9375 34.8125 C27.0805106 32.63941744 27.0805106 32.63941744 24 32 C23.525625 31.175 23.05125 30.35 22.5625 29.5 C21.27479146 26.83606964 21.27479146 26.83606964 18.90234375 26.34375 C18.27457031 26.2303125 17.64679688 26.116875 17 26 C16.90203125 25.38511719 16.8040625 24.77023438 16.703125 24.13671875 C15.90270932 19.03099222 15.90270932 19.03099222 12.875 15.0625 C12.25625 14.711875 11.6375 14.36125 11 14 C11 13.34 11 12.68 11 12 C10.0409375 11.8453125 10.0409375 11.8453125 9.0625 11.6875 C8.0415625 11.3471875 8.0415625 11.3471875 7 11 C6.67 10.01 6.34 9.02 6 8 C4.66923011 7.65657551 3.33568021 7.32380126 2 7 C0 4 0 4 0 0 Z " fill="#3668C9" transform="translate(346,117)"/>
<path d="M0 0 C0.66 0.33 1.32 0.66 2 1 C2.0589002 5.41660901 2.09389517 9.83311469 2.125 14.25 C2.14175781 15.48492187 2.15851563 16.71984375 2.17578125 17.9921875 C2.23095697 28.475575 1.1290895 38.27079219 -2.125 48.25 C-2.47820312 49.34828125 -2.83140625 50.4465625 -3.1953125 51.578125 C-3.46085938 52.37734375 -3.72640625 53.1765625 -4 54 C-4.33 54 -4.66 54 -5 54 C-5.22577402 48.5814234 -4.46670113 44.22512279 -3 39 C-2.34 39 -1.68 39 -1 39 C-0.67 26.13 -0.34 13.26 0 0 Z " fill="#D5804E" transform="translate(189,185)"/>
<path d="M0 0 C4.75207471 -0.43200679 7.78210698 1.01510917 12 3 C11.0409375 3.1546875 11.0409375 3.1546875 10.0625 3.3125 C9.381875 3.539375 8.70125 3.76625 8 4 C7.67 4.99 7.34 5.98 7 7 C7.86625 8.051875 7.86625 8.051875 8.75 9.125 C11.58270488 12.74456734 13.05491238 16.50420936 14 21 C13.67 21.66 13.34 22.32 13 23 C12.67 21.68 12.34 20.36 12 19 C11.34 19 10.68 19 10 19 C5.1699151 13.9720562 0 7.30075722 0 0 Z " fill="#2B62D7" transform="translate(304,99)"/>
<path d="M0 0 C3.2838865 3.05437378 4.99591964 6.60894394 6.875 10.625 C7.22361084 11.36903076 7.57222168 12.11306152 7.93139648 12.87963867 C10.36915148 18.24788038 12.373789 23.66498728 14.0625 29.3125 C14.27825684 30.02293457 14.49401367 30.73336914 14.71630859 31.46533203 C15.69085104 34.93102248 16.39573656 37.58527344 15 41 C14.34 40.67 13.68 40.34 13 40 C12.21875 37.59375 12.21875 37.59375 11.5 34.5 C11.24476563 33.4171875 10.98953125 32.334375 10.7265625 31.21875 C10.48679688 30.1565625 10.24703125 29.094375 10 28 C9.80148438 27.1234375 9.60296875 26.246875 9.3984375 25.34375 C9.07065736 23.87607772 8.74706458 22.40745698 8.4296875 20.9375 C7.98857269 18.9484732 7.50240166 16.97435037 7 15 C6.34 15 5.68 15 5 15 C1.67004115 10.2825583 0 5.77137126 0 0 Z " fill="#DE8654" transform="translate(173,136)"/>
<path d="M0 0 C0 3 0 3 -2 6 C-1.01 7.485 -1.01 7.485 0 9 C2.33742225 9.4767085 2.33742225 9.4767085 5.09228516 9.43237305 C6.15323395 9.45216721 7.21418274 9.47196136 8.30728149 9.49235535 C9.45626923 9.49874527 10.60525696 9.50513519 11.7890625 9.51171875 C13.54940323 9.53864555 13.54940323 9.53864555 15.3453064 9.56611633 C19.10516736 9.62043422 22.86489985 9.65418448 26.625 9.6875 C29.1692888 9.72065403 31.71356059 9.75514187 34.2578125 9.79101562 C40.50509313 9.87617298 46.75238995 9.94443156 53 10 C53 10.33 53 10.66 53 11 C32.87 11 12.74 11 -8 11 C-6.4005386 7.80107719 -5.17187081 5.84646265 -2.875 3.25 C-2.33617187 2.63640625 -1.79734375 2.0228125 -1.2421875 1.390625 C-0.62730469 0.70226562 -0.62730469 0.70226562 0 0 Z " fill="#7396CE" transform="translate(312,283)"/>
<path d="M0 0 C18.48 0 36.96 0 56 0 C56 0.33 56 0.66 56 1 C38.51 1.33 21.02 1.66 3 2 C0.37288383 7.97976246 0.37288383 7.97976246 -1 14 C-1.33 14 -1.66 14 -2 14 C-2.05437607 12.41705218 -2.09296271 10.83355744 -2.125 9.25 C-2.14820312 8.36828125 -2.17140625 7.4865625 -2.1953125 6.578125 C-2 4 -2 4 0 0 Z " fill="#575960" transform="translate(81,316)"/>
<path d="M0 0 C0.33 0 0.66 0 1 0 C1.04974332 4.98045424 1.08588098 9.96076121 1.10986328 14.94140625 C1.11986984 16.63283816 1.13347931 18.32425299 1.15087891 20.015625 C1.17536403 22.45837642 1.18653672 24.90089749 1.1953125 27.34375 C1.20563507 28.08991577 1.21595764 28.83608154 1.22659302 29.6048584 C1.22766432 34.71195154 0.40327286 39.08611717 -1 44 C-1.66 44 -2.32 44 -3 44 C-3.12375 44.94875 -3.2475 45.8975 -3.375 46.875 C-4 50 -4 50 -6 52 C-5.5978125 50.2984375 -5.5978125 50.2984375 -5.1875 48.5625 C-4.78711943 46.70930993 -4.39203067 44.8549744 -4 43 C-3.74734375 41.8553125 -3.4946875 40.710625 -3.234375 39.53125 C-0.53605244 26.45680117 -0.27791214 13.31368069 0 0 Z " fill="#7FA3D9" transform="translate(342,188)"/>
<path d="M0 0 C6.93 0 13.86 0 21 0 C23.17024588 4.34049177 23.1925813 7.15028096 22.875 11.8125 C22.82931885 12.5542749 22.7836377 13.2960498 22.73657227 14.06030273 C22.14764535 21.6678813 20.27456547 28.73196987 18 36 C16.95297814 32.2735915 16.92557943 28.86986958 17 25 C17.99 24.67 18.98 24.34 20 24 C20 16.74 20 9.48 20 2 C13.4 1.67 6.8 1.34 0 1 C0 0.67 0 0.34 0 0 Z " fill="#66686E" transform="translate(392,316)"/>
<path d="M0 0 C0.66 0 1.32 0 2 0 C1.3904819 4.51558482 -0.41610804 8.168776 -2.5625 12.125 C-2.9138501 12.77863525 -3.2652002 13.43227051 -3.62719727 14.10571289 C-6.91754836 20.09089295 -10.61830718 25.74415399 -15 31 C-15.33 31 -15.66 31 -16 31 C-16 29.35 -16 27.7 -16 26 C-15.34 26 -14.68 26 -14 26 C-13.67 25.01 -13.34 24.02 -13 23 C-12.21800997 21.64854685 -11.40254468 20.31615309 -10.5625 19 C-9.91474609 17.9790625 -9.91474609 17.9790625 -9.25390625 16.9375 C-8.18296999 15.28271999 -7.09336479 13.64004719 -6 12 C-5.34 12 -4.68 12 -4 12 C-4 10.68 -4 9.36 -4 8 C-3.34 8 -2.68 8 -2 8 C-1.7834375 6.576875 -1.7834375 6.576875 -1.5625 5.125 C-1 2 -1 2 0 0 Z " fill="#7597D2" transform="translate(381,262)"/>
<path d="M0 0 C0.15210938 0.62390625 0.30421875 1.2478125 0.4609375 1.890625 C0.95464025 3.95834487 0.95464025 3.95834487 1.625 5.75 C2.21108843 9.26653056 1.527443 12.4837133 1 16 C-0.32 16 -1.64 16 -3 16 C-3.66 17.32 -4.32 18.64 -5 20 C-5.66 19.67 -6.32 19.34 -7 19 C-7 19.99 -7 20.98 -7 22 C-7.66 22 -8.32 22 -9 22 C-7.95946459 18.53154863 -6.71847298 15.33543038 -5.0625 12.125 C-3.02986545 8.18153672 -1.4916224 4.17654273 0 0 Z " fill="#698FDA" transform="translate(335,241)"/>
<path d="M0 0 C0.93423645 3.01031744 1.04449911 3.86650268 0 7 C-0.1256032 8.72774185 -0.22708843 10.45730553 -0.3125 12.1875 C-0.74996184 17.67035504 -2.23811066 21.27806017 -5 26 C-6.32 26 -7.64 26 -9 26 C-9 27.65 -9 29.3 -9 31 C-9.99 30.67 -10.98 30.34 -12 30 C-11.34 30 -10.68 30 -10 30 C-10 28.35 -10 26.7 -10 25 C-9.34 24.67 -8.68 24.34 -8 24 C-7.26924352 21.6859378 -6.59861742 19.35171131 -6 17 C-5.34 17 -4.68 17 -4 17 C-3.87882813 16.19175781 -3.75765625 15.38351563 -3.6328125 14.55078125 C-3.46523437 13.48214844 -3.29765625 12.41351563 -3.125 11.3125 C-2.96257812 10.25675781 -2.80015625 9.20101562 -2.6328125 8.11328125 C-2.04106931 5.20205086 -1.1968194 2.71044393 0 0 Z " fill="#E27537" transform="translate(185,225)"/>
<path d="M0 0 C6.21919248 3.42055586 12.55136161 9.41393621 14.73046875 16.3125 C14.81941406 16.869375 14.90835938 17.42625 15 18 C9.80273636 16.13683001 7.54887058 15.09774116 5 10 C4.34 9.67 3.68 9.34 3 9 C2.62243192 7.67851173 2.2981424 6.34164079 2 5 C1.3530635 3.3255761 0.69040574 1.65697379 0 0 Z " fill="#DD6E31" transform="translate(158,118)"/>
<path d="M0 0 C0.763125 0.66 1.52625 1.32 2.3125 2 C4.84277939 4.29850538 4.84277939 4.29850538 8 4 C10.1875 5 10.1875 5 12 6 C12 5.34 12 4.68 12 4 C14 5 14 5 14.625 6.8125 C15 9 15 9 15 13 C15.33 13.66 15.66 14.32 16 15 C13.50638429 13.79618552 11.31856917 12.54571278 9 11 C9 10.34 9 9.68 9 9 C8.443125 8.773125 7.88625 8.54625 7.3125 8.3125 C4.33840412 6.62449964 2.27991135 4.53323483 0 2 C0 1.34 0 0.68 0 0 Z " fill="#0F1828" transform="translate(97,376)"/>
<path d="M0 0 C0.66 0 1.32 0 2 0 C1.34 1.98 0.68 3.96 0 6 C14.19 6.33 28.38 6.66 43 7 C43 7.33 43 7.66 43 8 C37.71639341 8.02482718 32.43282122 8.04292007 27.14916992 8.05493164 C25.3539165 8.05994225 23.55866713 8.06675255 21.76342773 8.07543945 C19.17430622 8.0876489 16.58523893 8.09326116 13.99609375 8.09765625 C12.80348183 8.10539818 12.80348183 8.10539818 11.58677673 8.11329651 C6.95101044 8.11375707 2.5731533 7.76884311 -2 7 C-2 3.89448334 -1.4606285 2.64738916 0 0 Z " fill="#2D67E4" transform="translate(315,284)"/>
<path d="M0 0 C0.99 0 1.98 0 3 0 C1.62394084 4.76551013 -0.46778066 8.7248553 -3.125 12.875 C-3.49753906 13.46796875 -3.87007812 14.0609375 -4.25390625 14.671875 C-5.16365 16.1181343 -6.08103798 17.55958046 -7 19 C-8.0859375 17.234375 -8.0859375 17.234375 -9 15 C-7.625 11.25 -7.625 11.25 -6 8 C-5.34 8 -4.68 8 -4 8 C-4 7.01 -4 6.02 -4 5 C-2.68 5 -1.36 5 0 5 C0 3.35 0 1.7 0 0 Z " fill="#E0824C" transform="translate(176,251)"/>
<path d="M0 0 C0.99 0.495 0.99 0.495 2 1 C2 1.66 2 2.32 2 3 C2.66 3 3.32 3 4 3 C5.66473242 5.43056846 7.19287399 7.84314511 8.6875 10.375 C9.33041992 11.42300781 9.33041992 11.42300781 9.98632812 12.4921875 C11.05925001 14.28902931 12.03744173 16.14169878 13 18 C12.67 18.66 12.34 19.32 12 20 C9.88956215 18.030258 8.20691918 16.42601007 6.9375 13.8125 C6.0805106 11.63941744 6.0805106 11.63941744 3 11 C0.97467883 7.02436956 0 4.4949298 0 0 Z " fill="#6A8FD4" transform="translate(367,138)"/>
<path d="M0 0 C3.02788264 3.02788264 2.96212259 5.95303581 3.11352539 10.13793945 C3.10567017 11.85823364 3.10567017 11.85823364 3.09765625 13.61328125 C3.09443359 14.86044922 3.09121094 16.10761719 3.08789062 17.39257812 C3.07951172 18.68615234 3.07113281 19.97972656 3.0625 21.3125 C3.05798828 22.62541016 3.05347656 23.93832031 3.04882812 25.29101562 C3.03705949 28.5273901 3.0206176 31.76367178 3 35 C0.65862607 30.85654765 0.80725374 27.14939688 0.9375 22.5 C1.03658239 18.177072 1.10818717 14.20317264 0 10 C-0.06624507 8.25113019 -0.08552595 6.49997252 -0.0625 4.75 C-0.05347656 3.85796875 -0.04445313 2.9659375 -0.03515625 2.046875 C-0.02355469 1.37140625 -0.01195312 0.6959375 0 0 Z " fill="#2D6BEA" transform="translate(387,188)"/>
<path d="M0 0 C2.78889184 2.78889184 3.80912131 6.13053973 5.1875 9.75 C5.47302734 10.45382813 5.75855469 11.15765625 6.05273438 11.8828125 C7.7472103 16.31895873 8.28816117 19.26433233 7 24 C6.67 22.68 6.34 21.36 6 20 C5.34 20 4.68 20 4 20 C2.70756464 15.8803623 1.73747375 12.33168317 2 8 C1.34 8 0.68 8 0 8 C0 5.36 0 2.72 0 0 Z " fill="#6890D2" transform="translate(380,158)"/>
<path d="M0 0 C2 2 2 2 2.125 5.125 C2.08375 6.07375 2.0425 7.0225 2 8 C3.32 8.33 4.64 8.66 6 9 C5.67 15.27 5.34 21.54 5 28 C4.67 28 4.34 28 4 28 C3.96261719 27.14277344 3.92523438 26.28554687 3.88671875 25.40234375 C3.63276986 18.0769698 3.63276986 18.0769698 1.4375 11.1875 C-0.38973472 7.13580562 -0.23164382 4.40123263 0 0 Z " fill="#E56C2C" transform="translate(184,168)"/>
<path d="M0 0 C5.89369612 0.41293412 9.25351205 2.05085347 13.9375 5.5625 C14.52595703 5.98724609 15.11441406 6.41199219 15.72070312 6.84960938 C17.15573089 7.8879628 18.57912809 8.9423585 20 10 C19.01 10.495 19.01 10.495 18 11 C15.375 10.0625 15.375 10.0625 13 9 C13 8.34 13 7.68 13 7 C9.37 6.01 5.74 5.02 2 4 C2 3.34 2 2.68 2 2 C1.34 2 0.68 2 0 2 C0 1.34 0 0.68 0 0 Z " fill="#5380CC" transform="translate(326,106)"/>
<path d="M0 0 C0.97591583 3.38317487 0.85856655 5.5657338 0 9 C-0.66 9 -1.32 9 -2 9 C-2 9.66 -2 10.32 -2 11 C-2.99 11.33 -3.98 11.66 -5 12 C-5 13.98 -5 15.96 -5 18 C-6.98 18 -8.96 18 -11 18 C-10.505 16.515 -10.505 16.515 -10 15 C-9.34 15 -8.68 15 -8 15 C-7.73445312 14.28457031 -7.46890625 13.56914062 -7.1953125 12.83203125 C-5.97085901 9.93095681 -4.52016937 7.36984136 -2.875 4.6875 C-2.33617187 3.80449219 -1.79734375 2.92148437 -1.2421875 2.01171875 C-0.83226562 1.34785156 -0.42234375 0.68398438 0 0 Z " fill="#62656A" transform="translate(189,263)"/>
<path d="M0 0 C4.39366678 0.50213335 6.87182342 1.87182342 10 5 C10.8125 7.75 10.8125 7.75 11 10 C7.11438576 9.42435345 4.95386643 7.48746646 2 5 C1.34 4.67 0.68 4.34 0 4 C-0.33 5.32 -0.66 6.64 -1 8 C-1 6.35 -1 4.7 -1 3 C-0.01 2.67 0.98 2.34 2 2 C1.34 1.34 0.68 0.68 0 0 Z " fill="#E48447" transform="translate(129,94)"/>
<path d="M0 0 C0.33 0.66 0.66 1.32 1 2 C1.66 2 2.32 2 3 2 C3 3.32 3 4.64 3 6 C3.66 6 4.32 6 5 6 C5.66588578 13.02747312 6.11766421 19.94014727 6 27 C5.67 27 5.34 27 5 27 C4.35300994 23.62522069 3.70761568 20.25013807 3.0625 16.875 C2.88009766 15.92367187 2.69769531 14.97234375 2.50976562 13.9921875 C1.6205039 9.33568976 0.74875406 4.68168331 0 0 Z " fill="#7599D2" transform="translate(336,158)"/>
<path d="M0 0 C1.98828125 0.14453125 1.98828125 0.14453125 4 1 C7.07734828 5.09336168 8.49514774 9.95147745 9 15 C8.34 14.67 7.68 14.34 7 14 C7 13.01 7 12.02 7 11 C6.34 11 5.68 11 5 11 C3.2734375 9.03125 3.2734375 9.03125 1.375 6.5 C0.74335938 5.6646875 0.11171875 4.829375 -0.5390625 3.96875 C-1.02117187 3.3190625 -1.50328125 2.669375 -2 2 C-1.34 1.34 -0.68 0.68 0 0 Z " fill="#648ED4" transform="translate(309,107)"/>
<path d="M0 0 C5.45085015 3.6339001 7.08311801 7.87510565 9 14 C9.28658065 16.46198829 9.21589174 18.517245 9 21 C6.98578626 18.98578626 6.33459733 17.74173117 5.2734375 15.15625 C4.9640625 14.40472656 4.6546875 13.65320313 4.3359375 12.87890625 C4.01882813 12.09386719 3.70171875 11.30882812 3.375 10.5 C3.05015625 9.71496094 2.7253125 8.92992187 2.390625 8.12109375 C0 2.26506696 0 2.26506696 0 0 Z " fill="#5F88CD" transform="translate(327,136)"/>
<path d="M0 0 C0 0.99 0 1.98 0 3 C-0.66 3 -1.32 3 -2 3 C-2.25523437 3.58265625 -2.51046875 4.1653125 -2.7734375 4.765625 C-4.11741087 7.21388223 -5.61810296 8.81743248 -7.625 10.75 C-8.57246094 11.67039062 -8.57246094 11.67039062 -9.5390625 12.609375 C-10.02117187 13.06828125 -10.50328125 13.5271875 -11 14 C-11.66 13.67 -12.32 13.34 -13 13 C-12.67 11.35 -12.34 9.7 -12 8 C-11.67 8.66 -11.34 9.32 -11 10 C-10.34 10 -9.68 10 -9 10 C-8.8453125 9.13375 -8.8453125 9.13375 -8.6875 8.25 C-7.86774632 5.56716976 -6.91571956 4.05255667 -5 2 C-2.3125 0.75 -2.3125 0.75 0 0 Z " fill="#6E7378" transform="translate(298,276)"/>
<path d="M0 0 C0.33 0 0.66 0 1 0 C1.19756893 5.1367921 0.58463057 9.32774216 -0.875 14.25 C-1.22304687 15.45140625 -1.57109375 16.6528125 -1.9296875 17.890625 C-3 21 -3 21 -5 24 C-5.22577402 18.5814234 -4.46670113 14.22512279 -3 9 C-2.34 9 -1.68 9 -1 9 C-1.020625 7.88625 -1.04125 6.7725 -1.0625 5.625 C-1 2 -1 2 0 0 Z " fill="#E09466" transform="translate(189,215)"/>
<path d="M0 0 C4.44436539 6.66654809 9 15.96518969 9 24 C8.34 24 7.68 24 7 24 C7 22.68 7 21.36 7 20 C6.34 20 5.68 20 5 20 C4.89042969 19.34773438 4.78085937 18.69546875 4.66796875 18.0234375 C3.72500297 12.82562612 2.46661911 8.70900011 0 4 C0 2.68 0 1.36 0 0 Z " fill="#3166D5" transform="translate(332,140)"/>
<path d="M0 0 C2 1 2 1 3.1171875 3.5390625 C4.15410127 7.60413155 4.22297407 11.20733368 4.125 15.375 C4.11597656 16.11105469 4.10695313 16.84710938 4.09765625 17.60546875 C4.07430144 19.4037888 4.03843836 21.20193911 4 23 C3.67 23 3.34 23 3 23 C2.86722656 22.08476562 2.73445313 21.16953125 2.59765625 20.2265625 C2.42105469 19.03804687 2.24445313 17.84953125 2.0625 16.625 C1.88847656 15.44164062 1.71445312 14.25828125 1.53515625 13.0390625 C1.16537214 10.09297619 1.16537214 10.09297619 0 8 C-0.13415472 5.3276379 -0.04318541 2.67749512 0 0 Z " fill="#597FC6" transform="translate(387,180)"/>
<path d="M0 0 C0.33 0 0.66 0 1 0 C1.40258897 4.37428398 0.48601736 6.30196592 -2.25 9.6875 C-3.15492188 10.83798828 -3.15492188 10.83798828 -4.078125 12.01171875 C-5.97085268 13.96984556 -7.50368522 14.9672326 -10 16 C-8.30977276 12.3540648 -6.1614937 9.09204498 -3.9375 5.75 C-3.22464844 4.67234375 -2.51179688 3.5946875 -1.77734375 2.484375 C-0.89755859 1.25460937 -0.89755859 1.25460937 0 0 Z " fill="#80A2D5" transform="translate(323,267)"/>
<path d="M0 0 C0.33 0.99 0.66 1.98 1 3 C0.34 3 -0.32 3 -1 3 C-1.66 5.64 -2.32 8.28 -3 11 C-3.66 11 -4.32 11 -5 11 C-5 12.32 -5 13.64 -5 15 C-5.66 15 -6.32 15 -7 15 C-7.12375 15.639375 -7.2475 16.27875 -7.375 16.9375 C-7.58125 17.618125 -7.7875 18.29875 -8 19 C-8.66 19.33 -9.32 19.66 -10 20 C-9.01179657 13.28021667 -5.35367007 7.78218978 -2 2 C-1.34 2 -0.68 2 0 2 C0 1.34 0 0.68 0 0 Z " fill="#2E62D3" transform="translate(382,259)"/>
<path d="M0 0 C1.08038381 3.67807136 0.64197993 6.22836793 0 10 C0.33 10.99 0.66 11.98 1 13 C-0.4375 16.1875 -0.4375 16.1875 -2 19 C-2.99 19 -3.98 19 -5 19 C-4.35731596 14.54856736 -3.29333357 10.41118353 -1.9375 6.125 C-1.57527344 4.97257813 -1.21304688 3.82015625 -0.83984375 2.6328125 C-0.42412109 1.32957031 -0.42412109 1.32957031 0 0 Z " fill="#5A5E65" transform="translate(203,228)"/>
<path d="M0 0 C2.31 0 4.62 0 7 0 C6.01 0.66 5.02 1.32 4 2 C5.423125 2.4021875 5.423125 2.4021875 6.875 2.8125 C10 4 10 4 12 7 C12 7.99 12 8.98 12 10 C11.01 10 10.02 10 9 10 C9 9.34 9 8.68 9 8 C8.01 7.67 7.02 7.34 6 7 C6 6.34 6 5.68 6 5 C5.38125 4.690625 4.7625 4.38125 4.125 4.0625 C2.75 3.375 1.375 2.6875 0 2 C0 1.34 0 0.68 0 0 Z " fill="#5F6267" transform="translate(155,93)"/>
<path d="M0 0 C1.485 0.99 1.485 0.99 3 2 C2.67 3.65 2.34 5.3 2 7 C2.66 7 3.32 7 4 7 C4.85743651 11.39436211 5.08948558 15.52572076 5 20 C2.49959692 17.49959692 2.21635546 15.66641309 1.375 12.25 C1.11460938 11.22390625 0.85421875 10.1978125 0.5859375 9.140625 C0.00280624 6.01504144 -0.10443764 3.17110651 0 0 Z " fill="#7B7D83" transform="translate(80,334)"/>
<path d="M0 0 C-0.31767632 5.40049736 -3.19996327 7.52337065 -7 11 C-7.66 10.67 -8.32 10.34 -9 10 C-8.33333333 8.66666667 -7.66666667 7.33333333 -7 6 C-6.5359375 4.948125 -6.5359375 4.948125 -6.0625 3.875 C-4.59145194 1.27903283 -3.05066325 0 0 0 Z " fill="#E27F44" transform="translate(154,282)"/>
<path d="M0 0 C4.69978858 2.89217759 4.69978858 2.89217759 5.5546875 6.046875 C5.78597215 8.02330745 5.90062818 10.01256369 6 12 C4.35 11.67 2.7 11.34 1 11 C0.67 7.37 0.34 3.74 0 0 Z " fill="#4C7CD9" transform="translate(362,132)"/>
<path d="M0 0 C3.3 0 6.6 0 10 0 C10 0.33 10 0.66 10 1 C8.906875 1.020625 7.81375 1.04125 6.6875 1.0625 C5.470625 1.371875 4.25375 1.68125 3 2 C0.77890987 5.84988956 -0.33632649 9.61975482 -1 14 C-1.33 14 -1.66 14 -2 14 C-2.05437607 12.41705218 -2.09296271 10.83355744 -2.125 9.25 C-2.14820312 8.36828125 -2.17140625 7.4865625 -2.1953125 6.578125 C-2 4 -2 4 0 0 Z " fill="#727679" transform="translate(81,316)"/>
<path d="M0 0 C4.58271044 2.47714078 7.24713741 4.56767471 8.8125 9.625 C8.874375 10.40875 8.93625 11.1925 9 12 C8.34 12.66 7.68 13.32 7 14 C5.82807953 12.04480616 4.6626071 10.0857461 3.5 8.125 C2.8503125 7.03445312 2.200625 5.94390625 1.53125 4.8203125 C0 2 0 2 0 0 Z " fill="#64656C" transform="translate(187,130)"/>
<path d="M0 0 C2.25 0.125 2.25 0.125 5 1 C7.3125 4.0625 7.3125 4.0625 9 7 C5.87438528 8.04187157 4.95319818 8.23843794 2 7 C0.27898465 4.41847698 0 3.15081975 0 0 Z " fill="#3D424B" transform="translate(288,112)"/>
<path d="M0 0 C0.33 0.66 0.66 1.32 1 2 C0.06421005 4.35981813 -0.93347808 6.69631264 -2 9 C0.31 9.33 2.62 9.66 5 10 C5 10.33 5 10.66 5 11 C3.741875 11.04125 2.48375 11.0825 1.1875 11.125 C0.47980469 11.14820313 -0.22789062 11.17140625 -0.95703125 11.1953125 C-3 11 -3 11 -6 9 C-4.47291037 5.56404834 -2.40072955 2.88087546 0 0 Z " fill="#2B60C8" transform="translate(315,281)"/>
<path d="M0 0 C0.66 0 1.32 0 2 0 C1 7.42857143 1 7.42857143 0 11 C-0.66 11 -1.32 11 -2 11 C-2.33 12.65 -2.66 14.3 -3 16 C-4.31225809 12.06322574 -3.3393954 10.2205738 -2.0625 6.3125 C-1.68222656 5.13300781 -1.30195313 3.95351562 -0.91015625 2.73828125 C-0.60980469 1.83464844 -0.30945313 0.93101562 0 0 Z " fill="#2C5DC5" transform="translate(339,232)"/>
<path d="M0 0 C0.66 0 1.32 0 2 0 C2 4.62 2 9.24 2 14 C1.67 13.34 1.34 12.68 1 12 C0.34 12 -0.32 12 -1 12 C-2.36884358 7.48281619 -1.47075246 4.41225737 0 0 Z " fill="#090E19" transform="translate(204,228)"/>
<path d="M0 0 C0.99 0.33 1.98 0.66 3 1 C3.66 0.67 4.32 0.34 5 0 C4.67 0.99 4.34 1.98 4 3 C3.34 3 2.68 3 2 3 C2 3.66 2 4.32 2 5 C0.04072937 6.7143618 -1.95880212 8.38405168 -4 10 C-4.66 9.01 -5.32 8.02 -6 7 C-5.01 7 -4.02 7 -3 7 C-2.67 5.35 -2.34 3.7 -2 2 C-1.34 2 -0.68 2 0 2 C0 1.34 0 0.68 0 0 Z " fill="#72747B" transform="translate(389,377)"/>
<path d="M0 0 C0.33 0 0.66 0 1 0 C1.2248832 5.4042243 0.4886411 9.81275243 -1 14.9375 C-1.19078125 15.62134766 -1.3815625 16.30519531 -1.578125 17.00976562 C-2.04404937 18.67544526 -2.52088411 20.33806675 -3 22 C-4.04702186 18.2735915 -4.07442057 14.86986958 -4 11 C-3.01 10.67 -2.02 10.34 -1 10 C-0.67 6.7 -0.34 3.4 0 0 Z " fill="#82858B" transform="translate(413,330)"/>
<path d="M0 0 C0.66 0 1.32 0 2 0 C1.39644592 3.85025879 0.23227397 6.86101159 -1.5625 10.3125 C-2.01753906 11.19550781 -2.47257812 12.07851563 -2.94140625 12.98828125 C-3.29074219 13.65214844 -3.64007813 14.31601562 -4 15 C-4.66 15 -5.32 15 -6 15 C-6 14.01 -6 13.02 -6 12 C-5.34 12 -4.68 12 -4 12 C-4 10.68 -4 9.36 -4 8 C-3.34 8 -2.68 8 -2 8 C-1.7834375 6.576875 -1.7834375 6.576875 -1.5625 5.125 C-1 2 -1 2 0 0 Z " fill="#6E8ECE" transform="translate(381,262)"/>
<path d="M0 0 C2.475 0.495 2.475 0.495 5 1 C5.33 3.31 5.66 5.62 6 8 C6.99 8.33 7.98 8.66 9 9 C9 10.65 9 12.3 9 14 C6.14015453 11.48367951 4.58531178 8.66114447 2.8125 5.3125 C2.28269531 4.31863281 1.75289063 3.32476562 1.20703125 2.30078125 C0.60955078 1.16189453 0.60955078 1.16189453 0 0 Z " fill="#769CD5" transform="translate(318,122)"/>
<path d="M0 0 C1.32 0 2.64 0 4 0 C2.54955729 4.10958767 0.48889248 7.43258745 -2 11 C-2.66 10.01 -3.32 9.02 -4 8 C-3.34 6.68 -2.68 5.36 -2 4 C-1.01 4 -0.02 4 1 4 C1 3.34 1 2.68 1 2 C0.34 1.67 -0.32 1.34 -1 1 C-0.67 0.67 -0.34 0.34 0 0 Z " fill="#6A6E74" transform="translate(309,256)"/>
<path d="M0 0 C0.433125 0.474375 0.86625 0.94875 1.3125 1.4375 C3.02309613 3.23686957 3.02309613 3.23686957 6 4 C5.67 4.66 5.34 5.32 5 6 C5.66 6.33 6.32 6.66 7 7 C6.34 7 5.68 7 5 7 C5.33 8.65 5.66 10.3 6 12 C4.66104368 10.33784732 3.32869858 8.67036393 2 7 C1.401875 6.29875 0.80375 5.5975 0.1875 4.875 C-0.204375 4.25625 -0.59625 3.6375 -1 3 C-0.67 2.01 -0.34 1.02 0 0 Z " fill="#63666E" transform="translate(181,118)"/>
<path d="M0 0 C3.92582871 1.30860957 6.3987937 2.74849213 9 6 C9.75 8.75 9.75 8.75 10 11 C9.34 11 8.68 11 8 11 C5 7.53846154 5 7.53846154 5 5 C4.01 4.67 3.02 4.34 2 4 C0.8125 1.9375 0.8125 1.9375 0 0 Z " fill="#73787D" transform="translate(167,104)"/>
<path d="M0 0 C3.2605096 3.2605096 3.05467405 6.89083745 3.0625 11.3125 C3.041875 12.529375 3.02125 13.74625 3 15 C1 14 1 14 0.37890625 12.265625 C-0.04706889 9.71855716 -0.09646629 7.33143831 -0.0625 4.75 C-0.05347656 3.85796875 -0.04445313 2.9659375 -0.03515625 2.046875 C-0.02355469 1.37140625 -0.01195312 0.6959375 0 0 Z " fill="#3368E0" transform="translate(387,188)"/>
<path d="M0 0 C3.85025879 0.60355408 6.86101159 1.76772603 10.3125 3.5625 C11.19550781 4.01753906 12.07851563 4.47257812 12.98828125 4.94140625 C13.65214844 5.29074219 14.31601562 5.64007813 15 6 C10.54864537 7.48378488 7.16681097 5.92433728 3 4 C0.9375 1.8125 0.9375 1.8125 0 0 Z " fill="#8AA7D5" transform="translate(316,100)"/>
<path d="M0 0 C2.125 0.9375 2.125 0.9375 4 2 C2.7391988 3.03319813 1.46596742 4.05124379 0.1875 5.0625 C-0.87404297 5.91521484 -0.87404297 5.91521484 -1.95703125 6.78515625 C-2.63121094 7.18605469 -3.30539062 7.58695312 -4 8 C-4.99 7.67 -5.98 7.34 -7 7 C-6.34 6.67 -5.68 6.34 -5 6 C-4.505 5.175 -4.01 4.35 -3.5 3.5 C-2 1 -2 1 0 0 Z " fill="#64686D" transform="translate(380,386)"/>
<path d="M0 0 C0.99 0 1.98 0 3 0 C2.34 2.64 1.68 5.28 1 8 C0.01 7.67 -0.98 7.34 -2 7 C-2 7.99 -2 8.98 -2 10 C-2.66 10 -3.32 10 -4 10 C-2.8905928 6.51329166 -1.73662334 3.22515763 0 0 Z " fill="#7298D7" transform="translate(330,253)"/>
<path d="M0 0 C0.66 0.33 1.32 0.66 2 1 C1.1875 3.9375 1.1875 3.9375 0 7 C-0.99 7.33 -1.98 7.66 -3 8 C-3.33 8.66 -3.66 9.32 -4 10 C-3.67 7.69 -3.34 5.38 -3 3 C-2.01 3 -1.02 3 0 3 C0 2.01 0 1.02 0 0 Z " fill="#4573CB" transform="translate(328,260)"/>
<path d="M0 0 C0.33 0 0.66 0 1 0 C1.17835515 4.54805635 0.99785435 7.8794254 -1 12 C-1.33 12 -1.66 12 -2 12 C-2.05395478 10.37536158 -2.09277195 8.75021459 -2.125 7.125 C-2.14820313 6.22007812 -2.17140625 5.31515625 -2.1953125 4.3828125 C-2 2 -2 2 0 0 Z " fill="#5E85CC" transform="translate(385,250)"/>
<path d="M0 0 C2.32240046 2.85021875 3.93906527 5.46355091 5 9 C4.625 11.3125 4.625 11.3125 4 13 C3.34 12.67 2.68 12.34 2 12 C0.73238238 7.70418473 0 4.49055702 0 0 Z " fill="#DA834C" transform="translate(184,164)"/>
<path d="M0 0 C2.31 0.33 4.62 0.66 7 1 C7 2.98 7 4.96 7 7 C4.625 6.3125 4.625 6.3125 2 5 C0.6875 2.375 0.6875 2.375 0 0 Z " fill="#5A7AB1" transform="translate(296,95)"/>
<path d="M0 0 C1.35015859 4.05047576 0.62084998 6.7920168 0 11 C-1.32 11.33 -2.64 11.66 -4 12 C-3.52494322 10.18641846 -3.04483958 8.37415821 -2.5625 6.5625 C-2.29566406 5.55316406 -2.02882813 4.54382813 -1.75390625 3.50390625 C-1 1 -1 1 0 0 Z " fill="#396FD7" transform="translate(387,240)"/>
<path d="M0 0 C4.43458973 1.3937282 6.87378374 3.60582235 10 7 C7.69 6.34 5.38 5.68 3 5 C3 4.34 3 3.68 3 3 C1.35 2.67 -0.3 2.34 -2 2 C-1.34 1.34 -0.68 0.68 0 0 Z " fill="#7091D3" transform="translate(336,110)"/>
<path d="M0 0 C1.4370809 -0.05422947 2.87475462 -0.09289723 4.3125 -0.125 C5.11300781 -0.14820313 5.91351563 -0.17140625 6.73828125 -0.1953125 C9 0 9 0 12 2 C11.67 2.66 11.34 3.32 11 4 C9.53984709 3.71758359 8.08190207 3.42373386 6.625 3.125 C5.81289062 2.96257812 5.00078125 2.80015625 4.1640625 2.6328125 C2 2 2 2 0 0 Z " fill="#70737A" transform="translate(125,398)"/>
<path d="M0 0 C0.763125 0.66 1.52625 1.32 2.3125 2 C4.84277939 4.29850538 4.84277939 4.29850538 8 4 C8.33 5.65 8.66 7.3 9 9 C5.18063472 7.44396229 2.73955562 5.04395069 0 2 C0 1.34 0 0.68 0 0 Z " fill="#929398" transform="translate(97,376)"/>
<path d="M0 0 C-1.485 2.475 -1.485 2.475 -3 5 C-3.66 4.67 -4.32 4.34 -5 4 C-4.67 3.34 -4.34 2.68 -4 2 C-5.98 2.99 -5.98 2.99 -8 4 C-5.97675095 -0.48005146 -4.79569304 -1.43870791 0 0 Z " fill="#3A3E46" transform="translate(183,281)"/>
<path d="M0 0 C1 3 1 3 -0.3125 5.6875 C-0.869375 6.450625 -1.42625 7.21375 -2 8 C-2.66 8 -3.32 8 -4 8 C-4 8.66 -4 9.32 -4 10 C-4.66 10 -5.32 10 -6 10 C-6.33 10.66 -6.66 11.32 -7 12 C-7 11.01 -7 10.02 -7 9 C-6.34 9 -5.68 9 -5 9 C-4.87625 8.401875 -4.7525 7.80375 -4.625 7.1875 C-4 5 -4 5 -2 2 C-1.34 2 -0.68 2 0 2 C0 1.34 0 0.68 0 0 Z " fill="#EF5E0F" transform="translate(168,262)"/>
<path d="M0 0 C1.98 0.99 1.98 0.99 4 2 C4 4.64 4 7.28 4 10 C3.67 9.34 3.34 8.68 3 8 C2.34 8 1.68 8 1 8 C0.67 5.36 0.34 2.72 0 0 Z " fill="#396ED8" transform="translate(376,156)"/>
<path d="M0 0 C3.26460973 1.80412643 4.88929795 2.83394693 7 6 C4.625 6.125 4.625 6.125 2 6 C1.34 5.34 0.68 4.68 0 4 C0 2.68 0 1.36 0 0 Z " fill="#6A92D3" transform="translate(346,117)"/>
<path d="M0 0 C0.33 0.66 0.66 1.32 1 2 C1.66 2 2.32 2 3 2 C5.625 4.3125 5.625 4.3125 8 7 C8 7.99 8 8.98 8 10 C4.23077307 8.74359102 2.574302 6.99175638 0 4 C0 2.68 0 1.36 0 0 Z " fill="#F35F11" transform="translate(151,113)"/>
<path d="M0 0 C1.98 0.495 1.98 0.495 4 1 C3.34 1 2.68 1 2 1 C2.99 3.97 3.98 6.94 5 10 C4.01 9.34 3.02 8.68 2 8 C2 7.34 2 6.68 2 6 C1.01 5.67 0.02 5.34 -1 5 C-0.67 3.35 -0.34 1.7 0 0 Z " fill="#6D93D9" transform="translate(302,98)"/>
<path d="M0 0 C1.35439668 2.70879335 1.06501451 5.00933268 1 8 C-0.98 8 -2.96 8 -5 8 C-4.67 7.01 -4.34 6.02 -4 5 C-3.34 5 -2.68 5 -2 5 C-1.34 3.35 -0.68 1.7 0 0 Z " fill="#6D6E77" transform="translate(183,273)"/>
<path d="M0 0 C2.61500768 2.36595933 4.38999603 4.86049226 6 8 C5.67 8.66 5.34 9.32 5 10 C1.32769295 6.92000054 0.43197635 4.7517398 0 0 Z " fill="#799ED4" transform="translate(374,148)"/>
<path d="M0 0 C3 2 3 2 5 4 C5.125 7.625 5.125 7.625 5 11 C2.77174356 8.77174356 2.30760631 7.34238372 1.375 4.375 C1.11460937 3.55773437 0.85421875 2.74046875 0.5859375 1.8984375 C0.39257812 1.27195313 0.19921875 0.64546875 0 0 Z " fill="#7B9DD7" transform="translate(327,136)"/>
<path d="M0 0 C1.24727575 2.4945515 0.88934597 3.39371494 0.25 6.0625 C0.09015625 6.77535156 -0.0696875 7.48820313 -0.234375 8.22265625 C-0.61335937 9.10244141 -0.61335937 9.10244141 -1 10 C-1.99 10.33 -2.98 10.66 -4 11 C-3.67 9.35 -3.34 7.7 -3 6 C-2.34 6 -1.68 6 -1 6 C-1.020625 5.195625 -1.04125 4.39125 -1.0625 3.5625 C-1 1 -1 1 0 0 Z " fill="#F45C0B" transform="translate(182,232)"/>
<path d="M0 0 C0.33 0 0.66 0 1 0 C1.08107583 1.93681161 1.13922475 3.8745934 1.1875 5.8125 C1.23970703 7.43091797 1.23970703 7.43091797 1.29296875 9.08203125 C1 12 1 12 -0.51171875 13.88671875 C-1.00285156 14.25410156 -1.49398438 14.62148437 -2 15 C-1.855625 14.01 -1.71125 13.02 -1.5625 12 C-0.99074821 8.00590535 -0.49180166 4.00467063 0 0 Z " fill="#356DDC" transform="translate(343,216)"/>
<path d="M0 0 C5.57142857 5.14285714 5.57142857 5.14285714 6 9 C2.56225537 7.85408512 1.82586841 7.04311402 0 4 C0 2.68 0 1.36 0 0 Z " fill="#E0A175" transform="translate(167,127)"/>
<path d="M0 0 C0.33 0.99 0.66 1.98 1 3 C0.01 3 -0.98 3 -2 3 C-2 4.32 -2 5.64 -2 7 C-2.99 7 -3.98 7 -5 7 C-4.1875 4.0625 -4.1875 4.0625 -3 1 C-2.01 0.67 -1.02 0.34 0 0 Z " fill="#E05C12" transform="translate(159,275)"/>
<path d="M0 0 C3.0916909 2.52956528 3.90931332 5.22454612 5 9 C2 8 2 8 0.8125 6.1875 C0 4 0 4 0 0 Z " fill="#DF9D75" transform="translate(173,136)"/>
<path d="M0 0 C0.99 0.33 1.98 0.66 3 1 C3 1.66 3 2.32 3 3 C3.99 3.33 4.98 3.66 6 4 C6 4.66 6 5.32 6 6 C6.99 6.33 7.98 6.66 9 7 C8.67 7.66 8.34 8.32 8 9 C7.21625 8.360625 6.4325 7.72125 5.625 7.0625 C3.20460719 5.01857687 3.20460719 5.01857687 1 4 C0.375 1.9375 0.375 1.9375 0 0 Z " fill="#9EB8E1" transform="translate(353,123)"/>
<path d="M0 0 C2.04119788 1.61594832 4.04072937 3.2856382 6 5 C6 5.66 6 6.32 6 7 C4.68 7 3.36 7 2 7 C1.34 4.69 0.68 2.38 0 0 Z " fill="#6A6C72" transform="translate(299,122)"/>
<path d="M0 0 C0.33 2.97 0.66 5.94 1 9 C0.34 9 -0.32 9 -1 9 C-1.99 6.36 -2.98 3.72 -4 1 C-1 0 -1 0 0 0 Z " fill="#366DD2" transform="translate(319,113)"/>
<path d="M0 0 C3.55780196 0.60990891 6.6828589 1.5783681 10 3 C10 3.66 10 4.32 10 5 C3.47692308 4.50769231 3.47692308 4.50769231 1.0625 1.9375 C0.711875 1.298125 0.36125 0.65875 0 0 Z " fill="#3870DF" transform="translate(316,103)"/>
<path d="M0 0 C0.99 0 1.98 0 3 0 C3.33 2.64 3.66 5.28 4 8 C2.35 6.35 0.7 4.7 -1 3 C-0.67 2.01 -0.34 1.02 0 0 Z " fill="#6B6D75" transform="translate(93,368)"/>
<path d="M0 0 C0.66 0.33 1.32 0.66 2 1 C1.67 4.3 1.34 7.6 1 11 C0.67 11 0.34 11 0 11 C-0.19406478 9.35492782 -0.38007935 7.70890406 -0.5625 6.0625 C-0.66691406 5.14597656 -0.77132813 4.22945313 -0.87890625 3.28515625 C-0.91886719 2.53105469 -0.95882813 1.77695312 -1 1 C-0.67 0.67 -0.34 0.34 0 0 Z " fill="#515457" transform="translate(413,319)"/>
<path d="M0 0 C0.99 0.66 1.98 1.32 3 2 C1.02 4.97 1.02 4.97 -1 8 C-1.93423645 4.98968256 -2.04449911 4.13349732 -1 1 C-0.67 0.67 -0.34 0.34 0 0 Z " fill="#62676F" transform="translate(303,266)"/>
<path d="M0 0 C1.1875 1.625 1.1875 1.625 2 4 C0.625 7.25 0.625 7.25 -1 10 C-1.66 10 -2.32 10 -3 10 C-3 9.01 -3 8.02 -3 7 C-2.34 7 -1.68 7 -1 7 C-0.67 4.69 -0.34 2.38 0 0 Z " fill="#2561E7" transform="translate(340,236)"/>
<path d="M0 0 C2.83374881 3.20336822 3.5205537 5.78087253 4 10 C3.34 8.68 2.68 7.36 2 6 C1.34 6 0.68 6 0 6 C-0.38218767 4.34385343 -0.71395102 2.67542976 -1 1 C-0.67 0.67 -0.34 0.34 0 0 Z " fill="#DC9158" transform="translate(183,158)"/>
<path d="M0 0 C0.66 2.64 1.32 5.28 2 8 C-2.875 3.25 -2.875 3.25 -4 1 C-2 0 -2 0 0 0 Z " fill="#82A8DA" transform="translate(311,107)"/>
<path d="M0 0 C3.465 1.98 3.465 1.98 7 4 C5.02 4.99 5.02 4.99 3 6 C1.5 4.6875 1.5 4.6875 0 3 C0 2.01 0 1.02 0 0 Z " fill="#6B6E75" transform="translate(272,97)"/>
<path d="M0 0 C2.375 0.1875 2.375 0.1875 5 1 C6.3125 3.5625 6.3125 3.5625 7 6 C4.50638429 4.79618552 2.31856917 3.54571278 0 2 C0 1.34 0 0.68 0 0 Z " fill="#7C8086" transform="translate(106,385)"/>
<path d="M0 0 C0.66 0.33 1.32 0.66 2 1 C2.625 3.5625 2.625 3.5625 3 6 C2.01 6.33 1.02 6.66 0 7 C-1 6 -1 6 -1.125 3.5 C-1 1 -1 1 0 0 Z " fill="#070E1A" transform="translate(115,385)"/>
<path d="M0 0 C0.99 0 1.98 0 3 0 C1.8141763 3.37503669 0.72426311 5.64722731 -2 8 C-2.33 6.68 -2.66 5.36 -3 4 C-2.34 3.67 -1.68 3.34 -1 3 C-0.67 2.01 -0.34 1.02 0 0 Z " fill="#E39D72" transform="translate(170,262)"/>
<path d="M0 0 C2.15377564 2.62198774 3.40072174 4.64404172 4 8 C2.68 8 1.36 8 0 8 C0.33 6.68 0.66 5.36 1 4 C0.34 4 -0.32 4 -1 4 C-0.67 2.68 -0.34 1.36 0 0 Z " fill="#588CE7" transform="translate(332,249)"/>
<path d="M0 0 C1.875 0.5625 1.875 0.5625 4 2 C5.25 5.625 5.25 5.625 6 9 C5.01 8.67 4.02 8.34 3 8 C2.87625 7.195625 2.7525 6.39125 2.625 5.5625 C2.315625 4.2940625 2.315625 4.2940625 2 3 C1.34 2.67 0.68 2.34 0 2 C0 1.34 0 0.68 0 0 Z " fill="#3165D5" transform="translate(324,128)"/>
<path d="M0 0 C0 2.33333333 0 4.66666667 0 7 C-1.65 7 -3.3 7 -5 7 C-5 6.34 -5 5.68 -5 5 C-4.34 5 -3.68 5 -3 5 C-2.5359375 4.0409375 -2.5359375 4.0409375 -2.0625 3.0625 C-1 1 -1 1 0 0 Z " fill="#7E8083" transform="translate(174,285)"/>
<path d="M0 0 C0.99 0 1.98 0 3 0 C1.52307692 4.67692308 1.52307692 4.67692308 -1.125 6.3125 C-2.053125 6.6528125 -2.053125 6.6528125 -3 7 C-3 6.01 -3 5.02 -3 4 C-2.01 4 -1.02 4 0 4 C0 2.68 0 1.36 0 0 Z " fill="#D78F61" transform="translate(157,278)"/>
<path d="M0 0 C0.66 1.32 1.32 2.64 2 4 C0.02 4.66 -1.96 5.32 -4 6 C-3.34 4.68 -2.68 3.36 -2 2 C-1.34 2 -0.68 2 0 2 C0 1.34 0 0.68 0 0 Z " fill="#090F19" transform="translate(296,273)"/>
<path d="M0 0 C0.66 0 1.32 0 2 0 C1.67 1.98 1.34 3.96 1 6 C0.34 6 -0.32 6 -1 6 C-1.33 6.66 -1.66 7.32 -2 8 C-2 6.35 -2 4.7 -2 3 C-1.34 3 -0.68 3 0 3 C0 2.01 0 1.02 0 0 Z " fill="#D88459" transform="translate(166,267)"/>
<path d="M0 0 C0.99 0 1.98 0 3 0 C2.34 2.31 1.68 4.62 1 7 C0.34 6.34 -0.32 5.68 -1 5 C-0.625 2.375 -0.625 2.375 0 0 Z " fill="#5F606A" transform="translate(317,240)"/>
</svg>
