<?xml version="1.0" encoding="UTF-8"?>
<svg version="1.1" xmlns="http://www.w3.org/2000/svg" width="809" height="212">
<path d="M0 0 C0.84788589 0.00595688 1.69577179 0.01191376 2.5693512 0.01805115 C5.37879041 0.04295651 8.18684827 0.09697279 10.99584961 0.15185547 C12.96241942 0.17671298 14.92900919 0.20003459 16.89561462 0.22189331 C21.02933001 0.27204458 25.16254246 0.33566126 29.29589844 0.40966797 C34.54006797 0.5032473 39.78416027 0.57201735 45.02881718 0.63138008 C49.1001274 0.67894387 53.17125857 0.73610533 57.24239922 0.79635239 C59.17205527 0.82456815 61.10174013 0.8508899 63.03145027 0.87512589 C72.71409889 1.00478818 82.32779574 1.32091118 91.96630859 2.29589844 C92.72892785 2.37120348 93.49154711 2.44650852 94.27727604 2.52409554 C109.23037954 4.19266275 124.91318463 11.72153424 135.58569336 22.39404297 C135.58569336 23.05404297 135.58569336 23.71404297 135.58569336 24.39404297 C136.24569336 24.39404297 136.90569336 24.39404297 137.58569336 24.39404297 C146.42913119 33.53815768 152.46940721 44.42937123 156.58569336 56.39404297 C157.0362207 57.65861328 157.0362207 57.65861328 157.49584961 58.94873047 C162.10090239 74.07043868 160.50807215 90.59452253 155.58569336 105.39404297 C155.23506836 106.44849609 154.88444336 107.50294922 154.52319336 108.58935547 C153.39819336 111.58154297 153.39819336 111.58154297 152.09925842 114.25067139 C150.52375669 117.38442233 150.52375669 117.38442233 149.37376404 120.76202393 C147.37044469 124.96274819 145.63110547 127.96142716 141.58569336 130.39404297 C132.84053096 132.72004535 123.38975329 131.92526716 114.40934682 131.6792326 C110.76263025 131.59358121 107.11568948 131.58360551 103.46812439 131.56549072 C96.55056664 131.52000019 89.63570964 131.40921675 82.71939033 131.27374864 C74.14866313 131.10877075 65.57747023 131.02321504 57.00561523 130.94091797 C53.97862662 130.91156727 50.95164381 130.8817163 47.92466736 130.85113525 C46.82080198 130.84001438 46.82080198 130.84001438 45.69463629 130.82866883 C40.68674862 130.77589874 35.67954901 130.70028348 30.6721344 130.61419678 C13.16639665 130.27418949 13.16639665 130.27418949 -4.30733395 131.19576645 C-8.04180841 131.50640632 -9.16920238 131.55744581 -12.41430664 129.39404297 C-12.79462337 127.20694923 -12.79462337 127.20694923 -12.80198669 124.43496704 C-12.81189133 123.3862291 -12.82179596 122.33749115 -12.83200073 121.25697327 C-12.82749908 120.10160568 -12.82299744 118.9462381 -12.81835938 117.75585938 C-12.82522263 116.54279617 -12.83208588 115.32973297 -12.8391571 114.07991028 C-12.85435561 110.74703376 -12.85590981 107.41471496 -12.85021472 104.08184481 C-12.84712987 101.30101979 -12.85320764 98.52024571 -12.85925347 95.73942792 C-12.87331584 89.17861872 -12.87172405 82.61793967 -12.86035156 76.05712891 C-12.84887584 69.28714949 -12.86293253 62.51756646 -12.88974804 55.7476393 C-12.91189969 49.93778968 -12.91854345 44.12806453 -12.91267163 38.31817567 C-12.90929861 34.84712832 -12.91173914 31.37633491 -12.92892265 27.90532303 C-12.94725127 24.03372906 -12.93321009 20.16262278 -12.91601562 16.29101562 C-12.92568359 15.1396965 -12.93535156 13.98837738 -12.9453125 12.8021698 C-12.93547836 11.74779221 -12.92564423 10.69341461 -12.91551208 9.60708618 C-12.9153028 8.69157801 -12.91509352 7.77606983 -12.91487789 6.83281898 C-11.48515743 -0.13275878 -6.00936639 -0.15518105 0 0 Z " fill="#0A1224" transform="translate(56.414306640625,4.60595703125)"/>
<path d="M0 0 C27.75450687 0.10708689 55.50898579 0.21982051 83.26344204 0.33933926 C96.14933284 0.39469693 109.03522641 0.44818304 121.92114258 0.49731445 C133.14807653 0.54012519 144.37498988 0.58639521 155.60189205 0.63687855 C161.55043429 0.66350462 167.49897238 0.68835823 173.44753838 0.70907402 C179.03951196 0.72860252 184.63144624 0.75273472 190.22338486 0.78049088 C192.28219327 0.78988145 194.34101032 0.79754945 196.39983177 0.80341911 C199.19774536 0.81164636 201.99556268 0.82591319 204.79344177 0.84178162 C205.61930092 0.84275972 206.44516006 0.84373783 207.29604524 0.84474558 C212.88587879 0.88587879 212.88587879 0.88587879 214 2 C214.78038115 10.70425132 213.26850858 18.62812311 211 27 C210.34 27 209.68 27 209 27 C208.87882813 27.56589844 208.75765625 28.13179687 208.6328125 28.71484375 C208.38144531 29.81505859 208.38144531 29.81505859 208.125 30.9375 C207.88136719 32.03384766 207.88136719 32.03384766 207.6328125 33.15234375 C207 35 207 35 205 36 C202.77685235 38.15962914 200.6004794 40.32566485 198.5390625 42.640625 C191.6018849 50.15308074 182.83068364 54.96885434 172.9609375 57.4921875 C170.94118508 57.94244727 170.94118508 57.94244727 169 59 C167.29095914 59.08975113 165.57836063 59.11480142 163.86697388 59.10920715 C162.23548149 59.10731888 162.23548149 59.10731888 160.57102966 59.10539246 C159.37212601 59.09873062 158.17322235 59.09206879 156.93798828 59.08520508 C155.679254 59.08202271 154.42051971 59.07884033 153.12364197 59.07556152 C149.66228567 59.06617246 146.2009976 59.04982953 142.73967981 59.03119111 C140.57367785 59.01954934 138.40767298 59.00888277 136.24166489 58.99844933 C129.45528426 58.96517935 122.66895169 58.92711796 115.88263237 58.88308412 C108.06819722 58.83252039 100.25391368 58.79817547 92.43934262 58.77790338 C86.38979938 58.76115298 80.34045049 58.72918527 74.29103839 58.68605727 C70.68340851 58.66069545 67.07601975 58.64164662 63.46829605 58.63868141 C59.43051136 58.63490486 55.39356686 58.59955391 51.35595703 58.56176758 C50.17729568 58.5652269 48.99863434 58.56868622 47.78425598 58.57225037 C34.69462543 58.39209318 24.01137248 54.35915178 14.3125 45.5625 C13.549375 44.716875 12.78625 43.87125 12 43 C11.51917969 42.51144531 11.03835937 42.02289063 10.54296875 41.51953125 C3.77929751 34.31065634 0.88861217 25.85822823 -0.9375 16.3125 C-1.07824951 15.61205566 -1.21899902 14.91161133 -1.36401367 14.18994141 C-1.4797876 13.50464355 -1.59556152 12.8193457 -1.71484375 12.11328125 C-1.81917725 11.51298096 -1.92351074 10.91268066 -2.03100586 10.29418945 C-1.98270033 6.71996035 -0.89435279 3.45586976 0 0 Z " fill="#0A1224" transform="translate(17,147)"/>
<path d="M0 0 C8.25 0 16.5 0 25 0 C25 51.48 25 102.96 25 156 C17.08 156 9.16 156 1 156 C0.67 153.36 0.34 150.72 0 148 C-1.65 147.67 -3.3 147.34 -5 147 C-5.66 148.32 -6.32 149.64 -7 151 C-7.99 151 -8.98 151 -10 151 C-10.66 151.66 -11.32 152.32 -12 153 C-13.175625 153.33 -14.35125 153.66 -15.5625 154 C-16.696875 154.33 -17.83125 154.66 -19 155 C-19.33 155.66 -19.66 156.32 -20 157 C-21.65391846 157.39171753 -23.32345271 157.72057545 -25 158 C-25.99 158.33 -26.98 158.66 -28 159 C-45.76676132 159.09761957 -61.28961969 155.0598678 -74.55859375 142.74609375 C-79.04337715 137.70160939 -85 129.92429251 -85 123 C-85.66 122.67 -86.32 122.34 -87 122 C-87 120.35 -87 118.7 -87 117 C-87.66 116.67 -88.32 116.34 -89 116 C-90.29281568 98.63434072 -89.53959773 84.41187507 -83 68 C-82.6184375 67.04222656 -82.236875 66.08445312 -81.84375 65.09765625 C-81.5653125 64.40542969 -81.286875 63.71320313 -81 63 C-80.34 63 -79.68 63 -79 63 C-77.79371992 60.66785852 -76.8345262 58.50357861 -76 56 C-74.02916714 54.24814857 -72.07838937 52.60957973 -70 51 C-69.2575 50.401875 -68.515 49.80375 -67.75 49.1875 C-66 48 -66 48 -64 48 C-63.67 47.34 -63.34 46.68 -63 46 C-60.5625 44.3125 -60.5625 44.3125 -58 43 C-57.01 43.495 -57.01 43.495 -56 44 C-55.505 43.01 -55.505 43.01 -55 42 C-48.82820045 39.79249695 -42.1102741 39.57828992 -35.625 39.3125 C-34.73683594 39.26544922 -33.84867187 39.21839844 -32.93359375 39.16992188 C-26.39530731 38.8682309 -26.39530731 38.8682309 -23 40 C-23 40.66 -23 41.32 -23 42 C-22.01 41.67 -21.02 41.34 -20 41 C-20 41.66 -20 42.32 -20 43 C-19.01 42.67 -18.02 42.34 -17 42 C-12.29691894 43.84033607 -9.44716722 46.38047441 -6 50 C-4.02 51.65 -2.04 53.3 0 55 C0 36.85 0 18.7 0 0 Z M-57 74 C-64.26366409 84.94938089 -64.97571399 98.41814162 -62.73046875 111.015625 C-60.6783883 119.39952588 -56.06343602 126.00391111 -49 131 C-47.35008418 131.70710678 -45.68437744 132.37943989 -44 133 C-42.515 133.99 -42.515 133.99 -41 135 C-32.62645073 136.94733704 -24.90761591 136.3603514 -17 133 C-16.67 132.34 -16.34 131.68 -16 131 C-14.66923011 130.65657551 -13.33568021 130.32380126 -12 130 C-11.34 129.34 -10.68 128.68 -10 128 C-9.175 127.2575 -8.35 126.515 -7.5 125.75 C-4.83768236 122.8214506 -4.06125585 120.755213 -3 117 C-2.34 116.01 -1.68 115.02 -1 114 C0.40360632 108.4808813 1.45012955 102.70164098 1 97 C0.67 96.67 0.34 96.34 0 96 C0.020625 94.9275 0.04125 93.855 0.0625 92.75 C0.00146011 89.08760647 -0.49657156 87.25742828 -2 84 C-2.2475 83.071875 -2.495 82.14375 -2.75 81.1875 C-5.71036435 73.63857092 -10.69509471 68.46445876 -18 65 C-32.06200134 59.35133185 -46.96911499 62.80908067 -57 74 Z " fill="#0B1223" transform="translate(390,27)"/>
<path d="M0 0 C8.91 0 17.82 0 27 0 C27.33 28.38 27.66 56.76 28 86 C34.94227342 82.25132926 34.94227342 82.25132926 39 76 C40.6015625 74.421875 40.6015625 74.421875 42.625 72.75 C45.45488923 70.34255826 48.21678397 67.90928667 50.875 65.3125 C51.42929687 64.77238281 51.98359375 64.23226562 52.5546875 63.67578125 C54.08220241 62.05412142 54.08220241 62.05412142 54.94921875 60.00390625 C56.23758137 57.54691732 57.77177953 56.34305758 59.9375 54.625 C63.41566345 51.71086306 65.07677198 49.13494025 67 45 C70.50164885 42.54632814 73.99684931 42.68860207 78.171875 42.5859375 C79.1955014 42.55688828 79.1955014 42.55688828 80.23980713 42.5272522 C82.40974608 42.46768902 84.57973877 42.42116554 86.75 42.375 C88.22528297 42.33679869 89.70054415 42.2977457 91.17578125 42.2578125 C94.78365418 42.16200765 98.39169083 42.07789084 102 42 C102.33 42.99 102.66 43.98 103 45 C102.53706543 45.39292236 102.07413086 45.78584473 101.59716797 46.19067383 C95.86582206 51.12274079 90.47235012 56.34430155 85.125 61.6875 C84.27164063 62.52861328 83.41828125 63.36972656 82.5390625 64.23632812 C81.724375 65.04908203 80.9096875 65.86183594 80.0703125 66.69921875 C78.96840576 67.79496216 78.96840576 67.79496216 77.84423828 68.9128418 C75.93162804 70.88817577 75.93162804 70.88817577 74.93310547 73.20629883 C74 75 74 75 71 76 C71 76.66 71 77.32 71 78 C69.80711683 78.83501822 68.59553421 79.64344589 67.375 80.4375 C65.34933899 81.92086425 65.34933899 81.92086425 64 84 C63.97336397 87.87287942 64.85314938 91.31697116 66 95 C67.485 95.495 67.485 95.495 69 96 C69.33 96.99 69.66 97.98 70 99 C71.14657946 101.52247481 72.01615727 103.01615727 74 105 C75.57846158 106.97307697 76.88989458 108.75776807 77.9375 111.0625 C79.23265164 113.4242471 80.85786326 114.41067274 83 116 C83.33 116.99 83.66 117.98 84 119 C84.99 120.485 84.99 120.485 86 122 C86.33 122.680625 86.66 123.36125 87 124.0625 C87.95925017 126.16194362 87.95925017 126.16194362 90 128 C91.0073108 129.32781878 92.00612666 130.66209359 93 132 C93.70125 132.86625 94.4025 133.7325 95.125 134.625 C97.14428728 137.18276388 97.96786092 138.90358275 99 142 C99.66 142.66 100.32 143.32 101 144 C107 151.56521739 107 151.56521739 107 156 C100.19175894 156.94267953 93.78901489 156.97730988 86.9375 156.5625 C85.97650391 156.51029297 85.01550781 156.45808594 84.02539062 156.40429688 C81.68314207 156.27611412 79.34149125 156.14123891 77 156 C76.67 155.34 76.34 154.68 76 154 C75.34 153.67 74.68 153.34 74 153 C74 152.01 74 151.02 74 150 C73.34 149.34 72.68 148.68 72 148 C70.84991878 146.26638003 69.7284837 144.51364643 68.625 142.75 C64.30437135 135.49724852 64.30437135 135.49724852 59 129 C57.91135558 127.37134198 56.85312041 125.72225383 55.8125 124.0625 C55.19890625 123.08796875 54.5853125 122.1134375 53.953125 121.109375 C52.98632812 119.57023437 52.98632812 119.57023437 52 118 C50.68881564 115.93666337 49.37638208 113.87411985 48.0625 111.8125 C47.04166667 110.20833333 46.02083333 108.60416667 45 107 C39.86771231 109.25319948 36.05263967 112.21568579 32 116 C30.97592041 116.78370972 30.97592041 116.78370972 29.93115234 117.58325195 C27.22855948 120.96542222 27.39727844 124.11311542 27.390625 128.265625 C27.36582062 129.45572174 27.36582062 129.45572174 27.34051514 130.66986084 C27.29204384 133.19665269 27.27066713 135.72284281 27.25 138.25 C27.22183943 139.96617609 27.19191188 141.68232416 27.16015625 143.3984375 C27.08296558 147.5992348 27.04244309 151.79813369 27 156 C18.75 156 10.5 156 2 156 C1.98969254 154.08986618 1.97938507 152.17973236 1.96876526 150.2117157 C1.87117168 132.24420184 1.76850994 114.27672332 1.66066074 96.309268 C1.60534016 87.07118183 1.55186006 77.8330918 1.50268555 68.5949707 C1.45982946 60.54472567 1.41354784 52.49450893 1.36312145 44.44430763 C1.33653202 40.18026959 1.3116792 35.91623713 1.29092598 31.65216637 C1.27134955 27.64099158 1.24720271 23.6298706 1.21950912 19.6187439 C1.21014403 18.14452402 1.2024668 16.67029233 1.19658089 15.19605446 C1.18831064 13.18709104 1.17344497 11.17815797 1.15821838 9.16923523 C1.15176583 8.043726 1.14531328 6.91821676 1.1386652 5.75860119 C1.11911525 2.91034216 1.11911525 2.91034216 0 0 Z " fill="#0B1324" transform="translate(688,27)"/>
<path d="M0 0 C2.83110911 0.7740328 5.66724961 1.52782194 8.50390625 2.28125 C11 3 11 3 13 4 C13.86625 4.391875 14.7325 4.78375 15.625 5.1875 C21.40843086 8.29341658 26.51170973 12.20217247 31 17 C32.2375 18.175625 32.2375 18.175625 33.5 19.375 C37.07618944 23.12999891 40.07286035 26.80801797 41 32 C41.33 32.66 41.66 33.32 42 34 C41.505 34.99 41.505 34.99 41 36 C41.66 36.33 42.32 36.66 43 37 C46.32410143 44.47160413 46.31736724 52.6637394 46.375 60.6875 C46.38869629 61.66090332 46.40239258 62.63430664 46.41650391 63.63720703 C46.37663684 69.98038119 45.32617762 75.11801768 43 81 C42.649375 82.0725 42.29875 83.145 41.9375 84.25 C39.44827586 91.55172414 39.44827586 91.55172414 37 94 C36.34 94.99 35.68 95.98 35 97 C31.71443055 100.47331628 28.20570966 103.59653224 24.55078125 106.66796875 C23.31951682 107.72555357 22.14771463 108.85228537 21 110 C15.46153846 113 15.46153846 113 13 113 C12.67 113.66 12.34 114.32 12 115 C9.93734178 115.3911938 7.90556733 115.50674519 5.8125 115.65625 C5.214375 115.7696875 4.61625 115.883125 4 116 C3.67 116.66 3.34 117.32 3 118 C-26.16857536 118.66994961 -26.16857536 118.66994961 -36 115 C-36.33 114.34 -36.66 113.68 -37 113 C-37.86625 112.71125 -38.7325 112.4225 -39.625 112.125 C-46.07483735 109.97505422 -50.42033733 106.96130123 -55 102 C-55.69029297 101.37931641 -55.69029297 101.37931641 -56.39453125 100.74609375 C-67.54214673 88.6220448 -71.67061528 71.04429028 -71 55 C-70.15193507 45.86158325 -67.78058353 37.36156087 -64 29 C-63.67 28.01 -63.34 27.02 -63 26 C-62.34 26 -61.68 26 -61 26 C-60.71125 25.4225 -60.4225 24.845 -60.125 24.25 C-59.75375 23.5075 -59.3825 22.765 -59 22 C-58.71898437 21.35804687 -58.43796875 20.71609375 -58.1484375 20.0546875 C-56.86660338 17.76133802 -55.53411985 16.52125801 -53.5 14.875 C-51.5704306 13.29700469 -49.76541706 11.76541706 -48 10 C-46.66666667 9.33333333 -45.33333333 8.66666667 -44 8 C-43.34 7.34 -42.68 6.68 -42 6 C-41.01 6 -40.02 6 -39 6 C-38.67 5.34 -38.34 4.68 -38 4 C-35.890625 3.18359375 -35.890625 3.18359375 -33.25 2.4375 C-32.38890625 2.18871094 -31.5278125 1.93992187 -30.640625 1.68359375 C-24.6979836 0.14518806 -18.99285451 -0.32656807 -12.875 -0.625 C-11.51568359 -0.70234375 -11.51568359 -0.70234375 -10.12890625 -0.78125 C-9.25878906 -0.82507813 -8.38867188 -0.86890625 -7.4921875 -0.9140625 C-6.70183105 -0.9548291 -5.91147461 -0.9955957 -5.09716797 -1.03759766 C-3 -1 -3 -1 0 0 Z M-37 33 C-38.83140473 36.03129059 -39.94475936 38.83427808 -41.0625 42.1875 C-42 45 -42 45 -44 48 C-45.03762267 53.18811335 -45.60423375 58.71551499 -45 64 C-44.34 64.99 -43.68 65.98 -43 67 C-42.6271872 68.75912409 -42.32093756 70.53297282 -42.0625 72.3125 C-41.31769678 76.67739328 -40.49548043 80.25677935 -38 84 C-35.98330173 85.13350534 -35.98330173 85.13350534 -34 86 C-33.566875 86.9590625 -33.566875 86.9590625 -33.125 87.9375 C-30.64406186 92.48588659 -24.10217285 93.91772174 -19.359375 95.4296875 C-11.93922222 97.22330059 -4.68365194 95.89877781 2.3125 93.0625 C4.06417778 92.04663277 4.06417778 92.04663277 5.5 90.5 C7 89 7 89 9.125 88 C11.3530435 87.08797022 11.3530435 87.08797022 12 84 C12.63421875 83.39800781 13.2684375 82.79601562 13.921875 82.17578125 C20.6167266 75.16632196 20.41517221 64.04572447 20.23828125 54.921875 C20.32633131 52.11056704 20.32633131 52.11056704 19 51 C18.65458149 48.66842508 18.32205743 46.33491639 18 44 C15.40924362 36.22773085 10.0987424 29.87545356 2.984375 25.86328125 C-10.45767719 19.52059106 -26.96675899 21.73362323 -37 33 Z M-44 67 C-43 70 -43 70 -43 70 Z M-43 72 C-42 74 -42 74 -42 74 Z M-42 75 C-41 77 -41 77 -41 77 Z " fill="#0B1324" transform="translate(503,67)"/>
<path d="M0 0 C0 0.66 0 1.32 0 2 C1.175625 2.12375 2.35125 2.2475 3.5625 2.375 C7.54120426 2.86435935 11.17766559 3.8055205 15 5 C15 5.66 15 6.32 15 7 C16.32 7 17.64 7 19 7 C19.99 7.99 19.99 7.99 21 9 C21.61875 9.268125 22.2375 9.53625 22.875 9.8125 C25.67371512 11.37648786 27.07836275 13.45847976 29 16 C30.68117004 17.81049081 31.78953228 18.89476614 34 20 C34.71247732 21.6476038 35.37400383 23.31763529 36 25 C37.00829844 27.07961553 38.05996885 29.10731268 39.1875 31.125 C39.5896875 32.053125 39.5896875 32.053125 40 33 C39.505 33.99 39.505 33.99 39 35 C39.66 35.33 40.32 35.66 41 36 C41 38.31 41 40.62 41 43 C36.92054099 43.48069774 32.83707147 43.90199831 28.75 44.3125 C27.59113281 44.44978516 26.43226563 44.58707031 25.23828125 44.72851562 C16.66787589 45.54592423 16.66787589 45.54592423 13.26171875 42.76171875 C12 40 12 40 11.0625 36.5 C9.82719692 32.43076633 8.24970711 30.68100837 5 28 C4.34 28 3.68 28 3 28 C3 27.34 3 26.68 3 26 C-9.42777867 23.62267997 -20.32065305 23.88043537 -31 31 C-31.66 31.99 -32.32 32.98 -33 34 C-33.495 34.433125 -33.99 34.86625 -34.5 35.3125 C-36.56003113 37.63003502 -37.09886612 40.05629601 -38 43 C-38.5259375 44.0209375 -38.5259375 44.0209375 -39.0625 45.0625 C-41.45876516 50.01478133 -41.09152355 55.26171974 -41 60.625 C-40.8653537 68.59606109 -40.8653537 68.59606109 -42 72 C-41.34 72.33 -40.68 72.66 -40 73 C-39.64587656 74.32796291 -39.31478446 75.66216607 -39 77 C-38.34 77.99 -37.68 78.98 -37 80 C-36.67 80.99 -36.34 81.98 -36 83 C-33.6432487 88.57546257 -29.04858546 91.66438194 -23.6015625 94.05078125 C-14.16175215 97.1924216 -5.19922529 96.8565983 4 93 C4.66 92.34 5.32 91.68 6 91 C6.680625 90.360625 7.36125 89.72125 8.0625 89.0625 C10.21171168 87.06329525 10.21171168 87.06329525 11 84 C11.66 84 12.32 84 13 84 C13.33 81.69 13.66 79.38 14 77 C14.66 77 15.32 77 16 77 C16 76.34 16 75.68 16 75 C24.25 75.33 32.5 75.66 41 76 C39.47256698 91.27433018 33.60452744 99.39547256 23 110 C21.66666667 110.66666667 20.33333333 111.33333333 19 112 C18.34 112.66 17.68 113.32 17 114 C16.01 114 15.02 114 14 114 C13.67 114.66 13.34 115.32 13 116 C9.04667961 117.56294062 5.18314319 118.33449995 1 119 C0.01 119.495 0.01 119.495 -1 120 C-4.08502971 120.11620006 -7.16799355 119.90548049 -10.25 119.75 C-11.1457373 119.70552734 -12.04147461 119.66105469 -12.96435547 119.61523438 C-30.20832792 118.59163365 -42.94212092 113.7216653 -55.125 101.11328125 C-58.39013554 97.4332014 -60.65173593 93.93085312 -62.6875 89.4375 C-63.34298828 88.01244141 -63.34298828 88.01244141 -64.01171875 86.55859375 C-65 84 -65 84 -65 81 C-65.66 80.67 -66.32 80.34 -67 80 C-68.04976964 76.85069107 -68.10131595 74.61185544 -68.0625 71.3125 C-68.05347656 70.31863281 -68.04445313 69.32476562 -68.03515625 68.30078125 C-68.01775391 67.16189453 -68.01775391 67.16189453 -68 66 C-68.66 66 -69.32 66 -70 66 C-68.85151182 52.5354873 -66.6590095 40.39592556 -61 28 C-60.67 27.01 -60.34 26.02 -60 25 C-58.75 23.625 -58.75 23.625 -57 22 C-54.28577583 19.35720279 -51.73235988 16.71090082 -49.375 13.75 C-47 11 -47 11 -44 10 C-43.566875 9.525625 -43.13375 9.05125 -42.6875 8.5625 C-40.34085324 6.38967892 -38.0661942 5.90850199 -35 5 C-33.47820012 4.48199757 -31.95741778 3.96099913 -30.4375 3.4375 C-24.06855685 1.24640191 -17.99943164 0.74488721 -11.3125 0.4375 C-10.0121582 0.37272461 -10.0121582 0.37272461 -8.68554688 0.30664062 C-2.43105159 0 -2.43105159 0 0 0 Z M-43 53 C-43 57.62 -43 62.24 -43 67 C-42.67 67 -42.34 67 -42 67 C-42 62.38 -42 57.76 -42 53 C-42.33 53 -42.66 53 -43 53 Z " fill="#0B1324" transform="translate(631,66)"/>
<path d="M0 0 C4.60816536 0.68686781 4.60816536 0.68686781 6.63671875 3.2734375 C7.25546875 4.3459375 7.87421875 5.4184375 8.51171875 6.5234375 C9.27613281 7.13058594 10.04054688 7.73773438 10.828125 8.36328125 C24.46997545 19.34427586 34.02629566 39.52097223 36.51171875 56.5234375 C36.74903884 60.89659951 36.7426381 65.26942838 36.76171875 69.6484375 C36.78234375 70.80859375 36.80296875 71.96875 36.82421875 73.1640625 C36.9016122 90.46149754 30.64517002 105.0842469 21.51171875 119.5234375 C20.73441406 121.08964844 20.73441406 121.08964844 19.94140625 122.6875 C17.87843442 126.14364761 16.15212103 128.75634082 12.51171875 130.5234375 C4.53825836 132.22766735 -4.39292152 132.52960905 -12.48828125 131.5234375 C-13.47828125 130.8634375 -14.46828125 130.2034375 -15.48828125 129.5234375 C-15.86859798 127.33634377 -15.86859798 127.33634377 -15.8759613 124.56436157 C-15.88586594 123.51562363 -15.89577057 122.46688568 -15.90597534 121.3863678 C-15.90147369 120.23100021 -15.89697205 119.07563263 -15.89233398 117.88525391 C-15.89919724 116.6721907 -15.90606049 115.4591275 -15.91313171 114.20930481 C-15.92833022 110.87642829 -15.92988442 107.54410949 -15.92418933 104.21123934 C-15.92110447 101.43041432 -15.92718224 98.64964024 -15.93322808 95.86882246 C-15.94729045 89.30801325 -15.94569866 82.7473342 -15.93432617 76.18652344 C-15.92285045 69.41654402 -15.93690714 62.64696099 -15.96372265 55.87703383 C-15.9858743 50.06718421 -15.99251806 44.25745906 -15.98664623 38.4475702 C-15.98327322 34.97652285 -15.98571375 31.50572945 -16.00289726 28.03471756 C-16.02122588 24.16312359 -16.0071847 20.29201731 -15.98999023 16.42041016 C-15.9996582 15.26909103 -16.00932617 14.11777191 -16.01928711 12.93156433 C-16.00945297 11.87718674 -15.99961884 10.82280914 -15.98948669 9.73648071 C-15.98927741 8.82097254 -15.98906813 7.90546436 -15.9888525 6.96221352 C-14.33244608 -1.10777502 -6.65174558 -0.28277638 0 0 Z " fill="#FC5801" transform="translate(59.48828125,4.4765625)"/>
<path d="M0 0 C20.42340627 1.37662799 39.99592356 5.99592356 55 21 C55 21.66 55 22.32 55 23 C55.66 23 56.32 23 57 23 C65.84343783 32.14411471 71.88371385 43.03532826 76 55 C76.45052734 56.26457031 76.45052734 56.26457031 76.91015625 57.5546875 C81.51520903 72.67639571 79.92237879 89.20047956 75 104 C74.649375 105.05445312 74.29875 106.10890625 73.9375 107.1953125 C72.79282824 110.23982141 71.41850437 113.07348281 70 116 C69.5678418 117.11632812 69.13568359 118.23265625 68.69042969 119.3828125 C66.65930457 123.46599019 64.93950737 126.56938193 61 129 C52.44118139 131.2389158 43.17991094 130.21356007 34.4375 129.8125 C31.97345917 129.74724348 29.50925313 129.68793615 27.04492188 129.63476562 C21.02632727 129.49197587 15.01393026 129.27492773 9 129 C9 126 9 126 11.125 123.7578125 C12.07375 122.88898438 13.0225 122.02015625 14 121.125 C27.95081211 107.70877061 34.89135751 89.80007557 35.34350586 70.66333008 C35.56307902 49.04473511 29.29740489 30.94990084 14 15 C9.21295487 10.71309391 4.14716399 6.83937641 -1 3 C-0.67 2.01 -0.34 1.02 0 0 Z " fill="#2567FB" transform="translate(137,6)"/>
<path d="M0 0 C13.515 -0.918 13.515 -0.918 16.93359375 1.1953125 C18.125 2.75 18.125 2.75 20 6 C20.76441406 6.60714844 21.52882813 7.21429688 22.31640625 7.83984375 C35.9582567 18.82083836 45.51457691 38.99753473 48 56 C48.23732009 60.37316201 48.23091935 64.74599088 48.25 69.125 C48.270625 70.28515625 48.29125 71.4453125 48.3125 72.640625 C48.38936381 89.81968613 42.24669571 104.71816026 33 119 C32.34257813 120.05574219 31.68515625 121.11148438 31.0078125 122.19921875 C25.80293458 129.64429137 25.80293458 129.64429137 20.53515625 130.68359375 C17.28117342 130.68712685 14.21396819 130.49178184 11 130 C11.56688972 126.39395153 12.79005586 125.00157799 15.5 122.625 C24.16069803 114.25972973 30.10821477 103.30907003 34 92 C34.47759766 90.67548828 34.47759766 90.67548828 34.96484375 89.32421875 C40.71323559 70.59558728 37.18648049 49.96611058 28.48193359 32.80541992 C22.43402625 21.79027007 13.02393023 13.37267332 3 6 C1.66666667 5 0.33333333 4 -1 3 C-0.67 2.01 -0.34 1.02 0 0 Z " fill="#E9E9EB" transform="translate(48,5)"/>
<path d="M0 0 C7.35631534 0.02242779 13.43292753 0.05345676 19.109375 5.0859375 C19.73328125 5.71757812 20.3571875 6.34921875 21 7 C22.09054688 8.07121094 22.09054688 8.07121094 23.203125 9.1640625 C39.26844066 25.93974926 47.59977767 48.04343823 47.41967773 71.1628418 C46.80021559 89.84828995 39.73165222 107.55918273 28 122 C27.30261719 122.92425781 26.60523438 123.84851563 25.88671875 124.80078125 C24.95279297 125.88939453 24.95279297 125.88939453 24 127 C23.34 127 22.68 127 22 127 C21.67 127.66 21.34 128.32 21 129 C17.04 129 13.08 129 9 129 C9 126 9 126 11.125 123.7578125 C12.07375 122.88898438 13.0225 122.02015625 14 121.125 C27.95081211 107.70877061 34.89135751 89.80007557 35.34350586 70.66333008 C35.56307902 49.04473511 29.29740489 30.94990084 14 15 C9.21295487 10.71309391 4.14716399 6.83937641 -1 3 C-0.67 2.01 -0.34 1.02 0 0 Z " fill="#E7E9ED" transform="translate(137,6)"/>
<path d="M0 0 C27.75450687 0.10708689 55.50898579 0.21982051 83.26344204 0.33933926 C96.14933284 0.39469693 109.03522641 0.44818304 121.92114258 0.49731445 C133.14807653 0.54012519 144.37498988 0.58639521 155.60189205 0.63687855 C161.55043429 0.66350462 167.49897238 0.68835823 173.44753838 0.70907402 C179.03951196 0.72860252 184.63144624 0.75273472 190.22338486 0.78049088 C192.28219327 0.78988145 194.34101032 0.79754945 196.39983177 0.80341911 C199.19774536 0.81164636 201.99556268 0.82591319 204.79344177 0.84178162 C205.61930092 0.84275972 206.44516006 0.84373783 207.29604524 0.84474558 C212.88587879 0.88587879 212.88587879 0.88587879 214 2 C214.78038115 10.70425132 213.26850858 18.62812311 211 27 C210.34 27 209.68 27 209 27 C208.87882813 27.56589844 208.75765625 28.13179687 208.6328125 28.71484375 C208.38144531 29.81505859 208.38144531 29.81505859 208.125 30.9375 C207.88136719 32.03384766 207.88136719 32.03384766 207.6328125 33.15234375 C207 35 207 35 205 36 C202.77685235 38.15962914 200.6004794 40.32566485 198.5390625 42.640625 C191.6018849 50.15308074 182.83068364 54.96885434 172.9609375 57.4921875 C170.94118508 57.94244727 170.94118508 57.94244727 169 59 C167.26376457 59.08138172 165.5243017 59.09724543 163.78622437 59.08229065 C162.1287191 59.07173141 162.1287191 59.07173141 160.43772888 59.06095886 C159.21997269 59.04801285 158.00221649 59.03506683 156.74755859 59.02172852 C155.4695488 59.01212097 154.191539 59.00251343 152.87480164 58.99261475 C149.36465232 58.9661117 145.85458592 58.93333675 142.34450102 58.89946485 C138.67831533 58.8651436 135.01208518 58.83654997 131.34585571 58.80735779 C124.40081233 58.75118323 117.45582463 58.68983181 110.51084197 58.62663645 C102.60529554 58.55495138 94.69970448 58.48901315 86.79410434 58.42356598 C70.52934448 58.28878763 54.2646562 58.14676521 38 58 C38 57.34 38 56.68 38 56 C38.66830935 55.99853344 39.33661871 55.99706688 40.02517986 55.99555588 C56.33640072 55.95839726 72.64738198 55.89926346 88.95843029 55.81609726 C96.8465576 55.77639964 104.7345865 55.7439603 112.62280273 55.72900391 C119.50348162 55.715939 126.3839431 55.68885211 133.26449949 55.64538693 C136.9029459 55.62287998 140.54112525 55.60708277 144.17964745 55.60811615 C148.25572905 55.60900971 152.33103149 55.57857787 156.40698242 55.54589844 C157.59454132 55.5509288 158.78210022 55.55595917 160.00564575 55.56114197 C172.916702 55.40197237 185.97639615 51.91270401 195.41308594 42.60644531 C197.69812542 40.18966711 199.86209899 37.70633672 202.00390625 35.16015625 C202.66261719 34.44730469 203.32132813 33.73445313 204 33 C204.66 33 205.32 33 206 33 C206.185625 31.70642578 206.185625 31.70642578 206.375 30.38671875 C207.18468315 25.99924817 208.62043622 21.92188677 210.0625 17.70703125 C211.27483608 12.91325235 211.55232774 7.92439483 212 3 C142.37 3 72.74 3 1 3 C1.33535628 15.83217969 1.33535628 15.83217969 4 23 C4.66 23.33 5.32 23.66 6 24 C5.80535156 24.56203125 5.61070313 25.1240625 5.41015625 25.703125 C4.90604364 28.52615562 5.45454461 30.07636135 6.4375 32.75 C6.72496094 33.54921875 7.01242188 34.3484375 7.30859375 35.171875 C7.53675781 35.77515625 7.76492187 36.3784375 8 37 C0.5409815 30.65004839 -0.68253625 18.62069766 -1.93359375 9.41015625 C-2.00420347 5.78413925 -1.21825436 3.38107794 0 0 Z " fill="#060810" transform="translate(17,147)"/>
<path d="M0 0 C6.00073223 4.31660302 11.54006063 9.02033308 17 14 C13.40142046 14 11.90548882 13.04169485 9 11 C9 10.34 9 9.68 9 9 C7.68 8.67 6.36 8.34 5 8 C5 7.34 5 6.68 5 6 C4.01 6 3.02 6 2 6 C2 45.6 2 85.2 2 126 C10.44650471 126.06543781 10.44650471 126.06543781 12.875 122.9375 C13.24625 122.298125 13.6175 121.65875 14 121 C14.99 121 15.98 121 17 121 C17.2475 120.46375 17.495 119.9275 17.75 119.375 C19.30652537 116.4176018 21.03435673 113.70275949 23 111 C23.66 111 24.32 111 25 111 C25.66 109.02 26.32 107.04 27 105 C27.66 105 28.32 105 29 105 C29 104.01 29 103.02 29 102 C29.66 102 30.32 102 31 102 C31 101.01 31 100.02 31 99 C31.66 99 32.32 99 33 99 C30.1587452 108.95934577 23.10719917 117.52956901 15.53125 124.4140625 C13.75010514 126.03059207 13.75010514 126.03059207 13 129 C9.3091987 130.62395257 4.93338994 130.18730428 1 130 C0.01 129.34 -0.98 128.68 -2 128 C-2.37473011 125.81011295 -2.37473011 125.81011295 -2.3742218 123.03419495 C-2.38123611 121.98401184 -2.38825043 120.93382874 -2.39547729 119.8518219 C-2.38783356 118.69488327 -2.38018982 117.53794464 -2.37231445 116.34594727 C-2.37596512 115.13127777 -2.37961578 113.91660828 -2.38337708 112.66513062 C-2.39010828 109.32817421 -2.38334794 105.9917725 -2.37004495 102.65487027 C-2.35874664 99.16622947 -2.36283676 95.67760342 -2.36479187 92.18894958 C-2.36567548 86.32863575 -2.35458154 80.46843744 -2.33618164 74.6081543 C-2.31502279 67.83030431 -2.31150162 61.05262375 -2.3177436 54.27474743 C-2.32343673 47.75964402 -2.31779157 41.24460034 -2.30657005 34.72950554 C-2.30192237 31.95484247 -2.30105096 29.18021591 -2.3031559 26.40555 C-2.30538778 22.53145149 -2.29093553 18.65751437 -2.2746582 14.78344727 C-2.27713562 13.62853287 -2.27961304 12.47361847 -2.28216553 11.28370667 C-2.27508072 10.23070374 -2.26799591 9.17770081 -2.26069641 8.0927887 C-2.25864354 7.17635873 -2.25659067 6.25992876 -2.25447559 5.31572819 C-2 3 -2 3 0 0 Z " fill="#E36A2F" transform="translate(46,6)"/>
<path d="M0 0 C6.6 0.33 13.2 0.66 20 1 C20 1.33 20 1.66 20 2 C15.71 2 11.42 2 7 2 C6.67 2.66 6.34 3.32 6 4 C6 3.34 6 2.68 6 2 C5.34 2 4.68 2 4 2 C4 51.83 4 101.66 4 153 C11.8898086 153.05262614 11.8898086 153.05262614 19.625 152.5 C20.46289062 152.4071875 21.30078125 152.314375 22.1640625 152.21875 C22.76992188 152.1465625 23.37578125 152.074375 24 152 C23.91975586 150.62618164 23.91975586 150.62618164 23.83789062 149.22460938 C22.52910853 121.26170596 22.52910853 121.26170596 28.5234375 113.28125 C32.92465228 108.56421668 37.81090453 104.06303182 44 102 C45.98 104.97 47.96 107.94 50 111 C49.67 111.66 49.34 112.32 49 113 C47.68 111.02 46.36 109.04 45 107 C39.86771231 109.25319948 36.05263967 112.21568579 32 116 C30.97592041 116.78370972 30.97592041 116.78370972 29.93115234 117.58325195 C27.22855948 120.96542222 27.39727844 124.11311542 27.390625 128.265625 C27.36582062 129.45572174 27.36582062 129.45572174 27.34051514 130.66986084 C27.29204384 133.19665269 27.27066713 135.72284281 27.25 138.25 C27.22183943 139.96617609 27.19191188 141.68232416 27.16015625 143.3984375 C27.08296558 147.5992348 27.04244309 151.79813369 27 156 C18.75 156 10.5 156 2 156 C1.98969254 154.08986618 1.97938507 152.17973236 1.96876526 150.2117157 C1.87117168 132.24420184 1.76850994 114.27672332 1.66066074 96.309268 C1.60534016 87.07118183 1.55186006 77.8330918 1.50268555 68.5949707 C1.45982946 60.54472567 1.41354784 52.49450893 1.36312145 44.44430763 C1.33653202 40.18026959 1.3116792 35.91623713 1.29092598 31.65216637 C1.27134955 27.64099158 1.24720271 23.6298706 1.21950912 19.6187439 C1.21014403 18.14452402 1.2024668 16.67029233 1.19658089 15.19605446 C1.18831064 13.18709104 1.17344497 11.17815797 1.15821838 9.16923523 C1.15176583 8.043726 1.14531328 6.91821676 1.1386652 5.75860119 C1.11911525 2.91034216 1.11911525 2.91034216 0 0 Z " fill="#07090F" transform="translate(688,27)"/>
<path d="M0 0 C14.51277842 0.85369285 29.6530047 8.94863314 40 19 C40 19.66 40 20.32 40 21 C40.66 21 41.32 21 42 21 C50.84343783 30.14411471 56.88371385 41.03532826 61 53 C61.30035156 53.84304687 61.60070312 54.68609375 61.91015625 55.5546875 C64.93193459 65.47736429 64.28112206 75.74120723 64 86 C63.01 85.505 63.01 85.505 62 85 C61.65283203 82.8137207 61.65283203 82.8137207 61.5078125 79.92578125 C61.44513184 78.87237549 61.38245117 77.81896973 61.31787109 76.73364258 C61.25422363 75.60466553 61.19057617 74.47568848 61.125 73.3125 C59.6690131 52.6004299 53.85603361 36.91188336 39 22 C38.3296875 21.28585938 37.659375 20.57171875 36.96875 19.8359375 C35.06854908 18.06392474 33.64966989 17.17294996 31.25 16.25 C30.1775 15.8375 29.105 15.425 28 15 C27.38125 15.495 26.7625 15.99 26.125 16.5 C24 18 24 18 22 18 C22.66 21.63 23.32 25.26 24 29 C24.66 29 25.32 29 26 29 C33.46691574 42.84730205 33.75512781 60.67929581 33 76 C32.67 76 32.34 76 32 76 C31.97421875 74.90945312 31.9484375 73.81890625 31.921875 72.6953125 C30.93406014 43.09401475 21.24255211 20.90749608 0 0 Z " fill="#2667F2" transform="translate(152,8)"/>
<path d="M0 0 C0.495 0.99 0.495 0.99 1 2 C-0.05058594 2.02578125 -1.10117187 2.0515625 -2.18359375 2.078125 C-11.79320995 2.42488143 -18.85637332 3.57091555 -27 9 C-27.99 10.485 -27.99 10.485 -29 12 C-29.495 12.433125 -29.99 12.86625 -30.5 13.3125 C-32.56003113 15.63003502 -33.09886612 18.05629601 -34 21 C-34.5259375 22.0209375 -34.5259375 22.0209375 -35.0625 23.0625 C-37.45876516 28.01478133 -37.09152355 33.26171974 -37 38.625 C-36.8653537 46.59606109 -36.8653537 46.59606109 -38 50 C-37.34 50.33 -36.68 50.66 -36 51 C-35.64587656 52.32796291 -35.31478446 53.66216607 -35 55 C-34.34 55.99 -33.68 56.98 -33 58 C-32.67 58.99 -32.34 59.98 -32 61 C-29.6432487 66.57546257 -25.04858546 69.66438194 -19.6015625 72.05078125 C-10.16175215 75.1924216 -1.19922529 74.8565983 8 71 C8.66 70.34 9.32 69.68 10 69 C11.31747324 68.30251417 12.64914193 67.63040043 14 67 C11.92103909 72.18634397 7.88604178 73.78588226 3 76 C0.0625 76.8125 0.0625 76.8125 -3 77 C-4.09054687 77.0928125 -4.09054687 77.0928125 -5.203125 77.1875 C-14.63101124 77.66185906 -22.15067056 74.93100316 -29.375 68.875 C-33.85846748 64.55573595 -37.05011959 59.942004 -39 54 C-39 52.68 -39 51.36 -39 50 C-39.66 49.67 -40.32 49.34 -41 49 C-40.34 47.35 -39.68 45.7 -39 44 C-39.66 44 -40.32 44 -41 44 C-41.59731224 31.52281093 -39.96585081 20.03107139 -32 10 C-22.4308777 0.44889865 -13.08518957 -0.50256062 0 0 Z " fill="#03060B" transform="translate(627,88)"/>
<path d="M0 0 C14.51277842 0.85369285 29.6530047 8.94863314 40 19 C40 19.66 40 20.32 40 21 C40.66 21 41.32 21 42 21 C50.84343783 30.14411471 56.88371385 41.03532826 61 53 C61.30035156 53.84304687 61.60070312 54.68609375 61.91015625 55.5546875 C64.93193459 65.47736429 64.28112206 75.74120723 64 86 C63.01 85.505 63.01 85.505 62 85 C61.65283203 82.8137207 61.65283203 82.8137207 61.5078125 79.92578125 C61.44513184 78.87237549 61.38245117 77.81896973 61.31787109 76.73364258 C61.25422363 75.60466553 61.19057617 74.47568848 61.125 73.3125 C59.6690131 52.6004299 53.85603361 36.91188336 39 22 C38.31421875 21.27039063 37.6284375 20.54078125 36.921875 19.7890625 C35.0293921 17.77927689 35.0293921 17.77927689 32 17 C31.319375 16.2575 30.63875 15.515 29.9375 14.75 C26.35526288 10.99355074 21.68005873 9.08408865 17 7 C16.154375 6.62230469 15.30875 6.24460937 14.4375 5.85546875 C11.80149328 4.77922762 11.80149328 4.77922762 8 5 C9.98 7.31 11.96 9.62 14 12 C13.67 12.66 13.34 13.32 13 14 C11.96939453 12.86111328 11.96939453 12.86111328 10.91796875 11.69921875 C10.00785258 10.69527617 9.0976941 9.69137193 8.1875 8.6875 C7.73568359 8.18798828 7.28386719 7.68847656 6.81835938 7.17382812 C4.59780179 4.72635224 2.36844075 2.30549215 0 0 Z " fill="#2250AD" transform="translate(152,8)"/>
<path d="M0 0 C0.66 0.33 1.32 0.66 2 1 C1.44570313 1.53109375 0.89140625 2.0621875 0.3203125 2.609375 C-0.40414062 3.31578125 -1.12859375 4.0221875 -1.875 4.75 C-2.59429688 5.44609375 -3.31359375 6.1421875 -4.0546875 6.859375 C-6.06388811 8.86849267 -6.06388811 8.86849267 -7.0703125 11.203125 C-8 13 -8 13 -11 14 C-11 14.66 -11 15.32 -11 16 C-12.19288317 16.83501822 -13.40446579 17.64344589 -14.625 18.4375 C-16.65066101 19.92086425 -16.65066101 19.92086425 -18 22 C-18.02663603 25.87287942 -17.14685062 29.31697116 -16 33 C-15.01 33.33 -14.02 33.66 -13 34 C-12.67 34.99 -12.34 35.98 -12 37 C-10.85342054 39.52247481 -9.98384273 41.01615727 -8 43 C-6.42153842 44.97307697 -5.11010542 46.75776807 -4.0625 49.0625 C-2.76734836 51.4242471 -1.14213674 52.41067274 1 54 C1.33 54.99 1.66 55.98 2 57 C2.66 57.99 3.32 58.98 4 60 C4.33 60.680625 4.66 61.36125 5 62.0625 C5.95925017 64.16194362 5.95925017 64.16194362 8 66 C9.0073108 67.32781878 10.00612666 68.66209359 11 70 C11.70125 70.86625 12.4025 71.7325 13.125 72.625 C15.14428728 75.18276388 15.96786092 76.90358275 17 80 C17.99 80.99 17.99 80.99 19 82 C19 82.66 19 83.32 19 84 C15.17134835 82.72378278 14.69727539 81.3789133 12.5625 78 C9.23169408 72.85460512 5.79807366 67.81054621 2.25 62.8125 C1.74388184 62.09755371 1.23776367 61.38260742 0.71630859 60.64599609 C-1.38469923 57.6800613 -3.48942362 54.71680368 -5.59814453 51.75634766 C-9.08977127 46.85437337 -12.56310722 41.94053337 -16 37 C-16.4021875 36.4239502 -16.804375 35.84790039 -17.21875 35.25439453 C-18.26515166 33.7424713 -19.2897571 32.21552659 -20.3125 30.6875 C-20.86550781 29.86636719 -21.41851563 29.04523438 -21.98828125 28.19921875 C-23 26 -23 26 -22.87011719 24.18774414 C-21.60445468 21.00547655 -19.52497791 19.190264 -17.08984375 16.796875 C-16.60294571 16.3142218 -16.11604767 15.8315686 -15.61439514 15.33428955 C-14.0623455 13.7989915 -12.50017864 12.27447075 -10.9375 10.75 C-9.88147643 9.7090278 -8.82612962 8.6673686 -7.77148438 7.625 C-5.18878585 5.07532367 -2.59691118 2.53520804 0 0 Z " fill="#02050B" transform="translate(770,89)"/>
<path d="M0 0 C0.99 0.33 1.98 0.66 3 1 C2.71848913 2.31471568 2.42446661 3.62675767 2.125 4.9375 C1.96257812 5.66839844 1.80015625 6.39929688 1.6328125 7.15234375 C1 9 1 9 -1 10 C-2.0199702 14.99785397 -3.4258763 22.1541152 -1.05078125 26.89453125 C0.6025907 30.20742151 0.87870388 33.71157524 1.4375 37.34375 C2.32698957 41.54411741 4.11719527 44.38136439 6.875 47.625 C7.36742187 48.21539062 7.85984375 48.80578125 8.3671875 49.4140625 C10.13358774 51.12975269 11.76062754 52.00573687 14 53 C14.598125 53.33 15.19625 53.66 15.8125 54 C23.49119947 57.51026262 30.65053111 57.20844721 39 57 C39 57.66 39 58.32 39 59 C29.91324302 61.59320443 21.3748415 60.08559897 13 56 C4.15845905 50.96735818 -1.30954469 42.71776394 -4 33 C-6.25731926 21.91861452 -5.48973574 10.07247166 0 0 Z M-2 29 C-1 32 -1 32 -1 32 Z M-1 34 C0 36 0 36 0 36 Z M0 37 C1 39 1 39 1 39 Z " fill="#04070D" transform="translate(461,105)"/>
<path d="M0 0 C0.66 0.99 1.32 1.98 2 3 C1.1015625 5.453125 1.1015625 5.453125 -0.375 8.25 C-2.58125669 12.77611467 -3.52111313 15.89309135 -3 21 C-3 25 -3 25 -4.578125 27.73046875 C-7 30 -7 30 -10.234375 30.48828125 C-11.39453125 30.43027344 -12.5546875 30.37226563 -13.75 30.3125 C-15.50570312 30.24482422 -15.50570312 30.24482422 -17.296875 30.17578125 C-18.18890625 30.11777344 -19.0809375 30.05976563 -20 30 C-19.43311028 26.39395153 -18.20994414 25.00157799 -15.5 22.625 C-8.96906413 16.37699276 -3.838735 8.16236284 0 0 Z " fill="#E8E8E7" transform="translate(79,105)"/>
<path d="M0 0 C15.75 0 15.75 0 22 1 C22 1.33 22 1.66 22 2 C15.73 2 9.46 2 3 2 C3 21.14 3 40.28 3 60 C2.01 60.495 2.01 60.495 1 61 C-2.21216459 58.85855694 -3.05868462 57.23552564 -5 54 C-5.99 53.34 -6.98 52.68 -8 52 C-8 51.34 -8 50.68 -8 50 C-8.7425 49.731875 -9.485 49.46375 -10.25 49.1875 C-12.86636554 48.05770579 -14.80187111 46.79106798 -17 45 C-16.34 44.34 -15.68 43.68 -15 43 C-11.15387636 44.56693926 -8.87587769 47.05564903 -6 50 C-4.02 51.65 -2.04 53.3 0 55 C0 36.85 0 18.7 0 0 Z " fill="#080C14" transform="translate(390,27)"/>
<path d="M0 0 C0.66 0 1.32 0 2 0 C1.23039942 6.38237724 -0.2678062 12.37198705 -2.5625 18.375 C-2.99691406 19.51710938 -3.43132812 20.65921875 -3.87890625 21.8359375 C-4.5718131 23.23106299 -5.2816647 24.61779545 -6 26 C-6.50055908 27.10335693 -7.00111816 28.20671387 -7.5168457 29.34350586 C-9.78216844 33.76102843 -12.12165131 38.06362125 -17.07504272 39.67504883 C-23.05730449 40.627672 -29.04551887 40.18447847 -35.0625 39.8125 C-36.90018579 39.74720974 -38.73809468 39.68790815 -40.57617188 39.63476562 C-45.05633534 39.49226433 -49.52569457 39.26854095 -54 39 C-54 38.34 -54 37.68 -54 37 C-52.8855087 35.92033655 -51.76894432 34.84276405 -50.64453125 33.7734375 C-47.01773452 29.86235504 -44.07109099 25.35134728 -41 21 C-40.67 21.66 -40.34 22.32 -40 23 C-40.48210937 23.67546875 -40.96421875 24.3509375 -41.4609375 25.046875 C-42.09257812 25.93890625 -42.72421875 26.8309375 -43.375 27.75 C-44.00148437 28.63171875 -44.62796875 29.5134375 -45.2734375 30.421875 C-46.7190304 32.58045263 -47.87038567 34.67152296 -49 37 C-44.42690645 37.10482955 -39.85964995 37.14319627 -35.28540039 37.12207031 C-33.73254026 37.12400796 -32.17959213 37.14358128 -30.62719727 37.18164062 C-21.48449574 37.62391985 -21.48449574 37.62391985 -13.49365234 33.93994141 C-11.65106447 31.36849253 -10.28840151 28.88483465 -9 26 C-8.66154053 25.35981934 -8.32308105 24.71963867 -7.97436523 24.06005859 C-4.06585328 16.48131822 -1.73512561 8.31033845 0 0 Z " fill="#234FAD" transform="translate(213,96)"/>
<path d="M0 0 C0 0.66 0 1.32 0 2 C1.794375 2.2165625 1.794375 2.2165625 3.625 2.4375 C7.1005158 2.87039343 10.54950034 3.39616256 14 4 C13.67 4.99 13.34 5.98 13 7 C10.04499182 6.42806293 7.21029203 5.77245703 4.3125 4.9375 C-10.6606672 1.64340322 -28.15363043 3.38998908 -41.37890625 11.171875 C-45.96093333 14.36768524 -50.00843017 18.1036737 -54 22 C-54.99 21.67 -55.98 21.34 -57 21 C-56.18595703 20.29423828 -56.18595703 20.29423828 -55.35546875 19.57421875 C-54.64003906 18.95160156 -53.92460938 18.32898438 -53.1875 17.6875 C-52.47980469 17.07261719 -51.77210938 16.45773438 -51.04296875 15.82421875 C-49.29768666 14.26581199 -47.64417695 12.66275523 -46 11 C-42.44600433 7.83022007 -39.56023833 6.31545336 -35 5 C-33.47793799 4.48276831 -31.95717617 3.96170007 -30.4375 3.4375 C-24.06855685 1.24640191 -17.99943164 0.74488721 -11.3125 0.4375 C-10.0121582 0.37272461 -10.0121582 0.37272461 -8.68554688 0.30664062 C-2.43105159 0 -2.43105159 0 0 0 Z " fill="#070910" transform="translate(631,66)"/>
<path d="M0 0 C0.66 0.99 1.32 1.98 2 3 C1.53851562 3.38929687 1.07703125 3.77859375 0.6015625 4.1796875 C-5.22136647 9.1740574 -10.62707922 14.52798847 -16 20 C-16 14.92923479 -11.70514383 11.72154252 -8.3125 8.25 C-7.549375 7.5075 -6.78625 6.765 -6 6 C-5.34 5.34 -4.68 4.68 -4 4 C-8.02007528 3.79551322 -12.03880464 3.67197311 -16.0625 3.5625 C-17.19623047 3.50384766 -18.32996094 3.44519531 -19.49804688 3.38476562 C-25.67853038 3.16395412 -25.67853038 3.16395412 -31.24975586 5.45092773 C-33.02037087 7.20841492 -34.52084288 8.99419192 -36 11 C-36.65871094 11.73089844 -37.31742188 12.46179688 -37.99609375 13.21484375 C-38.47175781 13.78332031 -38.94742188 14.35179688 -39.4375 14.9375 C-40.283125 15.948125 -41.12875 16.95875 -42 18 C-42.99 17.67 -43.98 17.34 -45 17 C-44.2575 16.278125 -43.515 15.55625 -42.75 14.8125 C-38.26933624 10.2481627 -38.26933624 10.2481627 -35 4.8125 C-33.65481451 2.3743513 -32.59702887 2.00822991 -30 1 C-25.67717632 0.50126377 -21.33818223 0.39258927 -16.99072266 0.25708008 C-14.87420835 0.18747396 -12.75992459 0.09158912 -10.64453125 -0.00585938 C-9.3021394 -0.053684 -7.95969136 -0.09996178 -6.6171875 -0.14453125 C-4.78583252 -0.21184448 -4.78583252 -0.21184448 -2.91748047 -0.28051758 C-1.47332764 -0.14166138 -1.47332764 -0.14166138 0 0 Z " fill="#05080E" transform="translate(789,69)"/>
<path d="M0 0 C3.39351343 1.0283374 5.50281485 2.39004358 8 4.8125 C18.44555158 14.1405144 33.77092206 15.32441202 47.0625 15.125 C48.21427734 15.11597656 49.36605469 15.10695312 50.55273438 15.09765625 C53.36871193 15.07428714 56.18424158 15.04152565 59 15 C59 15.99 59 16.98 59 18 C29.83142464 18.66994961 29.83142464 18.66994961 20 15 C19.67 14.34 19.34 13.68 19 13 C18.13375 12.71125 17.2675 12.4225 16.375 12.125 C9.98820892 9.99606964 5.4754973 7.00202639 1 2 C0.67 1.34 0.34 0.68 0 0 Z " fill="#05080D" transform="translate(447,167)"/>
<path d="M0 0 C2.62187494 1.04874998 3.79371361 1.64931313 5.25 4.125 C5.4975 4.74375 5.745 5.3625 6 6 C6.804375 5.979375 7.60875 5.95875 8.4375 5.9375 C11 6 11 6 12 7 C13.4887186 7.08669432 14.981445 7.10703494 16.47265625 7.09765625 C17.82133789 7.09282227 17.82133789 7.09282227 19.19726562 7.08789062 C20.61555664 7.07532227 20.61555664 7.07532227 22.0625 7.0625 C23.01189453 7.05798828 23.96128906 7.05347656 24.93945312 7.04882812 C27.29303065 7.0370011 29.64648477 7.02052025 32 7 C31.484375 6.401875 30.96875 5.80375 30.4375 5.1875 C29.963125 4.465625 29.48875 3.74375 29 3 C29.33 2.01 29.66 1.02 30 0 C33.03368793 3.03368793 35 5.63755776 35 10 C28.19175894 10.94267953 21.78901489 10.97730988 14.9375 10.5625 C13.97650391 10.51029297 13.01550781 10.45808594 12.02539062 10.40429688 C9.68314207 10.27611412 7.34149125 10.14123891 5 10 C4.67 9.34 4.34 8.68 4 8 C3.34 7.67 2.68 7.34 2 7 C2 6.01 2 5.02 2 4 C1.34 3.34 0.68 2.68 0 2 C0 1.34 0 0.68 0 0 Z " fill="#060C11" transform="translate(760,173)"/>
<path d="M0 0 C7.11262225 -0.02564312 14.22523231 -0.04298803 21.33789062 -0.05493164 C23.75065557 -0.05991802 26.16341757 -0.06670953 28.57617188 -0.07543945 C41.75653611 -0.12188767 54.85908921 -0.11561905 68 1 C68 1.33 68 1.66 68 2 C45.89 2.33 23.78 2.66 1 3 C0.67 2.01 0.34 1.02 0 0 Z " fill="#0A0D16" transform="translate(64,6)"/>
<path d="M0 0 C2 1 2 1 2.859375 3.5546875 C3.15328125 4.65039062 3.4471875 5.74609375 3.75 6.875 C5.91923345 14.23258657 8.66650709 21.67245975 14.1875 27.18359375 C16 29 16 29 16 31 C16.515625 31.226875 17.03125 31.45375 17.5625 31.6875 C19.68931734 32.83270934 21.40250997 34.0416968 23.3125 35.5 C27.53079397 38.57527238 31.74792369 40 37 40 C37.495 41.98 37.495 41.98 38 44 C27.27419052 42.62007129 18.02080901 36.02708641 11 28 C3 16.59540137 3 16.59540137 3 11 C2.34 10.67 1.68 10.34 1 10 C1 8.35 1 6.7 1 5 C0.34 4.67 -0.32 4.34 -1 4 C-0.67 2.68 -0.34 1.36 0 0 Z " fill="#060911" transform="translate(302,139)"/>
<path d="M0 0 C14.51277842 0.85369285 29.6530047 8.94863314 40 19 C40 19.66 40 20.32 40 21 C40.66 21 41.32 21 42 21 C42.66 22.65 43.32 24.3 44 26 C43.32904297 25.40251953 43.32904297 25.40251953 42.64453125 24.79296875 C39.96783089 22.4472889 37.44065418 20.26229415 34.375 18.4375 C32 17 32 17 29.8125 14.625 C25.99735691 11.06419979 21.73729825 9.10957812 17 7 C16.154375 6.62230469 15.30875 6.24460937 14.4375 5.85546875 C11.80149328 4.77922762 11.80149328 4.77922762 8 5 C9.98 7.31 11.96 9.62 14 12 C13.67 12.66 13.34 13.32 13 14 C11.96939453 12.86111328 11.96939453 12.86111328 10.91796875 11.69921875 C10.00785258 10.69527617 9.0976941 9.69137193 8.1875 8.6875 C7.73568359 8.18798828 7.28386719 7.68847656 6.81835938 7.17382812 C4.59780179 4.72635224 2.36844075 2.30549215 0 0 Z " fill="#204BB5" transform="translate(152,8)"/>
<path d="M0 0 C4.61579915 4.61579915 4.27284527 13.35100969 4.37939453 19.5859375 C4.37794434 20.44445312 4.37649414 21.30296875 4.375 22.1875 C4.37483887 23.09371094 4.37467773 23.99992187 4.37451172 24.93359375 C4.20659106 34.94520041 1.82926429 43.75456911 -2 53 C-3.1135331 49.70736969 -2.88565005 48.03913574 -1.58081055 44.85180664 C0.18888165 39.91745728 0.39019884 35.57361477 0.29296875 30.37109375 C0.28872391 29.49598648 0.28447906 28.62087921 0.28010559 27.71925354 C0.26347981 24.95833928 0.22585966 22.19818895 0.1875 19.4375 C0.17243228 17.55144293 0.15874756 15.66537427 0.14648438 13.77929688 C0.11362937 9.18590917 0.06196135 4.59308353 0 0 Z " fill="#DC6425" transform="translate(82,52)"/>
<path d="M0 0 C3.10050906 1.40806116 5.4648492 3.12270465 8.0625 5.3125 C19.49929718 14.31194696 31.6497344 16.14895134 45.75610352 16.57128906 C52.73152695 16.83267028 52.73152695 16.83267028 56 19 C52.5125278 20.7437361 48.57449007 19.94293717 44.75 19.75 C43.40639404 19.68329102 43.40639404 19.68329102 42.03564453 19.61523438 C25.7966317 18.65128797 12.65255556 14.40290346 1.14453125 2.3828125 C0 1 0 1 0 0 Z " fill="#05070C" transform="translate(576,166)"/>
<path d="M0 0 C2.80634432 2.80634432 3.18428557 6.06255777 4.0625 9.8125 C4.23587891 10.52470703 4.40925781 11.23691406 4.58789062 11.97070312 C5.07241835 13.97750185 5.53732637 15.98807474 6 18 C6.20109375 18.81339844 6.4021875 19.62679687 6.609375 20.46484375 C7.18888259 24.22584799 7.19063873 27.94977817 7.1875 31.75 C7.18814453 32.54970215 7.18878906 33.3494043 7.18945312 34.17333984 C7.13982839 39.7098808 6.58007497 44.66724697 5 50 C3.23369601 46.99753567 2.81355239 45.29748561 3.3984375 41.875 C4.09628679 36.84389777 3.93624761 32.05777374 3.625 27 C3.58117187 26.16210938 3.53734375 25.32421875 3.4921875 24.4609375 C3.18484382 18.94582595 2.65241887 13.48474171 2 8 C1.34 8 0.68 8 0 8 C-0.38063221 5.6739143 -0.71269945 3.33944736 -1 1 C-0.67 0.67 -0.34 0.34 0 0 Z " fill="#DDECFD" transform="translate(177,43)"/>
<path d="M0 0 C1.65 0.33 3.3 0.66 5 1 C5 2.65 5 4.3 5 6 C3.02 6.99 3.02 6.99 1 8 C1.99 8.66 2.98 9.32 4 10 C4.99 9.34 5.98 8.68 7 8 C8.28446919 10.56893838 8.32977144 12.76576337 8.5625 15.625 C8.68818359 17.12933594 8.68818359 17.12933594 8.81640625 18.6640625 C8.87699219 19.43492188 8.93757813 20.20578125 9 21 C8.34 21.33 7.68 21.66 7 22 C6.525625 21.21625 6.05125 20.4325 5.5625 19.625 C2.81515973 15.46927591 -0.60240621 11.91832817 -3.9765625 8.26953125 C-6 6 -6 6 -8 3 C-4.7 3.33 -1.4 3.66 2 4 C2 3.01 2 2.02 2 1 C1.34 0.67 0.68 0.34 0 0 Z " fill="#EFE9E7" transform="translate(68,14)"/>
<path d="M0 0 C0.66 0 1.32 0 2 0 C6.62338018 16.02771795 7.76616685 36.57940971 0 52 C-1.485 52.495 -1.485 52.495 -3 53 C-2.80664062 52.31035156 -2.61328125 51.62070313 -2.4140625 50.91015625 C-2.15367188 49.97042969 -1.89328125 49.03070313 -1.625 48.0625 C-1.36976562 47.14597656 -1.11453125 46.22945312 -0.8515625 45.28515625 C-0.57054688 44.20105469 -0.28953125 43.11695313 0 42 C0.17789063 41.33186279 0.35578125 40.66372559 0.5390625 39.9753418 C1.97799193 34.16116758 2.31140969 28.66343081 2.25 22.6875 C2.24613281 21.77266846 2.24226563 20.85783691 2.23828125 19.9152832 C2.15153323 13.10737059 1.5416723 6.6484618 0 0 Z " fill="#FCCEB3" transform="translate(83,52)"/>
<path d="M0 0 C0 0.66 0 1.32 0 2 C-0.845625 2.29132813 -1.69125 2.58265625 -2.5625 2.8828125 C-10.85531638 5.87953478 -17.14524759 9.14524759 -23.375 15.375 C-24.179375 16.179375 -24.179375 16.179375 -25 17 C-25.66 17 -26.32 17 -27 17 C-27.27972656 17.57105469 -27.55945313 18.14210938 -27.84765625 18.73046875 C-28.98242749 20.96539108 -30.19613448 23.13527636 -31.4375 25.3125 C-33.57167282 29.12622894 -35.36287562 32.95027128 -37 37 C-37.66 36.67 -38.32 36.34 -39 36 C-37.66666667 32 -36.33333333 28 -35 24 C-34.34 24 -33.68 24 -33 24 C-32.566875 23.13375 -32.566875 23.13375 -32.125 22.25 C-31.75375 21.5075 -31.3825 20.765 -31 20 C-30.71898437 19.35804687 -30.43796875 18.71609375 -30.1484375 18.0546875 C-28.86660338 15.76133802 -27.53411985 14.52125801 -25.5 12.875 C-23.5704306 11.29700469 -21.76541706 9.76541706 -20 8 C-18.66666667 7.33333333 -17.33333333 6.66666667 -16 6 C-15.34 5.34 -14.68 4.68 -14 4 C-13.01 4 -12.02 4 -11 4 C-10.67 3.34 -10.34 2.68 -10 2 C-6.54956883 0.84985628 -3.64717645 0 0 0 Z " fill="#06090F" transform="translate(475,69)"/>
<path d="M0 0 C6.29169414 3.85689469 11.78405585 8.86020497 15.28125 15.3984375 C15.28125 16.3884375 15.28125 17.3784375 15.28125 18.3984375 C14.62125 18.3984375 13.96125 18.3984375 13.28125 18.3984375 C12.37139236 16.88896876 11.52903901 15.33861114 10.71875 13.7734375 C6.98677698 7.33144984 2.30774807 4.0577398 -4.49609375 1.25390625 C-8.30406969 0.24306173 -11.87529476 0.14164418 -15.78125 0.2109375 C-16.82249023 0.2119043 -16.82249023 0.2119043 -17.88476562 0.21289062 C-21.61370089 0.24476187 -25.09337288 0.51506101 -28.71875 1.3984375 C-28.71875 0.7384375 -28.71875 0.0784375 -28.71875 -0.6015625 C-19.64102724 -4.08228442 -8.87857043 -4.1729281 0 0 Z " fill="#05080E" transform="translate(373.71875,90.6015625)"/>
<path d="M0 0 C1 2 2 4 3 6 C2.67 6.66 2.34 7.32 2 8 C2.66 8.33 3.32 8.66 4 9 C8.78213098 19.74882652 7.28357267 32.55820637 7 44 C6.01 44 5.02 44 4 44 C4.04640625 42.741875 4.0928125 41.48375 4.140625 40.1875 C4.43146482 28.70158176 3.38029859 18.99213885 0 8 C-0.67449276 5.66884837 -1.33647141 3.33430553 -2 1 C-1.34 0.67 -0.68 0.34 0 0 Z " fill="#04060B" transform="translate(542,95)"/>
<path d="M0 0 C0.66 0 1.32 0 2 0 C3.47265625 1.79296875 3.47265625 1.79296875 5.0625 4.1875 C5.58972656 4.96480469 6.11695313 5.74210937 6.66015625 6.54296875 C8.03809267 9.06985506 8.59232823 11.16642955 9 14 C9.66 14 10.32 14 11 14 C18.46691574 27.84730205 18.75512781 45.67929581 18 61 C17.67 61 17.34 61 17 61 C16.97421875 59.90945312 16.9484375 58.81890625 16.921875 57.6953125 C16.31408278 39.48194171 13.31914055 20.23910739 2.27734375 5.16796875 C0 2 0 2 0 0 Z " fill="#3765C9" transform="translate(167,23)"/>
<path d="M0 0 C0 4.29 0 8.58 0 13 C6.27 13 12.54 13 19 13 C19.33 13.99 19.66 14.98 20 16 C12.74 16 5.48 16 -2 16 C-2.33 11.05 -2.66 6.1 -3 1 C-1 0 -1 0 0 0 Z " fill="#070C13" transform="translate(393,167)"/>
<path d="M0 0 C0.495 0.99 0.495 0.99 1 2 C0.3709375 2.17015625 -0.258125 2.3403125 -0.90625 2.515625 C-14.38908967 6.33305551 -24.32285976 12.9724803 -32 25 C-32.66 24.67 -33.32 24.34 -34 24 C-34 23.34 -34 22.68 -34 22 C-33.34 22 -32.68 22 -32 22 C-30.79371992 19.66785852 -29.8345262 17.50357861 -29 15 C-27.02916714 13.24814857 -25.07838937 11.60957973 -23 10 C-22.2575 9.401875 -21.515 8.80375 -20.75 8.1875 C-19 7 -19 7 -17 7 C-16.67 6.34 -16.34 5.68 -16 5 C-13.5625 3.3125 -13.5625 3.3125 -11 2 C-10.34 2.33 -9.68 2.66 -9 3 C-8.67 2.34 -8.34 1.68 -8 1 C-5.29120665 -0.35439668 -2.99066732 -0.06501451 0 0 Z " fill="#04070E" transform="translate(343,68)"/>
<path d="M0 0 C0.66 0 1.32 0 2 0 C0.42550504 6.08804716 -1.98883242 10.94731704 -5.375 16.1875 C-5.75003662 16.76902832 -6.12507324 17.35055664 -6.51147461 17.94970703 C-9.10017456 21.86194029 -11.84527049 25.52346697 -15 29 C-15.66 29 -16.32 29 -17 29 C-16.505 24.545 -16.505 24.545 -16 20 C-15.030625 19.71125 -14.06125 19.4225 -13.0625 19.125 C-9.89335797 18.35785318 -9.89335797 18.35785318 -9 16 C-8.34 16 -7.68 16 -7 16 C-6.81824219 15.36191406 -6.63648438 14.72382812 -6.44921875 14.06640625 C-6.19785156 13.24011719 -5.94648438 12.41382812 -5.6875 11.5625 C-5.44386719 10.73878906 -5.20023438 9.91507813 -4.94921875 9.06640625 C-4.63597656 8.38449219 -4.32273438 7.70257813 -4 7 C-3.01 6.67 -2.02 6.34 -1 6 C-0.67 4.02 -0.34 2.04 0 0 Z " fill="#D1E5FD" transform="translate(176,104)"/>
<path d="M0 0 C7.23592795 0.67836825 13.50633774 5.74270911 18.390625 10.83984375 C22.49312354 16.34635271 25.41839205 23.07751339 25 30 C24.34 30 23.68 30 23 30 C22.67 30.99 22.34 31.98 22 33 C22.04125 31.7625 22.0825 30.525 22.125 29.25 C22.125 25.89054513 21.74771859 23.91286432 20 21 C19.31039038 19.00779443 18.63920943 17.00894394 18 15 C17.34 15 16.68 15 16 15 C15.95875 14.443125 15.9175 13.88625 15.875 13.3125 C14.51022892 9.705605 12.08919824 8.26961504 9 6 C8.34 6 7.68 6 7 6 C7 5.34 7 4.68 7 4 C4.36 3.34 1.72 2.68 -1 2 C-0.67 1.34 -0.34 0.68 0 0 Z " fill="#04070C" transform="translate(499,89)"/>
<path d="M0 0 C2.8125 -0.1875 2.8125 -0.1875 6 0 C7.625 1.4375 7.625 1.4375 9 3 C9.61875 3.12375 10.2375 3.2475 10.875 3.375 C14.07706927 4.31678508 15.69661887 6.64043885 18 9 C18.86625 9.495 19.7325 9.99 20.625 10.5 C23.48790234 12.30814884 24.33346587 14.08356528 26 17 C26.86625 17.86625 27.7325 18.7325 28.625 19.625 C31 22 31 22 32 25 C29.52090162 24.62469939 28.30213742 24.34128762 26.61328125 22.43359375 C26.18402344 21.77488281 25.75476563 21.11617187 25.3125 20.4375 C18.5814595 11.07767005 10.58231458 6.31797689 0 2 C0 1.34 0 0.68 0 0 Z " fill="#05070D" transform="translate(510,70)"/>
<path d="M0 0 C20.79 0 41.58 0 63 0 C63 0.33 63 0.66 63 1 C61.95763435 1.01213028 61.95763435 1.01213028 60.89421082 1.02450562 C54.34630457 1.10243657 47.79859775 1.18972253 41.25095654 1.28752708 C37.88471284 1.33747962 34.51850037 1.38380947 31.15209961 1.421875 C27.2822002 1.46742835 23.41265975 1.52543941 19.54296875 1.5859375 C18.33352097 1.59748871 17.12407318 1.60903992 15.87797546 1.62094116 C14.75703995 1.64081085 13.63610443 1.66068054 12.48120117 1.68115234 C11.49302902 1.69447601 10.50485687 1.70779968 9.48674011 1.7215271 C6.74981189 1.83553926 6.74981189 1.83553926 4 4 C1.8125 3.625 1.8125 3.625 0 3 C0 2.01 0 1.02 0 0 Z " fill="#171D2C" transform="translate(67,8)"/>
<path d="M0 0 C0.33 0.66 0.66 1.32 1 2 C0.51789063 2.67546875 0.03578125 3.3509375 -0.4609375 4.046875 C-1.09257812 4.93890625 -1.72421875 5.8309375 -2.375 6.75 C-3.00148437 7.63171875 -3.62796875 8.5134375 -4.2734375 9.421875 C-6.18347385 12.15675894 -6.18347385 12.15675894 -8 16 C3.22 16.33 14.44 16.66 26 17 C26 17.33 26 17.66 26 18 C13.13 18 0.26 18 -13 18 C-13 17.34 -13 16.68 -13 16 C-11.8855087 14.92033655 -10.76894432 13.84276405 -9.64453125 12.7734375 C-6.01773452 8.86235504 -3.07109099 4.35134728 0 0 Z " fill="#3E62AB" transform="translate(172,117)"/>
<path d="M0 0 C0.66 0.99 1.32 1.98 2 3 C1.20703125 5.5234375 1.20703125 5.5234375 -0.1875 8.375 C-0.63480469 9.31085938 -1.08210938 10.24671875 -1.54296875 11.2109375 C-5.79463664 19.34951894 -5.79463664 19.34951894 -11 21 C-12.3405263 21.65208241 -13.67521162 22.31651045 -15 23 C-14.64808594 22.55011719 -14.29617187 22.10023437 -13.93359375 21.63671875 C-8.72377723 14.84899436 -3.69091488 7.74368416 0 0 Z " fill="#F8DBCE" transform="translate(79,105)"/>
<path d="M0 0 C0.66 0 1.32 0 2 0 C-1.03877443 10.65170405 -8.8958361 19.69079495 -17 27 C-17.99 26.67 -18.98 26.34 -20 26 C-18.6875 24 -18.6875 24 -17 22 C-16.01 22 -15.02 22 -14 22 C-13.62875 21.195625 -13.62875 21.195625 -13.25 20.375 C-11.69347463 17.4176018 -9.96564327 14.70275949 -8 12 C-7.34 12 -6.68 12 -6 12 C-5.34 10.02 -4.68 8.04 -4 6 C-3.34 6 -2.68 6 -2 6 C-2 5.01 -2 4.02 -2 3 C-1.34 3 -0.68 3 0 3 C0 2.01 0 1.02 0 0 Z " fill="#DB6324" transform="translate(77,105)"/>
<path d="M0 0 C0.99 0.33 1.98 0.66 3 1 C3 3.31 3 5.62 3 8 C-9.375 8.99 -9.375 8.99 -22 10 C-22.33 8.35 -22.66 6.7 -23 5 C-22.01 5.495 -22.01 5.495 -21 6 C-19.3325394 6.08426094 -17.66174813 6.10725143 -15.9921875 6.09765625 C-15.00605469 6.09443359 -14.01992188 6.09121094 -13.00390625 6.08789062 C-11.45509766 6.07532227 -11.45509766 6.07532227 -9.875 6.0625 C-8.83472656 6.05798828 -7.79445313 6.05347656 -6.72265625 6.04882812 C-4.14838038 6.03701952 -1.57421854 6.02055075 1 6 C0.4740625 5.071875 0.4740625 5.071875 -0.0625 4.125 C-0.5265625 3.073125 -0.5265625 3.073125 -1 2 C-0.67 1.34 -0.34 0.68 0 0 Z " fill="#070910" transform="translate(669,101)"/>
<path d="M0 0 C3.82669043 3.42388092 5.72278474 6.00724943 7 11 C5 9 3 7 1 5 C-2.94915881 7.15408662 -6.07851524 9.7494791 -9.3515625 12.79296875 C-11 14 -11 14 -14 14 C-9.72706118 8.76564995 -5.18419194 4.32893185 0 0 Z " fill="#03060E" transform="translate(731,129)"/>
<path d="M0 0 C8.25 0.33 16.5 0.66 25 1 C25 2.98 25 4.96 25 7 C24.34 6.67 23.68 6.34 23 6 C23 5.01 23 4.02 23 3 C19.77085248 2.97082772 16.54173917 2.95314337 13.3125 2.9375 C12.40048828 2.92912109 11.48847656 2.92074219 10.54882812 2.91210938 C9.21948242 2.90727539 9.21948242 2.90727539 7.86328125 2.90234375 C7.05157471 2.89710693 6.23986816 2.89187012 5.40356445 2.88647461 C2.85135327 3.0070209 0.48973863 3.440051 -2 4 C-2 3.34 -2 2.68 -2 2 C-1.34 2 -0.68 2 0 2 C0 1.34 0 0.68 0 0 Z " fill="#06080D" transform="translate(647,141)"/>
<path d="M0 0 C0.33 0 0.66 0 1 0 C1.19335938 0.69867188 1.38671875 1.39734375 1.5859375 2.1171875 C1.84632813 3.02726563 2.10671875 3.93734375 2.375 4.875 C2.63023437 5.77992188 2.88546875 6.68484375 3.1484375 7.6171875 C3.8604315 10.14569726 3.8604315 10.14569726 6 12 C6.2475 12.598125 6.495 13.19625 6.75 13.8125 C9.24969182 18.18696069 12.8058046 20.53559068 17.375 22.3125 C18.24125 22.539375 19.1075 22.76625 20 23 C19.01 23.99 18.02 24.98 17 26 C15.55962331 25.06692579 14.12281015 24.12834923 12.6875 23.1875 C11.88699219 22.66542969 11.08648437 22.14335937 10.26171875 21.60546875 C4.07125397 17.211201 0.91730083 10.73472481 -0.875 3.4375 C-0.91625 2.633125 -0.9575 1.82875 -1 1 C-0.67 0.67 -0.34 0.34 0 0 Z " fill="#04070D" transform="translate(327,136)"/>
<path d="M0 0 C-0.33 0.66 -0.66 1.32 -1 2 C-2.65391846 2.39171753 -4.32345271 2.72057545 -6 3 C-6.99 3.33 -7.98 3.66 -9 4 C-11.80894644 3.93707045 -14.5747667 3.81420495 -17.375 3.625 C-18.50808594 3.55925781 -18.50808594 3.55925781 -19.6640625 3.4921875 C-23.52294371 3.24932085 -27.22406825 2.88756962 -31 2 C-30.67 1.34 -30.34 0.68 -30 0 C-29.08504761 0.00785522 -29.08504761 0.00785522 -28.15161133 0.01586914 C-25.37191815 0.03673335 -22.59224149 0.04969013 -19.8125 0.0625 C-18.85279297 0.07087891 -17.89308594 0.07925781 -16.90429688 0.08789062 C-15.97294922 0.09111328 -15.04160156 0.09433594 -14.08203125 0.09765625 C-13.22843018 0.10289307 -12.3748291 0.10812988 -11.49536133 0.11352539 C-1.08083678 -0.36027893 -1.08083678 -0.36027893 0 0 Z " fill="#04060C" transform="translate(371,182)"/>
<path d="M0 0 C4.82380802 -0.0246519 9.64757967 -0.04283693 14.47143555 -0.05493164 C16.11369464 -0.05997174 17.75594923 -0.06680378 19.39819336 -0.07543945 C21.75375479 -0.08751926 24.10925709 -0.09323139 26.46484375 -0.09765625 C27.20339096 -0.10281754 27.94193817 -0.10797882 28.7028656 -0.11329651 C30.46898088 -0.1134925 32.23497146 -0.06194719 34 0 C35 1 35 1 35.09765625 3.72265625 C35.08605469 4.82480469 35.07445312 5.92695313 35.0625 7.0625 C35.05347656 8.16722656 35.04445312 9.27195313 35.03515625 10.41015625 C35.02355469 11.26480469 35.01195312 12.11945313 35 13 C34.34 13.33 33.68 13.66 33 14 C33 10.04 33 6.08 33 2 C22.11 1.67 11.22 1.34 0 1 C0 0.67 0 0.34 0 0 Z " fill="#0D0F15" transform="translate(196,148)"/>
<path d="M0 0 C0 0.66 0 1.32 0 2 C0.99 1.67 1.98 1.34 3 1 C3 1.66 3 2.32 3 3 C3.99 2.67 4.98 2.34 6 2 C5.67 2.99 5.34 3.98 5 5 C3.35369672 4.85957123 1.70795821 4.71250671 0.0625 4.5625 C-1.31228516 4.44068359 -1.31228516 4.44068359 -2.71484375 4.31640625 C-5 4 -5 4 -6 3 C-9.42501072 2.76340386 -12.84280568 2.60326028 -16.2734375 2.48242188 C-18.18686533 2.39089509 -20.09512839 2.20260148 -22 2 C-22.33 1.34 -22.66 0.68 -23 0 C-20.10450497 -0.1954384 -17.20891002 -0.38161395 -14.3125 -0.5625 C-13.49587891 -0.61857422 -12.67925781 -0.67464844 -11.83789062 -0.73242188 C-7.70485877 -0.98341571 -4.04175718 -1.11127743 0 0 Z " fill="#06080E" transform="translate(367,67)"/>
<path d="M0 0 C0.66 0.66 1.32 1.32 2 2 C-3.28 7.61 -8.56 13.22 -14 19 C-14.66 18.67 -15.32 18.34 -16 18 C-16 16.68 -16 15.36 -16 14 C-14.64453125 12.65625 -14.64453125 12.65625 -12.8125 11.5 C-11.85923828 10.86964844 -11.85923828 10.86964844 -10.88671875 10.2265625 C-10.26410156 9.82179688 -9.64148438 9.41703125 -9 9 C-5.02871946 6.21648581 -5.02871946 6.21648581 -3 2 C-2.01 1.34 -1.02 0.68 0 0 Z " fill="#070913" transform="translate(730,101)"/>
<path d="M0 0 C0.66 0.33 1.32 0.66 2 1 C2 1.66 2 2.32 2 3 C-7.68314929 7.36691047 -16.7912995 8.55085235 -27 5 C-27 4.34 -27 3.68 -27 3 C-25.2984375 3.12568359 -25.2984375 3.12568359 -23.5625 3.25390625 C-22.04169378 3.35717087 -20.52085881 3.46001284 -19 3.5625 C-18.25621094 3.61857422 -17.51242187 3.67464844 -16.74609375 3.73242188 C-11.67431368 4.06319014 -7.00839885 3.93348505 -2 3 C-1.67 2.34 -1.34 1.68 -1 1 C-0.67 0.67 -0.34 0.34 0 0 Z " fill="#06080F" transform="translate(373,158)"/>
<path d="M0 0 C0.66 0.33 1.32 0.66 2 1 C1.9278125 1.84820312 1.855625 2.69640625 1.78125 3.5703125 C1.10755866 12.08502245 0.88315219 20.45712664 1 29 C0.34 29 -0.32 29 -1 29 C-2.05074806 18.86170112 -1.87580822 10.06115316 0 0 Z " fill="#090B11" transform="translate(302,109)"/>
<path d="M0 0 C1.65 0 3.3 0 5 0 C5.33 0.99 5.66 1.98 6 3 C7.65 3.33 9.3 3.66 11 4 C10.01 5.485 10.01 5.485 9 7 C8.01 6.67 7.02 6.34 6 6 C5.01 6.99 4.02 7.98 3 9 C0.9375 7.3125 0.9375 7.3125 -1 5 C-0.75 2.25 -0.75 2.25 0 0 Z " fill="#ECEDF2" transform="translate(151,14)"/>
<path d="M0 0 C0.66 0.66 1.32 1.32 2 2 C1.67 2.66 1.34 3.32 1 4 C0.960008 5.99960012 0.95653201 8.00047242 1 10 C-0.65 9.67 -2.3 9.34 -4 9 C-4.66 10.32 -5.32 11.64 -6 13 C-6.99 13 -7.98 13 -9 13 C-9.66 13.66 -10.32 14.32 -11 15 C-11 11 -11 11 -9.35546875 9.21875 C-8.64003906 8.6515625 -7.92460937 8.084375 -7.1875 7.5 C-4.32256619 5.20387818 -2.10037063 3.02135334 0 0 Z " fill="#02040C" transform="translate(389,165)"/>
<path d="M0 0 C0.66 0.33 1.32 0.66 2 1 C-0.40594815 6.9055091 -5.69052027 10.6689738 -10.44921875 14.66796875 C-11.68048318 15.72555357 -12.85228537 16.85228537 -14 18 C-15.98356483 18.71408334 -17.98315437 19.38617742 -20 20 C-20 19.34 -20 18.68 -20 18 C-18.2421875 16.66796875 -18.2421875 16.66796875 -15.875 15.1875 C-9.20181142 10.8572491 -4.44140369 6.66210553 0 0 Z " fill="#03050D" transform="translate(538,159)"/>
<path d="M0 0 C0.33 0 0.66 0 1 0 C1.47053426 6.87502835 1.00332481 12.14020722 -1.85546875 18.43359375 C-3.50932171 22.14206267 -4.71222418 25.99062593 -5.97265625 29.84765625 C-6.31167969 30.55792969 -6.65070313 31.26820312 -7 32 C-8.485 32.495 -8.485 32.495 -10 33 C-8.61645747 28.77286316 -7.11296006 24.60587082 -5.5625 20.4375 C-3.14527806 13.72220001 -1.42749275 6.98659054 0 0 Z " fill="#3B68CD" transform="translate(183,84)"/>
<path d="M0 0 C1.65 0.33 3.3 0.66 5 1 C5 2.65 5 4.3 5 6 C4.38125 6.268125 3.7625 6.53625 3.125 6.8125 C0.7004767 7.95556848 0.7004767 7.95556848 -1 11 C-3.31 8.69 -5.62 6.38 -8 4 C-5 3 -5 3 -2 4 C-0.68 4 0.64 4 2 4 C2 3.01 2 2.02 2 1 C1.34 0.67 0.68 0.34 0 0 Z " fill="#EEDED6" transform="translate(68,14)"/>
<path d="M0 0 C1.76462683 3.08809695 2 4.23312136 2 8 C2.66 8.33 3.32 8.66 4 9 C5.125 11.0625 5.125 11.0625 6 13 C5.01 13.495 5.01 13.495 4 14 C4.33 17.3 4.66 20.6 5 24 C4.34 24.33 3.68 24.66 3 25 C1.39698043 19.26562104 0.62202277 13.93883902 0.375 8 C0.33632813 7.22527344 0.29765625 6.45054687 0.2578125 5.65234375 C0.16478643 3.76856585 0.08136825 1.88431744 0 0 Z " fill="#070A10" transform="translate(432,122)"/>
<path d="M0 0 C3 3 3 3 4 6 C4.99 7.485 4.99 7.485 6 9 C5.01 9.495 5.01 9.495 4 10 C3.835 11.155 3.67 12.31 3.5 13.5 C3.335 14.655 3.17 15.81 3 17 C2.34 17.33 1.68 17.66 1 18 C1 15.69 1 13.38 1 11 C0.34 11 -0.32 11 -1 11 C-0.67 7.37 -0.34 3.74 0 0 Z " fill="#070E15" transform="translate(562,121)"/>
<path d="M0 0 C1.12894876 0.93274109 2.25300876 1.87140122 3.375 2.8125 C4.00148438 3.33457031 4.62796875 3.85664062 5.2734375 4.39453125 C7 6 7 6 9 9 C9.53625 9.495 10.0725 9.99 10.625 10.5 C12 12 12 12 12 15 C12.66 15.33 13.32 15.66 14 16 C14 16.66 14 17.32 14 18 C13.01 18 12.02 18 11 18 C9.5703125 16.20703125 9.5703125 16.20703125 8.125 13.8125 C5.71730938 9.99381861 3.27003681 7.08317757 0 4 C-0.33 3.34 -0.66 2.68 -1 2 C-0.67 1.34 -0.34 0.68 0 0 Z " fill="#04060C" transform="translate(655,77)"/>
<path d="M0 0 C6.97593651 2.70940391 11.18126057 11.16164873 14.5625 17.5 C16 21 16 21 15 24 C14.67 22.68 14.34 21.36 14 20 C13.34 20 12.68 20 12 20 C12 18.68 12 17.36 12 16 C11.34 16 10.68 16 10 16 C9.66226563 15.36191406 9.32453125 14.72382812 8.9765625 14.06640625 C8.53054687 13.24011719 8.08453125 12.41382813 7.625 11.5625 C6.96371094 10.32693359 6.96371094 10.32693359 6.2890625 9.06640625 C5.16581441 6.86533422 5.16581441 6.86533422 3 6 C1.95191959 4.02477154 0.9479589 2.02518491 0 0 Z " fill="#D0E5FD" transform="translate(161,19)"/>
<path d="M0 0 C0.66 0.33 1.32 0.66 2 1 C2 7.93 2 14.86 2 22 C1.34 21.67 0.68 21.34 0 21 C-0.19592461 17.68794116 -0.38032746 14.37534146 -0.5625 11.0625 C-0.61857422 10.11697266 -0.67464844 9.17144531 -0.73242188 8.19726562 C-0.78076172 7.29814453 -0.82910156 6.39902344 -0.87890625 5.47265625 C-0.9260376 4.64000244 -0.97316895 3.80734863 -1.02172852 2.94946289 C-1 1 -1 1 0 0 Z " fill="#1F56BD" transform="translate(214,72)"/>
<path d="M0 0 C0.66 0 1.32 0 2 0 C2.67258667 2.33163378 3.33847444 4.6652039 4 7 C4.1848999 7.63454102 4.3697998 8.26908203 4.56030273 8.92285156 C5.06955135 11.32856353 5.11264818 13.52569805 5.09765625 15.984375 C5.09282227 17.38623047 5.09282227 17.38623047 5.08789062 18.81640625 C5.07951172 19.78449219 5.07113281 20.75257812 5.0625 21.75 C5.05798828 22.73355469 5.05347656 23.71710938 5.04882812 24.73046875 C5.03706483 27.15370791 5.02062684 29.57682273 5 32 C4.67 32 4.34 32 4 32 C3.96261719 31.030625 3.92523438 30.06125 3.88671875 29.0625 C3.42705425 19.15666768 2.0502288 9.69667962 0 0 Z " fill="#FDDFCB" transform="translate(83,52)"/>
<path d="M0 0 C2.8125 -0.3125 2.8125 -0.3125 6 0 C7.88599343 2.38892501 9 3.91851558 9 7 C7.375 7.8125 7.375 7.8125 5 8 C2.75390165 6.53181864 0.97621323 4.84147142 -1 3 C-0.67 2.01 -0.34 1.02 0 0 Z " fill="#EAEBEE" transform="translate(140,8)"/>
<path d="M0 0 C0.66 0 1.32 0 2 0 C1.29122164 6.85152417 -0.37304314 12.62024762 -3 19 C-3.99 18.67 -4.98 18.34 -6 18 C-4.02 12.06 -2.04 6.12 0 0 Z " fill="#02040A" transform="translate(545,140)"/>
<path d="M0 0 C0.33 0.99 0.66 1.98 1 3 C-0.0625 5.125 -0.0625 5.125 -2 7 C-5.1875 7.75 -5.1875 7.75 -8 8 C-8.33 6.68 -8.66 5.36 -9 4 C-3.375 0 -3.375 0 0 0 Z " fill="#ECECEE" transform="translate(71,127)"/>
<path d="M0 0 C2.31 0.33 4.62 0.66 7 1 C7.33 2.65 7.66 4.3 8 6 C9.32 6.33 10.64 6.66 12 7 C12.33 8.32 12.66 9.64 13 11 C9.74819124 9.17085757 6.7029397 7.1281125 3.6875 4.9375 C2.99011719 4.43089844 2.29273438 3.92429687 1.57421875 3.40234375 C1.05472656 2.93957031 0.53523438 2.47679687 0 2 C0 1.34 0 0.68 0 0 Z " fill="#F2DED1" transform="translate(47,6)"/>
<path d="M0 0 C0.99 0.99 1.98 1.98 3 3 C-0.20835538 8.82530885 -3.7045931 12.97121781 -9 17 C-9.99 16.01 -10.98 15.02 -12 14 C-11.01 13.67 -10.02 13.34 -9 13 C-6.86644906 12.18330183 -6.86644906 12.18330183 -5 11 C-4.67 10.01 -4.34 9.02 -4 8 C-3.505 7.54625 -3.01 7.0925 -2.5 6.625 C-0.56690264 4.53081119 -0.37547204 2.77849308 0 0 Z " fill="#03060D" transform="translate(386,143)"/>
<path d="M0 0 C1.485 0.99 1.485 0.99 3 2 C5.71075544 2.36798693 5.71075544 2.36798693 8.76171875 2.4140625 C9.87998047 2.45273438 10.99824219 2.49140625 12.15039062 2.53125 C13.31763672 2.5621875 14.48488281 2.593125 15.6875 2.625 C16.86634766 2.66367188 18.04519531 2.70234375 19.25976562 2.7421875 C22.17301977 2.83654391 25.08626607 2.92213161 28 3 C28 3.33 28 3.66 28 4 C18.43 4 8.86 4 -1 4 C-0.67 2.68 -0.34 1.36 0 0 Z " fill="#2763E5" transform="translate(165,129)"/>
<path d="M0 0 C0.33 0 0.66 0 1 0 C1.3690205 19.00455581 1.3690205 19.00455581 -1 27 C-3.22417668 23.50250284 -3.01213545 21.43299178 -2.1875 17.4375 C-1.08078876 11.63262104 -0.44054651 5.88941123 0 0 Z " fill="#B5CFF7" transform="translate(183,66)"/>
<path d="M0 0 C1.32 0.66 2.64 1.32 4 2 C3.625 4.4375 3.625 4.4375 3 7 C2.01 7.495 2.01 7.495 1 8 C0.53476937 9.89533342 0.53476937 9.89533342 0.375 12.0625 C0.25125 13.361875 0.1275 14.66125 0 16 C-0.66 16 -1.32 16 -2 16 C-2.20674944 10.21101581 -1.59162079 5.57067277 0 0 Z " fill="#080C12" transform="translate(435,106)"/>
<path d="M0 0 C-0.45261358 1.43931117 -0.91232979 2.87638999 -1.375 4.3125 C-1.63023437 5.11300781 -1.88546875 5.91351563 -2.1484375 6.73828125 C-3 9 -3 9 -5 12 C-6.125 10.375 -6.125 10.375 -7 8 C-6.06694428 3.75883764 -5.0851859 0 0 0 Z " fill="#141928" transform="translate(170,96)"/>
<path d="M0 0 C2.64 0.33 5.28 0.66 8 1 C8.061875 1.70125 8.12375 2.4025 8.1875 3.125 C9.29201202 7.0332733 11.28230992 9.00357248 14 12 C13.67 12.66 13.34 13.32 13 14 C11.96939453 12.86111328 11.96939453 12.86111328 10.91796875 11.69921875 C10.00785258 10.69527617 9.0976941 9.69137193 8.1875 8.6875 C7.73568359 8.18798828 7.28386719 7.68847656 6.81835938 7.17382812 C4.59780179 4.72635224 2.36844075 2.30549215 0 0 Z " fill="#4467B6" transform="translate(152,8)"/>
<path d="M0 0 C4.30001343 1.44380013 7.27623738 3.60832733 10.75 6.5 C11.71421875 7.2940625 12.6784375 8.088125 13.671875 8.90625 C16 11 16 11 17 13 C14.33333333 11.66666667 11.66666667 10.33333333 9 9 C9 8.34 9 7.68 9 7 C8.360625 6.87625 7.72125 6.7525 7.0625 6.625 C6.381875 6.41875 5.70125 6.2125 5 6 C4.67 5.34 4.34 4.68 4 4 C1.97536745 3.34786708 1.97536745 3.34786708 0 3 C0 2.01 0 1.02 0 0 Z " fill="#D2602A" transform="translate(46,8)"/>
<path d="M0 0 C2.28896464 2.87622087 3.97024477 5.75320465 5.5625 9.0625 C6.92335362 11.88171388 8.25760511 14.38640767 10 17 C9.01 17 8.02 17 7 17 C4.38211608 14.15271388 2.85144947 10.86992796 1.25 7.375 C0.80140625 6.41335937 0.3528125 5.45171875 -0.109375 4.4609375 C-0.40328125 3.64882812 -0.6971875 2.83671875 -1 2 C-0.67 1.34 -0.34 0.68 0 0 Z " fill="#04080D" transform="translate(567,148)"/>
<path d="M0 0 C0.66 0.66 1.32 1.32 2 2 C1.34 2 0.68 2 0 2 C-0.33 2.66 -0.66 3.32 -1 4 C-5.12606298 5.72718916 -8.54702569 6.2120464 -13 6 C-13.33 5.34 -13.66 4.68 -14 4 C-9.38 2.68 -4.76 1.36 0 0 Z " fill="#04070A" transform="translate(645,178)"/>
<path d="M0 0 C0.66 0 1.32 0 2 0 C0.59155282 3.21524305 -1.10344786 5.32183868 -3.625 7.75 C-4.57246094 8.67039063 -4.57246094 8.67039063 -5.5390625 9.609375 C-6.02117188 10.06828125 -6.50328125 10.5271875 -7 11 C-7.99 10.67 -8.98 10.34 -10 10 C-8.6875 8 -8.6875 8 -7 6 C-6.01 6 -5.02 6 -4 6 C-3.71125 5.38125 -3.4225 4.7625 -3.125 4.125 C-2 2 -2 2 0 0 Z " fill="#D9692F" transform="translate(67,121)"/>
<path d="M0 0 C1.32 0.66 2.64 1.32 4 2 C3.67 4.64 3.34 7.28 3 10 C2.34 9.34 1.68 8.68 1 8 C1 7.01 1 6.02 1 5 C0.01 5.33 -0.98 5.66 -2 6 C-1.125 1.125 -1.125 1.125 0 0 Z " fill="#090E18" transform="translate(667,145)"/>
<path d="M0 0 C1.65 0 3.3 0 5 0 C4.57692877 1.31722179 4.13602514 2.62872664 3.6875 3.9375 C3.44386719 4.66839844 3.20023438 5.39929688 2.94921875 6.15234375 C2 8 2 8 -1 9 C-0.67 6.03 -0.34 3.06 0 0 Z " fill="#DCE6F5" transform="translate(160,124)"/>
<path d="M0 0 C2.49560036 2.24460607 3.8705484 4.38520597 5.25 7.4375 C5.60578125 8.19933594 5.9615625 8.96117187 6.328125 9.74609375 C7.08338373 12.27972334 6.87351072 13.54185126 6 16 C5.80664062 15.43410156 5.61328125 14.86820313 5.4140625 14.28515625 C5.15367188 13.55167969 4.89328125 12.81820312 4.625 12.0625 C4.24214844 10.96615234 4.24214844 10.96615234 3.8515625 9.84765625 C3.14728587 7.81317884 3.14728587 7.81317884 1 7 C0.59270772 4.67843403 0.25561323 2.3431213 0 0 Z " fill="#D66934" transform="translate(75,36)"/>
<path d="M0 0 C0.66 0.33 1.32 0.66 2 1 C1.52140759 2.60433809 1.04210442 4.20846416 0.5625 5.8125 C0.29566406 6.70582031 0.02882813 7.59914063 -0.24609375 8.51953125 C-0.80387873 10.35473055 -1.39344575 12.18033726 -2 14 C-2.66 14 -3.32 14 -4 14 C-3.46148032 8.72250715 -2.22656164 4.74354436 0 0 Z " fill="#060910" transform="translate(307,95)"/>
<path d="M0 0 C2.39489543 0.74324341 3.70777616 1.47057354 4.93359375 3.69140625 C5.67219923 5.44073501 6.34049685 7.21934149 7 9 C6.01 9.99 5.02 10.98 4 12 C3.566875 10.4221875 3.566875 10.4221875 3.125 8.8125 C2.22774807 5.77181289 1.23576581 2.91287656 0 0 Z " fill="#020509" transform="translate(640,96)"/>
<path d="M0 0 C1.11003253 3.3300976 0.9343162 3.97843441 -0.25 7.125 C-0.62898438 8.18074219 -0.62898438 8.18074219 -1.015625 9.2578125 C-2 11 -2 11 -5 12 C-4.55149342 10.18504338 -4.09090429 8.37306866 -3.625 6.5625 C-3.36976562 5.55316406 -3.11453125 4.54382813 -2.8515625 3.50390625 C-2 1 -2 1 0 0 Z " fill="#F9D5C0" transform="translate(85,93)"/>
<path d="M0 0 C2 1.375 2 1.375 4 3 C4 3.66 4 4.32 4 5 C3.01 5 2.02 5 1 5 C0.67 6.32 0.34 7.64 0 9 C-1.32 8.34 -2.64 7.68 -4 7 C-3.34 6.21625 -2.68 5.4325 -2 4.625 C0.20201441 2.28487188 0.20201441 2.28487188 0 0 Z " fill="#EEEDF4" transform="translate(72,16)"/>
<path d="M0 0 C4.67948398 -0.27771418 7.67583336 0.45162603 11.875 2.5 C13.32519531 3.19609375 13.32519531 3.19609375 14.8046875 3.90625 C15.52914062 4.2671875 16.25359375 4.628125 17 5 C17 5.33 17 5.66 17 6 C14.625 6.125 14.625 6.125 12 6 C11.34 5.34 10.68 4.68 10 4 C8.31238142 3.39688385 6.59985524 2.86149763 4.875 2.375 C3.96492187 2.11460938 3.05484375 1.85421875 2.1171875 1.5859375 C1.41851562 1.39257812 0.71984375 1.19921875 0 1 C0 0.67 0 0.34 0 0 Z " fill="#2D5AB1" transform="translate(158,10)"/>
<path d="M0 0 C0.66 0.33 1.32 0.66 2 1 C1.82374165 3.37948772 1.30280227 4.70225849 -0.40234375 6.37890625 C-1.90649092 7.62115486 -3.45129851 8.81376056 -5 10 C-5.66 9.67 -6.32 9.34 -7 9 C-4.6 4.2 -4.6 4.2 -1 3 C-0.67 2.01 -0.34 1.02 0 0 Z " fill="#02050C" transform="translate(514,150)"/>
<path d="M0 0 C3.59905908 0.55550695 4.99909799 1.74887248 7.25 4.5625 C8.03117188 5.52349609 8.03117188 5.52349609 8.828125 6.50390625 C9.21484375 6.99761719 9.6015625 7.49132812 10 8 C7.5625 7.625 7.5625 7.625 5 7 C4.67 6.34 4.34 5.68 4 5 C1.98330173 3.86649466 1.98330173 3.86649466 0 3 C0 2.01 0 1.02 0 0 Z " fill="#D4E5F9" transform="translate(152,10)"/>
<path d="M0 0 C3.45854519 3.45854519 4 7.21904213 4 12 C3.34 12 2.68 12 2 12 C2 10.68 2 9.36 2 8 C1.34 8 0.68 8 0 8 C-0.38063221 5.6739143 -0.71269945 3.33944736 -1 1 C-0.67 0.67 -0.34 0.34 0 0 Z " fill="#CDE2FB" transform="translate(177,43)"/>
<path d="M0 0 C1.5 1.0625 1.5 1.0625 3 3 C3.1875 6.6875 3.1875 6.6875 3 10 C2.01 10.495 2.01 10.495 1 11 C1 8.69 1 6.38 1 4 C0.34 4 -0.32 4 -1 4 C-0.67 2.68 -0.34 1.36 0 0 Z " fill="#03080B" transform="translate(562,128)"/>
<path d="M0 0 C3 1 3 1 4.6875 3.9375 C6 7 6 7 6 9 C5.01 9 4.02 9 3 9 C2.01 6.03 1.02 3.06 0 0 Z " fill="#151925" transform="translate(90,42)"/>
<path d="M0 0 C0.66 0 1.32 0 2 0 C0.90931332 3.77545388 0.0916909 6.47043472 -3 9 C-3.66 8.67 -4.32 8.34 -5 8 C-4.67 6.68 -4.34 5.36 -4 4 C-3.34 4 -2.68 4 -2 4 C-1.34 2.68 -0.68 1.36 0 0 Z " fill="#03060D" transform="translate(646,146)"/>
<path d="M0 0 C0.33 0.99 0.66 1.98 1 3 C1.99 3.33 2.98 3.66 4 4 C1.64561267 5.42944945 0.51967567 6.08661261 -2.25 5.625 C-2.8275 5.41875 -3.405 5.2125 -4 5 C-2.68 3.35 -1.36 1.7 0 0 Z " fill="#D1D3D7" transform="translate(149,129)"/>
<path d="M0 0 C1.875 0.625 1.875 0.625 4 2 C5.25 5.125 5.25 5.125 6 8 C4.68 7.67 3.36 7.34 2 7 C2 6.01 2 5.02 2 4 C1.34 3.34 0.68 2.68 0 2 C0 1.34 0 0.68 0 0 Z " fill="#010509" transform="translate(760,173)"/>
<path d="M0 0 C0.33 0 0.66 0 1 0 C0.88557539 1.60495567 0.75805306 3.20898119 0.625 4.8125 C0.55539063 5.70582031 0.48578125 6.59914063 0.4140625 7.51953125 C0 10 0 10 -2 13 C-3.18771723 9.57056481 -2.80226223 7.62215325 -1.5625 4.25 C-1.27503906 3.45078125 -0.98757812 2.6515625 -0.69140625 1.828125 C-0.46324219 1.22484375 -0.23507813 0.6215625 0 0 Z " fill="#D6E9FD" transform="translate(180,91)"/>
<path d="M0 0 C0.99 0 1.98 0 3 0 C3.33 3.96 3.66 7.92 4 12 C3.34 12 2.68 12 2 12 C2 9.69 2 7.38 2 5 C1.34 5 0.68 5 0 5 C0 3.35 0 1.7 0 0 Z " fill="#F2E9E1" transform="translate(81,40)"/>
<path d="M0 0 C6.75 1.75 6.75 1.75 9 4 C8.67 4.99 8.34 5.98 8 7 C6.66382648 6.02471263 5.3311249 5.04466681 4 4.0625 C3.2575 3.51722656 2.515 2.97195312 1.75 2.41015625 C1.1725 1.94480469 0.595 1.47945312 0 1 C0 0.67 0 0.34 0 0 Z " fill="#FCD4BE" transform="translate(51,10)"/>
<path d="M0 0 C0.66 0.99 1.32 1.98 2 3 C0.35 4.32 -1.3 5.64 -3 7 C-3.99 6.34 -4.98 5.68 -6 5 C-5.67 4.34 -5.34 3.68 -5 3 C-4.01 3 -3.02 3 -2 3 C-1.34 2.01 -0.68 1.02 0 0 Z " fill="#1A202C" transform="translate(156,118)"/>
<path d="M0 0 C1.52519276 0.08937803 3.04681929 0.24537146 4.5625 0.4375 C5.80193359 0.59025391 5.80193359 0.59025391 7.06640625 0.74609375 C7.70449219 0.82988281 8.34257812 0.91367188 9 1 C9 1.33 9 1.66 9 2 C7.8553125 2.185625 7.8553125 2.185625 6.6875 2.375 C3.79732864 2.88102792 3.79732864 2.88102792 1 5 C0.34 3.68 -0.32 2.36 -1 1 C-0.67 0.67 -0.34 0.34 0 0 Z " fill="#D7D7DA" transform="translate(137,6)"/>
<path d="M0 0 C0.99 0.33 1.98 0.66 3 1 C3.33 1.99 3.66 2.98 4 4 C2.02 4.99 2.02 4.99 0 6 C-0.99 5.34 -1.98 4.68 -3 4 C-2.34 3.67 -1.68 3.34 -1 3 C-0.67 2.01 -0.34 1.02 0 0 Z " fill="#090D1B" transform="translate(500,161)"/>
<path d="M0 0 C2.97 0.33 5.94 0.66 9 1 C7.68 1.33 6.36 1.66 5 2 C4.67 2.99 4.34 3.98 4 5 C2.68 3.35 1.36 1.7 0 0 Z " fill="#2965E5" transform="translate(159,12)"/>
<path d="M0 0 C0 2.33333333 0 4.66666667 0 7 C-1.32 7 -2.64 7 -4 7 C-3.43628586 3.73045798 -2.50037734 2.17424117 0 0 Z " fill="#F3D8CB" transform="translate(63,128)"/>
<path d="M0 0 C0.66 0.66 1.32 1.32 2 2 C0.68 3.65 -0.64 5.3 -2 7 C-2.66 5.68 -3.32 4.36 -4 3 C-2.68 2.01 -1.36 1.02 0 0 Z " fill="#DFE2E8" transform="translate(82,117)"/>
<path d="M0 0 C2.04119788 1.61594832 4.04072937 3.2856382 6 5 C6 5.66 6 6.32 6 7 C4.125 6.875 4.125 6.875 2 6 C0.75 2.9375 0.75 2.9375 0 0 Z " fill="#2865E9" transform="translate(193,32)"/>
<path d="M0 0 C3.71162994 1.85581497 5.01775064 2.55714584 7 6 C6.67 6.99 6.34 7.98 6 9 C4.02 6.03 2.04 3.06 0 0 Z " fill="#FDDAC4" transform="translate(68,25)"/>
<path d="M0 0 C4.67692308 1.47692308 4.67692308 1.47692308 6.3125 4.125 C6.539375 4.74375 6.76625 5.3625 7 6 C6.01 6.495 6.01 6.495 5 7 C3.35 4.69 1.7 2.38 0 0 Z " fill="#000308" transform="translate(447,167)"/>
<path d="M0 0 C1.32 0.33 2.64 0.66 4 1 C3.34 1 2.68 1 2 1 C2 1.66 2 2.32 2 3 C2.66 3.33 3.32 3.66 4 4 C2.02 4 0.04 4 -2 4 C-1.34 2.68 -0.68 1.36 0 0 Z " fill="#1D1E23" transform="translate(74,131)"/>
<path d="M0 0 C-0.66 1.65 -1.32 3.3 -2 5 C-2.99 5 -3.98 5 -5 5 C-5 3.68 -5 2.36 -5 1 C-3 0 -3 0 0 0 Z " fill="#D6D7D9" transform="translate(74,130)"/>
<path d="M0 0 C3.3 0 6.6 0 10 0 C10 0.33 10 0.66 10 1 C6.7 1 3.4 1 0 1 C0 0.67 0 0.34 0 0 Z " fill="#000000" transform="translate(163,146)"/>
<path d="M0 0 C0.33 0 0.66 0 1 0 C1 1.65 1 3.3 1 5 C0.01 5 -0.98 5 -2 5 C-1.34 3.35 -0.68 1.7 0 0 Z " fill="#000002" transform="translate(389,75)"/>
<path d="M0 0 C0.33 0 0.66 0 1 0 C1 1.98 1 3.96 1 6 C0.67 6 0.34 6 0 6 C0 4.02 0 2.04 0 0 Z " fill="#000000" transform="translate(688,175)"/>
<path d="M0 0 C1.98 0 3.96 0 6 0 C6 0.33 6 0.66 6 1 C4.02 1 2.04 1 0 1 C0 0.67 0 0.34 0 0 Z " fill="#000000" transform="translate(142,146)"/>
<path d="M0 0 C1.65 0 3.3 0 5 0 C5 0.33 5 0.66 5 1 C3.35 1 1.7 1 0 1 C0 0.67 0 0.34 0 0 Z " fill="#000000" transform="translate(152,146)"/>
<path d="M0 0 C1.65 0 3.3 0 5 0 C5 0.33 5 0.66 5 1 C3.35 1 1.7 1 0 1 C0 0.67 0 0.34 0 0 Z " fill="#000000" transform="translate(392,25)"/>
<path d="M0 0 C1.65 0 3.3 0 5 0 C5 0.33 5 0.66 5 1 C3.35 1 1.7 1 0 1 C0 0.67 0 0.34 0 0 Z " fill="#000000" transform="translate(82,4)"/>
<path d="M0 0 C4 1 4 1 4 1 Z " fill="#000000" transform="translate(75,146)"/>
<path d="M0 0 C4 1 4 1 4 1 Z " fill="#000000" transform="translate(68,146)"/>
<path d="M0 0 C1 4 1 4 1 4 Z " fill="#000000" transform="translate(431,129)"/>
<path d="M0 0 C3 1 3 1 3 1 Z " fill="#000000" transform="translate(51,146)"/>
<path d="" fill="#000000" transform="translate(0,0)"/>
<path d="M0 0 C3 1 3 1 3 1 Z " fill="#000000" transform="translate(690,25)"/>
<path d="M0 0 C2 1 2 1 2 1 Z " fill="#000000" transform="translate(501,185)"/>
<path d="M0 0 C2 1 2 1 2 1 Z " fill="#000000" transform="translate(330,181)"/>
<path d="" fill="#000000" transform="translate(0,0)"/>
<path d="" fill="#000000" transform="translate(0,0)"/>
<path d="M0 0 C2 1 2 1 2 1 Z " fill="#000000" transform="translate(87,146)"/>
<path d="" fill="#000000" transform="translate(0,0)"/>
<path d="" fill="#000000" transform="translate(0,0)"/>
<path d="" fill="#000000" transform="translate(0,0)"/>
<path d="M0 0 C2 1 2 1 2 1 Z " fill="#000000" transform="translate(711,25)"/>
<path d="" fill="#000000" transform="translate(0,0)"/>
<path d="" fill="#000000" transform="translate(0,0)"/>
<path d="" fill="#000000" transform="translate(0,0)"/>
<path d="" fill="#000000" transform="translate(0,0)"/>
<path d="" fill="#000000" transform="translate(0,0)"/>
<path d="" fill="#000000" transform="translate(0,0)"/>
<path d="" fill="#000000" transform="translate(0,0)"/>
<path d="" fill="#000000" transform="translate(0,0)"/>
<path d="" fill="#000000" transform="translate(0,0)"/>
<path d="" fill="#000000" transform="translate(0,0)"/>
<path d="" fill="#000000" transform="translate(0,0)"/>
<path d="" fill="#000000" transform="translate(0,0)"/>
<path d="" fill="#000000" transform="translate(0,0)"/>
<path d="" fill="#000000" transform="translate(0,0)"/>
<path d="" fill="#000000" transform="translate(0,0)"/>
<path d="" fill="#000000" transform="translate(0,0)"/>
<path d="" fill="#000000" transform="translate(0,0)"/>
<path d="" fill="#000000" transform="translate(0,0)"/>
<path d="" fill="#000000" transform="translate(0,0)"/>
<path d="" fill="#000000" transform="translate(0,0)"/>
<path d="" fill="#000000" transform="translate(0,0)"/>
<path d="" fill="#000000" transform="translate(0,0)"/>
<path d="" fill="#000000" transform="translate(0,0)"/>
<path d="" fill="#000000" transform="translate(0,0)"/>
<path d="" fill="#000000" transform="translate(0,0)"/>
<path d="" fill="#000000" transform="translate(0,0)"/>
<path d="" fill="#000000" transform="translate(0,0)"/>
<path d="" fill="#000000" transform="translate(0,0)"/>
<path d="" fill="#000000" transform="translate(0,0)"/>
<path d="" fill="#000000" transform="translate(0,0)"/>
<path d="" fill="#000000" transform="translate(0,0)"/>
<path d="" fill="#000000" transform="translate(0,0)"/>
<path d="" fill="#000000" transform="translate(0,0)"/>
<path d="" fill="#000000" transform="translate(0,0)"/>
<path d="" fill="#000000" transform="translate(0,0)"/>
<path d="" fill="#000000" transform="translate(0,0)"/>
<path d="" fill="#000000" transform="translate(0,0)"/>
<path d="" fill="#000000" transform="translate(0,0)"/>
<path d="" fill="#000000" transform="translate(0,0)"/>
<path d="" fill="#000000" transform="translate(0,0)"/>
<path d="" fill="#000000" transform="translate(0,0)"/>
<path d="" fill="#000000" transform="translate(0,0)"/>
<path d="" fill="#000000" transform="translate(0,0)"/>
<path d="" fill="#000000" transform="translate(0,0)"/>
<path d="" fill="#000000" transform="translate(0,0)"/>
<path d="" fill="#000000" transform="translate(0,0)"/>
<path d="" fill="#000000" transform="translate(0,0)"/>
<path d="" fill="#000000" transform="translate(0,0)"/>
<path d="" fill="#000000" transform="translate(0,0)"/>
<path d="" fill="#000000" transform="translate(0,0)"/>
<path d="" fill="#000000" transform="translate(0,0)"/>
<path d="" fill="#000000" transform="translate(0,0)"/>
<path d="" fill="#000000" transform="translate(0,0)"/>
<path d="" fill="#000000" transform="translate(0,0)"/>
<path d="" fill="#000000" transform="translate(0,0)"/>
<path d="" fill="#000000" transform="translate(0,0)"/>
<path d="" fill="#000000" transform="translate(0,0)"/>
<path d="" fill="#000000" transform="translate(0,0)"/>
<path d="" fill="#000000" transform="translate(0,0)"/>
<path d="" fill="#000000" transform="translate(0,0)"/>
<path d="" fill="#000000" transform="translate(0,0)"/>
<path d="" fill="#000000" transform="translate(0,0)"/>
<path d="" fill="#000000" transform="translate(0,0)"/>
<path d="" fill="#000000" transform="translate(0,0)"/>
<path d="" fill="#000000" transform="translate(0,0)"/>
<path d="" fill="#000000" transform="translate(0,0)"/>
<path d="" fill="#000000" transform="translate(0,0)"/>
<path d="" fill="#000000" transform="translate(0,0)"/>
<path d="" fill="#000000" transform="translate(0,0)"/>
<path d="" fill="#000000" transform="translate(0,0)"/>
<path d="" fill="#000000" transform="translate(0,0)"/>
<path d="" fill="#000000" transform="translate(0,0)"/>
<path d="" fill="#000000" transform="translate(0,0)"/>
<path d="" fill="#000000" transform="translate(0,0)"/>
<path d="" fill="#000000" transform="translate(0,0)"/>
<path d="" fill="#000000" transform="translate(0,0)"/>
<path d="" fill="#000000" transform="translate(0,0)"/>
<path d="" fill="#000000" transform="translate(0,0)"/>
<path d="" fill="#000000" transform="translate(0,0)"/>
<path d="" fill="#000000" transform="translate(0,0)"/>
<path d="" fill="#000000" transform="translate(0,0)"/>
<path d="" fill="#000000" transform="translate(0,0)"/>
<path d="" fill="#000000" transform="translate(0,0)"/>
<path d="" fill="#000000" transform="translate(0,0)"/>
<path d="" fill="#000000" transform="translate(0,0)"/>
<path d="" fill="#000000" transform="translate(0,0)"/>
<path d="" fill="#000000" transform="translate(0,0)"/>
<path d="" fill="#000000" transform="translate(0,0)"/>
<path d="" fill="#000000" transform="translate(0,0)"/>
<path d="" fill="#000000" transform="translate(0,0)"/>
<path d="" fill="#000000" transform="translate(0,0)"/>
<path d="" fill="#000000" transform="translate(0,0)"/>
<path d="" fill="#000000" transform="translate(0,0)"/>
<path d="" fill="#000000" transform="translate(0,0)"/>
<path d="" fill="#000000" transform="translate(0,0)"/>
<path d="" fill="#000000" transform="translate(0,0)"/>
<path d="" fill="#000000" transform="translate(0,0)"/>
<path d="" fill="#000000" transform="translate(0,0)"/>
<path d="" fill="#000000" transform="translate(0,0)"/>
<path d="" fill="#000000" transform="translate(0,0)"/>
<path d="" fill="#000000" transform="translate(0,0)"/>
<path d="" fill="#000000" transform="translate(0,0)"/>
<path d="" fill="#000000" transform="translate(0,0)"/>
<path d="" fill="#000000" transform="translate(0,0)"/>
<path d="" fill="#000000" transform="translate(0,0)"/>
<path d="" fill="#000000" transform="translate(0,0)"/>
<path d="" fill="#000000" transform="translate(0,0)"/>
<path d="" fill="#000000" transform="translate(0,0)"/>
<path d="" fill="#000000" transform="translate(0,0)"/>
<path d="" fill="#000000" transform="translate(0,0)"/>
<path d="" fill="#000000" transform="translate(0,0)"/>
<path d="" fill="#000000" transform="translate(0,0)"/>
<path d="" fill="#000000" transform="translate(0,0)"/>
<path d="" fill="#000000" transform="translate(0,0)"/>
<path d="" fill="#000000" transform="translate(0,0)"/>
<path d="" fill="#000000" transform="translate(0,0)"/>
<path d="" fill="#000000" transform="translate(0,0)"/>
<path d="" fill="#000000" transform="translate(0,0)"/>
<path d="" fill="#000000" transform="translate(0,0)"/>
<path d="" fill="#000000" transform="translate(0,0)"/>
<path d="" fill="#000000" transform="translate(0,0)"/>
<path d="" fill="#000000" transform="translate(0,0)"/>
<path d="" fill="#000000" transform="translate(0,0)"/>
<path d="" fill="#000000" transform="translate(0,0)"/>
<path d="" fill="#000000" transform="translate(0,0)"/>
<path d="" fill="#000000" transform="translate(0,0)"/>
<path d="" fill="#000000" transform="translate(0,0)"/>
<path d="" fill="#000000" transform="translate(0,0)"/>
<path d="" fill="#000000" transform="translate(0,0)"/>
<path d="" fill="#2A2A2A" transform="translate(0,0)"/>
<path d="" fill="#000000" transform="translate(0,0)"/>
<path d="" fill="#000000" transform="translate(0,0)"/>
<path d="" fill="#000000" transform="translate(0,0)"/>
<path d="" fill="#000000" transform="translate(0,0)"/>
<path d="" fill="#000000" transform="translate(0,0)"/>
<path d="" fill="#000000" transform="translate(0,0)"/>
<path d="" fill="#000000" transform="translate(0,0)"/>
<path d="" fill="#000000" transform="translate(0,0)"/>
<path d="" fill="#000000" transform="translate(0,0)"/>
<path d="" fill="#000000" transform="translate(0,0)"/>
<path d="" fill="#000000" transform="translate(0,0)"/>
<path d="" fill="#000000" transform="translate(0,0)"/>
<path d="" fill="#000000" transform="translate(0,0)"/>
<path d="" fill="#000000" transform="translate(0,0)"/>
<path d="" fill="#000000" transform="translate(0,0)"/>
<path d="" fill="#000000" transform="translate(0,0)"/>
<path d="" fill="#000000" transform="translate(0,0)"/>
<path d="" fill="#000000" transform="translate(0,0)"/>
<path d="" fill="#000000" transform="translate(0,0)"/>
<path d="" fill="#000000" transform="translate(0,0)"/>
<path d="" fill="#000000" transform="translate(0,0)"/>
<path d="" fill="#000000" transform="translate(0,0)"/>
<path d="" fill="#000000" transform="translate(0,0)"/>
<path d="" fill="#000000" transform="translate(0,0)"/>
<path d="" fill="#000000" transform="translate(0,0)"/>
<path d="" fill="#000000" transform="translate(0,0)"/>
<path d="" fill="#000000" transform="translate(0,0)"/>
<path d="" fill="#000000" transform="translate(0,0)"/>
<path d="" fill="#000000" transform="translate(0,0)"/>
<path d="" fill="#000000" transform="translate(0,0)"/>
<path d="" fill="#000000" transform="translate(0,0)"/>
<path d="" fill="#000000" transform="translate(0,0)"/>
<path d="" fill="#000000" transform="translate(0,0)"/>
<path d="" fill="#000000" transform="translate(0,0)"/>
<path d="" fill="#000000" transform="translate(0,0)"/>
<path d="" fill="#000000" transform="translate(0,0)"/>
<path d="" fill="#000000" transform="translate(0,0)"/>
<path d="" fill="#000000" transform="translate(0,0)"/>
<path d="" fill="#000000" transform="translate(0,0)"/>
<path d="" fill="#000000" transform="translate(0,0)"/>
<path d="" fill="#000000" transform="translate(0,0)"/>
<path d="" fill="#000000" transform="translate(0,0)"/>
<path d="" fill="#000000" transform="translate(0,0)"/>
<path d="" fill="#000000" transform="translate(0,0)"/>
<path d="" fill="#000000" transform="translate(0,0)"/>
<path d="" fill="#000000" transform="translate(0,0)"/>
<path d="" fill="#001C1C" transform="translate(0,0)"/>
<path d="" fill="#000000" transform="translate(0,0)"/>
<path d="" fill="#000000" transform="translate(0,0)"/>
<path d="" fill="#000000" transform="translate(0,0)"/>
<path d="" fill="#000000" transform="translate(0,0)"/>
<path d="" fill="#000000" transform="translate(0,0)"/>
<path d="" fill="#000000" transform="translate(0,0)"/>
<path d="" fill="#000000" transform="translate(0,0)"/>
<path d="" fill="#000000" transform="translate(0,0)"/>
<path d="" fill="#000000" transform="translate(0,0)"/>
<path d="" fill="#000000" transform="translate(0,0)"/>
<path d="" fill="#000000" transform="translate(0,0)"/>
<path d="" fill="#000000" transform="translate(0,0)"/>
<path d="" fill="#000000" transform="translate(0,0)"/>
<path d="" fill="#000000" transform="translate(0,0)"/>
<path d="" fill="#000000" transform="translate(0,0)"/>
<path d="" fill="#000000" transform="translate(0,0)"/>
<path d="" fill="#000000" transform="translate(0,0)"/>
<path d="" fill="#000000" transform="translate(0,0)"/>
<path d="" fill="#000000" transform="translate(0,0)"/>
<path d="" fill="#000000" transform="translate(0,0)"/>
<path d="" fill="#000000" transform="translate(0,0)"/>
<path d="" fill="#000000" transform="translate(0,0)"/>
<path d="" fill="#000000" transform="translate(0,0)"/>
<path d="" fill="#000000" transform="translate(0,0)"/>
<path d="" fill="#000000" transform="translate(0,0)"/>
<path d="" fill="#000000" transform="translate(0,0)"/>
<path d="" fill="#000000" transform="translate(0,0)"/>
<path d="" fill="#000000" transform="translate(0,0)"/>
<path d="" fill="#151515" transform="translate(0,0)"/>
<path d="" fill="#000000" transform="translate(0,0)"/>
<path d="" fill="#000000" transform="translate(0,0)"/>
<path d="" fill="#000000" transform="translate(0,0)"/>
<path d="" fill="#000000" transform="translate(0,0)"/>
<path d="" fill="#000000" transform="translate(0,0)"/>
<path d="" fill="#000000" transform="translate(0,0)"/>
<path d="" fill="#000000" transform="translate(0,0)"/>
<path d="" fill="#000000" transform="translate(0,0)"/>
<path d="" fill="#000000" transform="translate(0,0)"/>
<path d="" fill="#000000" transform="translate(0,0)"/>
<path d="" fill="#000000" transform="translate(0,0)"/>
<path d="" fill="#000000" transform="translate(0,0)"/>
<path d="" fill="#000000" transform="translate(0,0)"/>
<path d="" fill="#000000" transform="translate(0,0)"/>
<path d="" fill="#000000" transform="translate(0,0)"/>
<path d="" fill="#000000" transform="translate(0,0)"/>
<path d="" fill="#000000" transform="translate(0,0)"/>
<path d="" fill="#000000" transform="translate(0,0)"/>
<path d="" fill="#000000" transform="translate(0,0)"/>
<path d="" fill="#000000" transform="translate(0,0)"/>
<path d="" fill="#000000" transform="translate(0,0)"/>
<path d="" fill="#000000" transform="translate(0,0)"/>
<path d="" fill="#000000" transform="translate(0,0)"/>
<path d="" fill="#000000" transform="translate(0,0)"/>
<path d="" fill="#000000" transform="translate(0,0)"/>
<path d="" fill="#000000" transform="translate(0,0)"/>
<path d="" fill="#000000" transform="translate(0,0)"/>
<path d="" fill="#000000" transform="translate(0,0)"/>
<path d="" fill="#000000" transform="translate(0,0)"/>
<path d="" fill="#000000" transform="translate(0,0)"/>
<path d="" fill="#000000" transform="translate(0,0)"/>
<path d="" fill="#000000" transform="translate(0,0)"/>
<path d="" fill="#000000" transform="translate(0,0)"/>
<path d="" fill="#000000" transform="translate(0,0)"/>
<path d="" fill="#000000" transform="translate(0,0)"/>
<path d="" fill="#000000" transform="translate(0,0)"/>
<path d="" fill="#000000" transform="translate(0,0)"/>
</svg>
